<svg fill="none" height="28" viewBox="0 0 28 28" width="28" xmlns="http://www.w3.org/2000/svg"><path d="m13.9535.875c-7.71361.020095-13.9535 5.07054-13.9535 11.2932 0 3.8129 2.38475 7.368 6.34203 9.4536-.63923 2.0279-1.57171 5.1995-1.23315 5.48.35998.2972 4.21924-2.3318 6.35352-3.8272.837.1248 1.6863.1876 2.538.1876 7.7317 0 13.9996-5.0563 13.9996-11.2932 0-6.23686-6.2679-11.293163-13.9996-11.293163-.0156 0-.0305 0-.0461 0z" fill="#1f2022"/><g fill="#ffe227"><path d="m3.28997 8.12061c-.49147 0-.88665.39518-.88665.88665v.00334c0 .49147.39518.88665.88665.88665h1.38565v5.33325c0 .4923.39686.8884.88833.8884.49146 0 .88832-.3961.88832-.8884v-5.33325h1.425c.49147 0 .88665-.39518.88665-.88665v-.00334c0-.49147-.39518-.88665-.88665-.88665z"/><path d="m10.7273 8.11865c-.0929 0-.185.01256-.2738.03684-.3173.03684-.60194.24448-.72501.56347l-2.38449 6.20324c-.17666.4596.05107.9712.51072 1.1478.45965.1767.97121-.051 1.14787-.5107l.36169-.9402h2.76632l.3617.9402c.1766.4597.689.6874 1.1478.5107.4597-.1766.6874-.689.5108-1.1478l-2.3845-6.20324c-.1298-.33825-.4429-.55091-.782-.56849-.0838-.02093-.17-.03182-.2562-.03182zm.0193 2.90355.6999 1.8211h-1.3999z"/><path d="m15.5892 8.12061c-.5016 0-.9051.40355-.9051.90507v6.18812c0 .5015.4035.9051.9051.9051h2.7428c.5015 0 .9051-.4036.9051-.9051s-.4036-.9051-.9051-.9051h-1.8378v-5.28219c0-.50151-.4035-.90507-.905-.90507z"/><path d="m20.4768 8.12061c-.5015 0-.905.40355-.905.90507v6.18812c0 .5015.4035.9051.905.9051.5016 0 .9051-.4036.9051-.9051v-1.9006c.0092-.0092.0193-.0167.0285-.0259l.3156-.3232 2.1065 2.7989c.3015.4011.8674.4806 1.2676.1792.4003-.3014.4806-.8674.1792-1.2684l-2.2731-3.02 1.9139-1.95916c.3508-.35918.3442-.93019-.0142-1.281-.3583-.3508-.9293-.34411-1.2802.01424l-2.2438 2.29662v-1.69882c0-.50152-.4035-.90507-.9051-.90507z"/></g></svg>
