<svg xmlns="http://www.w3.org/2000/svg" width="486" height="486" fill="none"><g filter="url(#a)"><path fill="#fff" d="M428.805 466H53.195C32.657 466 16 449.343 16 428.805V53.195C16 32.657 32.657 16 53.195 16h375.61C449.343 16 466 32.657 466 53.195v375.61C466 449.353 449.343 466 428.805 466Z"/><path fill="#1F2022" d="M68.085 72.778h-2.327v-8.604h-1.612v7.773h-2.27V55.85h2.27v6.373h1.612v-6.662h2.327v17.217ZM53.93 57.473h2.423v8.999c1.613-.048 3.139-.203 4.558-.483l.241 2.076a34.017 34.017 0 0 1-6.054.512H53.93V57.473Zm36.248 8.11H74.44v-1.892h6.701v-1.477h-4.789v-5.9h11.935v1.873h-9.53v2.134h9.626v1.893h-4.886v1.477h6.682v1.893ZM76.235 69.64c0-.676.242-1.245.715-1.718.483-.483 1.168-.84 2.076-1.092.907-.25 1.989-.367 3.244-.367 1.246 0 2.308.126 3.206.367.898.242 1.584.609 2.066 1.092a2.31 2.31 0 0 1 .724 1.718 2.38 2.38 0 0 1-.724 1.71c-.483.473-1.168.83-2.066 1.08-.898.252-1.96.368-3.206.368-1.255 0-2.337-.126-3.235-.367-.898-.251-1.593-.608-2.085-1.082a2.334 2.334 0 0 1-.715-1.709Zm2.462 0c-.01.445.29.782.88 1.004.598.213 1.496.319 2.693.319 2.376 0 3.573-.444 3.573-1.323-.01-.444-.31-.772-.918-1.004-.598-.232-1.486-.338-2.655-.338-1.188 0-2.086.116-2.684.338-.599.222-.898.55-.889 1.004Zm22.306-10.37h-3.486a3.89 3.89 0 0 0 .454 1.747c.3.56.743 1.053 1.342 1.487.599.435 1.342.773 2.231 1.005l-1.101 1.892c-.956-.25-1.777-.637-2.462-1.149a5.938 5.938 0 0 1-1.632-1.844 6.386 6.386 0 0 1-1.632 2.105c-.695.589-1.545 1.023-2.53 1.323l-1.159-1.893c.888-.241 1.632-.608 2.24-1.091.609-.483 1.063-1.023 1.362-1.642a4.55 4.55 0 0 0 .463-1.94h-3.466v-1.893h3.466v-1.893h2.443v1.893h3.448v1.893h.019Zm-7.696 10.274c0-.686.232-1.275.695-1.768.473-.492 1.15-.869 2.038-1.12.888-.26 1.94-.386 3.167-.386 1.197 0 2.23.126 3.099.386.869.251 1.536.628 2.009 1.12a2.49 2.49 0 0 1 .695 1.768c0 .676-.232 1.255-.705 1.728-.463.483-1.139.86-2.008 1.11-.869.251-1.902.377-3.09.377-1.217 0-2.27-.126-3.158-.376-.888-.252-1.574-.618-2.047-1.11a2.398 2.398 0 0 1-.695-1.73Zm2.414 0c-.01.463.28.82.869 1.052.589.232 1.458.348 2.607.348 1.12 0 1.97-.116 2.549-.348.58-.231.869-.58.869-1.052 0-.483-.289-.84-.859-1.072-.57-.232-1.429-.348-2.559-.348-1.159 0-2.037.116-2.617.348-.57.231-.859.589-.859 1.072Zm6.701-13.982h2.424v4.084h2.327v1.95h-2.327v4.356h-2.424V55.56Zm21.244 8.603h-15.74v-1.892h15.74v1.892Zm-13.924 1.024h11.973v4.5h-9.588v1.062h10.042v1.873h-12.408V67.97h9.569v-.966h-9.588v-1.815Zm.154-9.29h11.771v1.932H112.3v1.613h9.502v1.892h-11.896V55.9h-.01Zm30.474 10.39h-15.7v-1.93h15.7v1.93Zm-14.126-6.681c0-.725.26-1.352.772-1.883.522-.531 1.246-.937 2.192-1.217.956-.28 2.057-.425 3.312-.415 1.246-.01 2.347.135 3.283.415.946.28 1.68.695 2.192 1.217.522.53.782 1.158.782 1.883 0 .724-.26 1.352-.782 1.892-.521.54-1.246.946-2.192 1.236-.936.28-2.037.425-3.283.425-1.265 0-2.366-.145-3.312-.425-.946-.29-1.68-.705-2.192-1.236a2.649 2.649 0 0 1-.772-1.893Zm.318 7.83h2.424v3.1h9.608v1.931h-12.032v-5.03Zm2.192-7.83c-.009.53.319.926.966 1.197.656.27 1.593.405 2.8.405 1.207 0 2.134-.135 2.781-.405.657-.27.985-.676.985-1.198 0-.52-.328-.917-.985-1.187-.657-.28-1.584-.425-2.781-.435-1.207.01-2.134.155-2.79.435-.657.27-.976.676-.976 1.188Zm32.869 7.512h-6.74v5.64h-2.385v-5.64h-6.643v-1.931h15.759v1.931h.009Zm-13.904-10.728h12.012v6.943h-12.012V56.39Zm9.607 5.05v-3.138h-7.222v3.138h7.222Zm21.002 4.732h-15.7v-1.931h15.7v1.93Zm-14.889-4.857c1.207-.184 2.25-.522 3.119-1.005.878-.482 1.545-1.052 1.998-1.699.454-.657.686-1.323.696-2.009v-.589h2.481v.59c0 .685.222 1.352.676 2.008.454.647 1.12 1.217 1.999 1.7.879.482 1.922.82 3.138 1.004l-.965 1.912c-1.41-.232-2.637-.657-3.679-1.294-1.043-.638-1.854-1.42-2.414-2.347-.57.927-1.381 1.71-2.434 2.356-1.043.638-2.269 1.063-3.679 1.285l-.936-1.912Zm1.072 6.102h2.423v3.12h9.608v1.93h-12.031v-5.05Zm24.217-11.346c.869 0 1.641.165 2.346.502.696.339 1.246.802 1.642 1.4.405.6.608 1.275.608 2.038 0 .753-.203 1.42-.608 2.018a4.095 4.095 0 0 1-1.642 1.4c-.705.338-1.477.502-2.346.502-.879 0-1.671-.164-2.376-.502-.704-.338-1.264-.81-1.66-1.4a3.544 3.544 0 0 1-.599-2.018c0-.753.203-1.439.599-2.037.405-.599.956-1.063 1.66-1.4.715-.338 1.507-.503 2.376-.503Zm-2.289 3.93c-.009.406.087.754.28 1.053.194.29.464.512.812.676a2.9 2.9 0 0 0 1.187.241c.435-.01.821-.087 1.159-.241.348-.155.618-.386.811-.676.193-.3.29-.647.29-1.053a1.89 1.89 0 0 0-.29-1.052 1.804 1.804 0 0 0-.811-.676 2.76 2.76 0 0 0-1.159-.241c-.444 0-.84.077-1.187.241a1.875 1.875 0 0 0-.812.676c-.193.3-.28.657-.28 1.052Zm.251 4.906h11.559v4.673h-9.154v1.12h9.627v1.893h-11.993v-4.77h9.115v-1.062h-9.154v-1.854Zm9.135-9.347h2.424v8.622h-2.424v-8.622Zm12.601.241c1.323 0 2.443.116 3.38.338.936.232 1.651.56 2.143 1.004.493.435.734.966.734 1.594 0 .637-.241 1.178-.734 1.622-.492.434-1.207.763-2.134.994-.936.232-2.066.338-3.389.338s-2.452-.116-3.399-.338c-.936-.231-1.651-.56-2.143-.994-.493-.444-.734-.985-.734-1.622 0-.628.251-1.15.734-1.594.492-.444 1.207-.772 2.143-1.004.947-.222 2.076-.338 3.399-.338Zm-7.85 6.701h15.701v1.912h-15.701v-1.912Zm1.815 2.916h11.974v4.394h-9.589v1.043h10.042v1.815H202.41v-4.538h9.57v-.946h-9.589V65.42Zm2.289-6.681c-.01.415.289.714.898.898.608.183 1.564.27 2.848.27 1.294 0 2.24-.087 2.849-.27.608-.184.917-.483.917-.898 0-.782-1.255-1.169-3.766-1.169-1.255 0-2.192.097-2.819.3-.628.193-.937.482-.927.869Zm30.686 3.553h2.54v1.99h-2.54v8.496h-2.385V55.562h2.385v6.73Zm-13.682-4.162h3.901v-2.307h2.424v2.307h3.804v1.931h-10.119v-1.93h-.01Zm.705 7c0-.79.193-1.496.57-2.114a3.823 3.823 0 0 1 1.573-1.458c.676-.357 1.43-.53 2.27-.53.83 0 1.574.173 2.24.53.666.348 1.187.83 1.574 1.458.386.628.579 1.333.579 2.115 0 .792-.193 1.497-.579 2.115a3.962 3.962 0 0 1-1.574 1.457c-.666.358-1.42.532-2.24.532-.84 0-1.594-.174-2.27-.532a4.089 4.089 0 0 1-1.573-1.457c-.387-.618-.57-1.323-.57-2.115Zm2.308 0c0 .435.086.812.26 1.13.184.32.435.57.744.734.318.174.676.252 1.091.242a2.2 2.2 0 0 0 1.081-.242 1.79 1.79 0 0 0 .734-.733c.174-.32.261-.696.261-1.13 0-.435-.087-.811-.261-1.14a1.877 1.877 0 0 0-.734-.743 2.215 2.215 0 0 0-1.081-.27c-.406.01-.773.096-1.091.27-.319.174-.57.425-.744.743-.174.329-.26.705-.26 1.14Zm28.021-6.45a88.08 88.08 0 0 1-.048 2.588 30.864 30.864 0 0 1-.183 2.52 37.98 37.98 0 0 1-.473 3.13l-2.424-.252c.299-1.439.483-2.742.57-3.9.077-1.16.125-2.425.135-3.805h-10.139v-1.912h12.562v1.632Zm-14.194 10.033h5.62v-5.919h2.404v5.92h7.686v1.969h-15.7v-1.97h-.01Zm27.471-2.105c0 .734.165 1.43.493 2.086.328.666.821 1.217 1.487 1.67.685-.482 1.197-1.052 1.535-1.728.348-.676.522-1.352.522-2.038v-.588h2.385v.588c-.01.956.251 1.797.782 2.54.541.734 1.352 1.275 2.452 1.622l-1.168 1.758c-.801-.27-1.477-.657-2.037-1.16a5.336 5.336 0 0 1-1.285-1.776 5.894 5.894 0 0 1-1.226 1.854 5.236 5.236 0 0 1-1.883 1.236 5.38 5.38 0 0 1-1.96-1.207 5.427 5.427 0 0 1-1.226-1.815 5.539 5.539 0 0 1-1.285 1.728 5.706 5.706 0 0 1-1.96 1.15l-1.187-1.758c.724-.251 1.322-.59 1.805-1.024.483-.434.84-.917 1.072-1.458.232-.54.357-1.1.357-1.68v-.589h2.347v.59h-.02Zm-5.996-6.015c0-.802.203-1.517.618-2.134.406-.628.975-1.12 1.68-1.478.715-.357 1.526-.531 2.414-.531.879 0 1.68.174 2.395.531.714.357 1.284.85 1.69 1.478a3.77 3.77 0 0 1 .627 2.134c0 .791-.212 1.496-.627 2.114-.406.628-.976 1.11-1.69 1.468-.715.347-1.506.521-2.395.521-.879 0-1.68-.174-2.404-.521-.715-.357-1.284-.84-1.69-1.468-.415-.618-.618-1.323-.618-2.114Zm2.366 0c-.01.424.087.791.28 1.12.203.318.483.56.83.724.357.174.773.25 1.227.25.444 0 .84-.086 1.187-.25.357-.174.628-.415.831-.724.202-.319.299-.696.299-1.12 0-.435-.097-.812-.299-1.13a1.974 1.974 0 0 0-.831-.734c-.347-.174-.743-.251-1.187-.251-.464 0-.87.087-1.227.25a1.982 1.982 0 0 0-.83.735c-.193.318-.29.695-.28 1.13Zm9.366-5.012h2.424v9.724h-2.424V55.58Zm12.601.222c1.323 0 2.443.116 3.38.338.936.232 1.651.56 2.143 1.004.493.435.734.966.734 1.594 0 .637-.251 1.178-.734 1.622-.492.434-1.207.763-2.134.994-.927.232-2.066.338-3.389.338s-2.452-.116-3.399-.338c-.936-.231-1.651-.56-2.143-.994-.493-.444-.734-.985-.734-1.622 0-.628.251-1.15.734-1.594.492-.444 1.207-.772 2.143-1.004.937-.222 2.067-.338 3.399-.338Zm-7.86 6.701h15.701v1.912h-15.701v-1.912Zm1.825 2.916h11.974v4.394h-9.589v1.043h10.043v1.815h-12.408v-4.538h9.569v-.946h-9.589V65.42Zm2.289-6.681c-.01.415.289.714.898.898.608.183 1.564.27 2.848.27 1.294 0 2.24-.087 2.849-.27.608-.184.917-.483.917-.898 0-.782-1.255-1.169-3.766-1.169-1.255 0-2.192.097-2.819.3-.628.193-.937.482-.927.869Zm26.428 3.572h2.289v1.99h-2.289v8.478h-2.423V55.56h2.423v6.75Zm-14.136 5.475c.763-.83 1.371-1.67 1.815-2.54.444-.868.773-1.766.975-2.713.213-.956.338-2.037.387-3.244h-2.424v-1.97h4.731c-.009 1.758-.096 3.303-.28 4.616a14.334 14.334 0 0 1-1.062 3.766c-.521 1.197-1.265 2.336-2.25 3.427l-1.892-1.342Zm4.866 1.11c.754-.926 1.352-1.882 1.787-2.877.444-.994.763-2.018.956-3.09a23.41 23.41 0 0 0 .367-3.64h-1.922v-1.97h4.201c-.01 1.864-.097 3.515-.261 4.954a17.304 17.304 0 0 1-1.014 4.171c-.502 1.342-1.236 2.607-2.202 3.795l-1.912-1.342Zm15.228-2.172c0-.753.068-1.371.203-1.835.135-.473.328-.85.579-1.13.251-.28.58-.56 1.004-.82.464-.3.821-.608 1.072-.918a1.59 1.59 0 0 0 .367-1.071c0-.31-.068-.58-.222-.811a1.434 1.434 0 0 0-.599-.55 1.792 1.792 0 0 0-.83-.213c-.299.01-.579.077-.84.212a1.618 1.618 0 0 0-.637.59c-.165.25-.251.56-.271.907h-2.684c.009-.86.222-1.584.618-2.163a3.624 3.624 0 0 1 1.593-1.323c.666-.3 1.42-.444 2.24-.444.889 0 1.661.145 2.337.444.686.3 1.207.724 1.593 1.284.387.56.58 1.217.58 1.98 0 .743-.174 1.38-.531 1.912-.348.521-.85.985-1.516 1.38-.367.223-.667.445-.889.677a2.354 2.354 0 0 0-.502.791c-.106.3-.164.676-.164 1.11v.213h-2.501v-.222Zm-.28 2.897c-.01-.28.058-.55.203-.782a1.616 1.616 0 0 1 1.39-.792c.28 0 .541.067.773.212.241.136.434.329.579.58.145.241.222.502.222.782 0 .29-.077.56-.222.801a1.577 1.577 0 0 1-1.352.792c-.289 0-.56-.068-.801-.212a1.615 1.615 0 0 1-.589-.58 1.456 1.456 0 0 1-.203-.801Z"/><path fill="#4181F0" d="M241.099 275.911c-47.102 0-85.437-38.325-85.437-85.437 0-12.041 2.453-23.676 7.31-34.616a.694.694 0 0 1 .917-.358l33.4 14.793c.174.078.3.213.367.387a.698.698 0 0 1-.009.54 47.196 47.196 0 0 0-4.066 19.254c0 26.207 21.321 47.508 47.518 47.508.386 0 .695.309.695.695v36.529a.695.695 0 0 1-.695.705Z"/><path fill="#fff" d="m163.619 156.147 33.4 14.793a48.095 48.095 0 0 0-4.123 19.534c0 26.622 21.581 48.213 48.212 48.213v36.529c-46.793.009-84.731-37.939-84.731-84.732-.01-12.234 2.578-23.841 7.242-34.337Zm0-1.39c-.541 0-1.043.309-1.275.83-4.886 11.018-7.367 22.75-7.367 34.887 0 23.001 8.96 44.64 25.221 60.901 16.261 16.261 37.9 25.222 60.901 25.222.772 0 1.39-.618 1.39-1.391v-36.529c0-.772-.618-1.39-1.39-1.39-25.821 0-46.813-21.002-46.813-46.813 0-6.595 1.342-12.977 4.007-18.964.155-.338.165-.724.029-1.072a1.401 1.401 0 0 0-.733-.772l-33.401-14.793a1.466 1.466 0 0 0-.569-.116Z"/><path fill="#71BA9D" d="M232.746 143.662a.672.672 0 0 1-.656-.55l-6.344-35.969a.662.662 0 0 1 .116-.502.62.62 0 0 1 .434-.271 86.736 86.736 0 0 1 14.832-1.284c.367 0 .666.3.666.667v36.528a.668.668 0 0 1-.666.667c-2.772 0-5.543.241-8.256.714h-.126Z"/><path fill="#fff" d="M241.116 105.743v36.529c-2.858 0-5.649.251-8.372.724l-6.344-35.978a84.855 84.855 0 0 1 14.716-1.275Zm0-1.342c-5.002 0-10.033.434-14.948 1.294-.347.057-.656.26-.869.55-.202.29-.28.657-.222 1.004l6.344 35.969a1.345 1.345 0 0 0 1.555 1.091 47.797 47.797 0 0 1 8.14-.705c.744 0 1.342-.598 1.342-1.342v-36.529c0-.734-.608-1.332-1.342-1.332Z"/><path fill="#FF6D3A" d="M240.426 275.892V238.03h.666c2.771 0 5.543-.241 8.256-.714 15.604-2.733 28.765-13.036 35.215-27.568a47.257 47.257 0 0 0 4.066-19.264c0-26.216-21.33-47.536-47.537-47.536h-.666v-37.862h.666c47.093 0 85.408 38.315 85.408 85.408 0 12.031-2.453 23.677-7.3 34.597-11.578 26.091-35.235 44.611-63.267 49.517a86.725 86.725 0 0 1-14.831 1.284h-.676Z"/><path fill="#fff" d="M241.096 105.743c46.803 0 84.732 37.938 84.732 84.732 0 12.224-2.588 23.84-7.252 34.327-11.259 25.385-34.626 44.195-62.774 49.13a84.945 84.945 0 0 1-14.716 1.274v-36.529c2.859 0 5.649-.251 8.372-.724 16.01-2.8 29.306-13.518 35.718-27.954a48.091 48.091 0 0 0 4.123-19.534c0-26.622-21.581-48.213-48.213-48.213l.01-36.509Zm0-1.342h-1.342v39.213h1.342c25.849 0 46.87 21.031 46.87 46.87a46.618 46.618 0 0 1-4.007 18.994c-6.353 14.319-19.331 24.478-34.723 27.181a47.797 47.797 0 0 1-8.14.705h-1.342v39.213h1.342c5.002 0 10.033-.434 14.948-1.293 13.924-2.443 27.172-8.372 38.315-17.159 10.988-8.671 19.795-19.988 25.453-32.744 4.886-11.008 7.368-22.74 7.368-34.877 0-22.992-8.952-44.611-25.212-60.862-16.271-16.29-37.881-25.241-60.872-25.241Z"/><path fill="#F4B95C" d="M197.017 171.645a.685.685 0 0 1-.28-.058l-33.401-14.802a.693.693 0 0 1-.367-.387.702.702 0 0 1 .01-.54c11.587-26.101 35.245-44.621 63.295-49.526.039-.01.078-.01.126-.01.328 0 .628.232.686.57l6.344 35.969a.718.718 0 0 1-.116.521.642.642 0 0 1-.454.28c-15.604 2.733-28.756 13.026-35.196 27.549a.721.721 0 0 1-.647.434Z"/><path fill="#fff" d="m226.395 107.017 6.344 35.969c-16.009 2.8-29.306 13.519-35.717 27.954l-33.401-14.793c11.259-25.385 34.627-44.205 62.774-49.13Zm0-1.39c-.077 0-.164.01-.241.019-13.934 2.443-27.191 8.372-38.344 17.169-10.989 8.68-19.795 20.007-25.463 32.763a1.418 1.418 0 0 0-.029 1.071c.135.348.396.618.734.773l33.4 14.793c.183.077.377.116.56.116.541 0 1.043-.309 1.275-.831 6.353-14.31 19.312-24.449 34.684-27.143a1.4 1.4 0 0 0 .898-.57c.212-.309.299-.675.232-1.042l-6.335-35.969a1.386 1.386 0 0 0-1.371-1.149Z"/><path fill="#FF6D3A" d="M63.486 314.275a4.31 4.31 0 0 0 4.307-4.307 4.31 4.31 0 0 0-4.307-4.306 4.31 4.31 0 0 0-4.306 4.306 4.304 4.304 0 0 0 4.306 4.307Z"/><path fill="#32363A" d="M88.427 303.894h-6.759v9.328h6.76v-9.328Zm-5.03 7.918v-6.546h3.282v6.546h-3.283Zm7.183 4.935h1.758v-7.291h2.192v-1.467h-2.192v-5.475H90.58v14.233Zm10.863-12.611h-5.571v1.419h3.862a9.535 9.535 0 0 1-.299 1.854l-4.268.242.212 1.506 3.564-.367c-.696 1.477-1.883 2.762-3.814 3.862l.994 1.207c2.211-1.245 3.563-2.761 4.345-4.48h2.289v6.692h1.651v-13.229h-1.651v5.127h-1.777c.338-1.197.463-2.481.463-3.833Zm4.317 12.611h1.651v-14.243h-1.651v14.243Zm10.998-13.229h-6.875v6.914h1.207c3.071.009 4.857-.049 6.904-.377l-.174-1.391c-1.863.319-3.505.348-6.17.348v-1.381h4.702v-1.371h-4.702v-1.342h5.118v-1.4h-.01Zm-5.494 10.554c0 1.69 1.834 2.675 4.876 2.665 2.993.01 4.876-.975 4.876-2.665-.009-1.68-1.883-2.665-4.876-2.665-3.042 0-4.876.975-4.876 2.665Zm1.747 0c0-.84 1.111-1.304 3.129-1.304 1.979 0 3.129.464 3.129 1.304 0 .859-1.15 1.313-3.129 1.313-2.018 0-3.129-.454-3.129-1.313Zm6.18-2.868h1.758v-8.681h-1.758v8.681Zm8.951-7.802h-1.757l-3.679 13.673h1.758l3.678-13.673Zm8.585-.077h-7.271v1.419h5.523c-.01.821-.058 1.816-.319 3.09l1.719.145c.348-1.593.348-2.868.357-3.785v-.869h-.009Zm-8.121 5.793.154 1.43c2.569 0 5.862-.078 8.826-.59l-.097-1.236c-1.39.174-2.896.271-4.374.319v-2.578h-1.738v2.617c-.985.029-1.921.038-2.771.038Zm1.854 4.925c0 1.69 1.873 2.665 4.886 2.665s4.886-.975 4.886-2.665c0-1.622-1.864-2.617-4.886-2.617-3.013.01-4.886.995-4.886 2.617Zm1.786 0c-.009-.802 1.14-1.265 3.1-1.265 1.96 0 3.08.454 3.09 1.265-.01.869-1.13 1.294-3.09 1.284-1.96.01-3.109-.415-3.1-1.284Zm6.093-2.781h1.787v-3.65h1.854v-1.458h-1.854v-3.64h-1.787v8.748Zm16-7.454h-10.274v1.409h8.517c-.01 1.719-.01 3.737-.57 6.509l1.777.193c.55-2.974.55-4.964.56-6.731v-1.38h-.01Zm-11.626 11.104h12.988v-1.439h-6.45v-4.953h-1.748v4.953h-4.799v1.439h.009Zm19.052-11.51h-1.758l-3.679 13.673h1.758l3.679-13.673Zm7.097 8.932c-3.177 0-4.963.772-4.963 2.221 0 1.438 1.786 2.192 4.963 2.182 3.148.01 4.934-.744 4.934-2.182 0-1.449-1.786-2.221-4.934-2.221Zm-6.479-.666h12.987v-1.372h-5.62v-.859c2.482-.126 3.853-.821 3.853-2.008 0-1.362-1.69-2.048-4.731-2.048-3.023 0-4.742.696-4.732 2.048-.01 1.187 1.381 1.873 3.853 2.008v.859h-5.61v1.372Zm.647-6.74h11.635v-1.343h-4.915v-1.216h-1.757v1.216h-4.963v1.343Zm2.665 9.617c0-.618 1.052-.927 3.167-.937 2.105.01 3.167.319 3.167.937 0 .618-1.062.908-3.167.908-2.115 0-3.167-.29-3.167-.908Zm.318-7.116c-.009-.589.966-.86 2.859-.87 1.911.01 2.858.271 2.858.87 0 .531-.947.811-2.858.82-1.893-.009-2.859-.28-2.859-.82Zm23.358 6.17h-5.677v-2.781h4.181v-7.377h-1.748v2.327h-6.605v-2.327h-1.757v7.377h4.181v2.781h-5.61v1.429h13.026v-1.429h.009Zm-9.839-4.181v-2.231h6.595v2.231h-6.595Zm221.373 6.093c2.366 0 4.056-1.613 4.056-3.853 0-2.211-1.593-3.804-3.737-3.804-.869 0-1.67.309-2.144.762h-.106l.386-3.186h5.031v-1.487h-6.469l-.744 6.354h1.632c.396-.705 1.091-1.014 2.009-1.005 1.429.01 2.462 1.024 2.462 2.405 0 1.361-.995 2.356-2.376 2.356-1.158 0-2.085-.705-2.172-1.68h-1.69c.068 1.815 1.69 3.138 3.862 3.138Zm9.792.029c2.645 0 4.19-2.144 4.19-5.891 0-3.707-1.574-5.87-4.19-5.87-2.617 0-4.191 2.153-4.191 5.87 0 3.737 1.555 5.891 4.191 5.891Zm-2.463-5.891c0-2.838.927-4.393 2.463-4.393 1.535 0 2.462 1.545 2.462 4.393 0 2.849-.917 4.394-2.462 4.394-1.536 0-2.463-1.545-2.463-4.394Zm14.32 2.955v.599c0 1.284.811 2.385 2.327 2.385 1.487 0 2.318-1.091 2.318-2.385v-.599c0-1.294-.802-2.385-2.318-2.385-1.496.01-2.327 1.101-2.327 2.385Zm-5.755-5.928c0 1.284.811 2.375 2.327 2.375 1.497 0 2.308-1.082 2.308-2.375v-.599c0-1.294-.792-2.376-2.308-2.376-1.487 0-2.327 1.092-2.327 2.376v.599Zm.541 8.671h1.333l7.85-11.414h-1.333l-7.85 11.414Zm.772-8.671v-.599c0-.628.28-1.256 1.024-1.256.772 0 .995.628.995 1.256v.599c0 .637-.252 1.255-.995 1.255-.753 0-1.024-.618-1.024-1.255Zm5.746 6.537v-.599c0-.637.27-1.265 1.023-1.265.763 0 1.005.628 1.005 1.265v.599c0 .637-.261 1.255-1.005 1.255-.763 0-1.023-.628-1.023-1.255Z"/><path fill="#4181F0" d="M63.486 350.871a4.31 4.31 0 0 0 4.307-4.307 4.31 4.31 0 0 0-4.307-4.306 4.31 4.31 0 0 0-4.306 4.306 4.304 4.304 0 0 0 4.306 4.307Z"/><path fill="#32363A" d="M93.038 339.1H91.27v14.272h1.767V339.1Zm-10.97 10.834h1.207c3.013-.009 4.857-.087 6.895-.463l-.164-1.439c-1.903.338-3.554.406-6.18.416v-6.615h5.108v-1.439h-6.866v9.54Zm18.173-6.788v-1.197h2.974v-1.439h-7.84v1.439h3.109v1.197c-.01 2.376-1.39 5.05-3.66 6.113l1.033 1.38c1.632-.791 2.878-2.462 3.525-4.422.637 1.786 1.825 3.312 3.437 4.065l.985-1.381c-2.25-1.052-3.573-3.553-3.563-5.755Zm4.297 10.197h1.757v-7.223h2.192v-1.467h-2.192v-5.543h-1.757v14.233Zm16.415-14.233h-1.757v10.293h1.757V339.11Zm-11.606 4.49c-.01 2.105 1.67 3.583 3.843 3.573 2.172.01 3.833-1.468 3.833-3.573 0-2.076-1.67-3.553-3.833-3.553-2.173 0-3.853 1.487-3.843 3.553Zm1.709 0c-.01-1.236.907-2.028 2.134-2.028 1.187 0 2.114.802 2.114 2.028 0 1.265-.927 2.047-2.114 2.047-1.227 0-2.144-.772-2.134-2.047Zm.463 9.473h9.83v-1.42h-8.063v-3.292h-1.767v4.712Zm289.548-.976c2.365 0 4.123-1.39 4.113-3.292.01-1.449-.898-2.501-2.443-2.714v-.087c1.226-.299 2.028-1.236 2.009-2.52.009-1.699-1.401-3.119-3.641-3.119-2.134 0-3.843 1.265-3.901 3.119h1.671c.048-1.033 1.062-1.67 2.211-1.67 1.207 0 1.989.705 1.989 1.747 0 1.092-.908 1.816-2.211 1.816h-.966v1.419h.966c1.641 0 2.578.811 2.568 1.941.01 1.101-.994 1.854-2.385 1.854-1.274 0-2.269-.637-2.336-1.641h-1.758c.077 1.883 1.758 3.147 4.114 3.147Zm9.926 0c2.443 0 4.191-1.342 4.2-3.196-.009-1.458-1.071-2.655-2.394-2.877v-.058c1.139-.261 1.941-1.304 1.95-2.55-.009-1.757-1.593-3.041-3.756-3.041-2.182 0-3.766 1.284-3.766 3.041 0 1.246.782 2.289 1.951 2.55v.058c-1.343.222-2.395 1.419-2.376 2.877-.019 1.854 1.709 3.196 4.191 3.196Zm-2.433-3.312c-.02-1.168 1.014-2.027 2.433-2.027 1.4 0 2.433.859 2.433 2.027 0 1.13-.946 1.903-2.433 1.903-1.506 0-2.453-.783-2.433-1.903Zm.357-5.224c0-1.062.821-1.776 2.076-1.776 1.217 0 2.057.714 2.057 1.776 0 1.072-.869 1.816-2.057 1.816-1.217 0-2.076-.734-2.076-1.816Zm13.943 5.64v.598c0 1.284.811 2.385 2.327 2.385 1.487 0 2.318-1.091 2.318-2.385v-.598c0-1.294-.802-2.386-2.318-2.386-1.496.01-2.327 1.101-2.327 2.386Zm-5.755-5.929c0 1.284.811 2.375 2.327 2.375 1.497 0 2.308-1.081 2.308-2.375v-.599c0-1.294-.792-2.375-2.308-2.375-1.477 0-2.327 1.091-2.327 2.375v.599Zm.551 8.671h1.332l7.851-11.414h-1.333l-7.85 11.414Zm.762-8.671v-.599c0-.627.28-1.255 1.024-1.255.772 0 .995.628.995 1.255v.599c0 .637-.251 1.255-.995 1.255-.753 0-1.024-.618-1.024-1.255Zm5.746 6.527v-.598c0-.638.27-1.265 1.023-1.265.763 0 1.005.627 1.005 1.265v.598c0 .638-.261 1.256-1.005 1.256-.762 0-1.023-.618-1.023-1.256Z"/><path fill="#F4B95C" d="M63.486 387.458a4.31 4.31 0 0 0 4.307-4.307 4.31 4.31 0 0 0-4.307-4.306 4.31 4.31 0 0 0-4.306 4.306 4.304 4.304 0 0 0 4.306 4.307Z"/><path fill="#32363A" d="M92.871 376.991h-10.38v1.41h8.623v.048c0 1.718 0 3.669-.493 6.305l1.72.174c.51-2.8.51-4.712.52-6.479v-1.458h.01Zm-11.693 11.114h12.987v-1.439h-4.79v-4.548h-1.718v4.548h-1.815v-4.548h-1.748v4.548h-2.907v1.439h-.01Zm26.94-5.688H95.131v1.401h3.196v1.487h-1.758v1.38h8.198v3.245h1.758v-4.625h-1.661v-1.487h3.244v-1.401h.01Zm-11.635-3.65c-.01 1.739 2.008 2.791 5.137 2.791 3.118.01 5.127-1.052 5.127-2.791 0-1.718-2.009-2.771-5.127-2.771-3.129-.009-5.147 1.043-5.138 2.771Zm1.815 0c-.01-.898 1.226-1.4 3.322-1.4 2.076-.009 3.331.502 3.331 1.4 0 .927-1.255 1.43-3.331 1.43-2.096 0-3.332-.503-3.322-1.43Zm1.786 6.538v-1.487h3.052v1.487h-3.052Zm298.018 3.234h7.666v-1.487h-5.252v-.087l2.317-2.356c2.144-2.105 2.742-3.119 2.752-4.393-.01-1.854-1.535-3.245-3.737-3.245-2.173 0-3.766 1.381-3.756 3.477h1.651c0-1.217.811-2.019 2.076-2.019 1.197 0 2.115.715 2.115 1.845-.01 1.004-.628 1.718-1.883 3.022l-3.959 3.998.01 1.245Zm13.47.184c2.645 0 4.19-2.144 4.19-5.89 0-3.708-1.574-5.871-4.19-5.871-2.617 0-4.191 2.153-4.191 5.871 0 3.746 1.555 5.89 4.191 5.89Zm-2.453-5.89c0-2.839.927-4.394 2.462-4.394 1.536 0 2.463 1.545 2.463 4.394 0 2.848-.918 4.393-2.463 4.393s-2.472-1.545-2.462-4.393Zm14.31 2.964v.599c0 1.284.811 2.385 2.327 2.385 1.487 0 2.318-1.092 2.318-2.385v-.599c0-1.294-.802-2.385-2.318-2.385-1.487 0-2.327 1.091-2.327 2.385Zm-5.745-5.929c0 1.284.811 2.376 2.327 2.376 1.497 0 2.308-1.082 2.308-2.376v-.598c0-1.294-.792-2.376-2.308-2.376-1.487 0-2.327 1.091-2.327 2.376v.598Zm.541 8.671h1.332l7.851-11.413h-1.333l-7.85 11.413Zm.763-8.671v-.598c0-.628.28-1.256 1.023-1.256.773 0 .995.628.995 1.256v.598c0 .637-.251 1.255-.995 1.255-.753-.009-1.023-.627-1.023-1.255Zm5.754 6.528v-.599c0-.637.271-1.265 1.024-1.265.763 0 1.004.628 1.004 1.265v.599c0 .637-.26 1.255-1.004 1.255-.772 0-1.024-.628-1.024-1.255Z"/><path fill="#71BA9D" d="M63.486 424.054a4.31 4.31 0 0 0 4.307-4.307 4.31 4.31 0 0 0-4.307-4.306 4.31 4.31 0 0 0-4.306 4.306 4.298 4.298 0 0 0 4.306 4.307Z"/><path fill="#32363A" d="M94.196 420.356H81.17v1.419h5.61v4.741h1.738v-4.741h5.688v-1.419h-.01Zm-11.442-1.671h9.839v-5.668h-9.84v5.668Zm1.718-1.371v-2.897h6.373v2.897h-6.373Zm22.595 4.075h-9.714v1.391h7.967v3.756h1.747v-5.147Zm-11.741-4.867c-.01 2.048 1.612 3.505 3.756 3.496 1.178.009 2.211-.444 2.877-1.207h3.351v1.873h1.748v-8.41h-1.748v1.97h-3.351c-.676-.744-1.699-1.198-2.877-1.198-2.144.01-3.766 1.458-3.756 3.476Zm1.67 0c0-1.197.87-1.969 2.086-1.969 1.168 0 2.066.782 2.066 1.969 0 1.236-.888 2.009-2.066 2.009-1.217 0-2.086-.773-2.086-2.009Zm5.717.879c.067-.28.106-.57.106-.879 0-.299-.039-.579-.097-.84h2.598v1.719h-2.607Zm23.213 2.868H112.9v1.419h3.119v4.838h1.796v-4.838h3.167v4.838h1.776v-4.838h3.177v-1.419h-.009Zm-11.665-4.287c-.01 1.912 2.076 3.119 5.108 3.109 3.042.01 5.137-1.207 5.137-3.109 0-1.941-2.095-3.187-5.137-3.187-3.022 0-5.108 1.246-5.108 3.187Zm1.815 0c-.009-1.12 1.294-1.777 3.303-1.777 2.028 0 3.322.657 3.331 1.777-.009 1.091-1.303 1.718-3.331 1.718-2.018 0-3.322-.637-3.303-1.718Zm23.774 3.717h-5.63v-1.052h4.191v-1.352h-8.14v-1.014h7.686v-1.284h-7.686v-.966h8.034v-1.361h-9.801v5.986h3.959v1.053h-5.62v1.39h13.016v-1.4h-.009Zm-11.472 4.49c0 1.526 1.787 2.327 4.963 2.327 3.139.01 4.935-.801 4.944-2.327-.009-1.496-1.796-2.327-4.944-2.317-3.167-.01-4.963.821-4.963 2.317Zm1.758 0c-.01-.676 1.062-1.014 3.205-1.014 2.115 0 3.177.338 3.187 1.014-.01.696-1.072 1.024-3.187 1.014-2.143.01-3.215-.318-3.205-1.014Zm274.441-10.477h-1.699l-2.839 1.864v1.661l2.723-1.777h.068v9.676h1.738v-11.424h.009Zm6.818 11.578c2.442 0 4.19-1.342 4.2-3.196-.01-1.458-1.072-2.656-2.395-2.878v-.057c1.14-.261 1.941-1.304 1.951-2.55-.01-1.757-1.594-3.041-3.756-3.041-2.183 0-3.766 1.284-3.766 3.041 0 1.246.782 2.289 1.95 2.55v.057c-1.342.222-2.394 1.42-2.375 2.878-.019 1.854 1.709 3.196 4.191 3.196Zm-2.434-3.322c-.019-1.168 1.014-2.027 2.434-2.027 1.4 0 2.433.859 2.433 2.027 0 1.13-.946 1.903-2.433 1.903-1.507 0-2.453-.773-2.434-1.903Zm.357-5.214c0-1.062.821-1.777 2.077-1.777 1.216 0 2.056.715 2.056 1.777 0 1.072-.869 1.815-2.056 1.815-1.217-.009-2.077-.743-2.077-1.815Zm13.944 5.639v.599c0 1.284.811 2.385 2.327 2.385 1.487 0 2.317-1.091 2.317-2.385v-.599c0-1.294-.801-2.385-2.317-2.385-1.497 0-2.327 1.091-2.327 2.385Zm-5.746-5.938c0 1.284.812 2.375 2.328 2.375 1.496 0 2.307-1.081 2.307-2.375v-.599c0-1.294-.791-2.375-2.307-2.375-1.478 0-2.328 1.091-2.328 2.375v.599Zm.541 8.681h1.333l7.85-11.414h-1.332l-7.851 11.414Zm.763-8.681v-.599c0-.628.28-1.255 1.024-1.255.772 0 .994.627.994 1.255v.599c0 .637-.251 1.255-.994 1.255-.754 0-1.024-.618-1.024-1.255Zm5.755 6.537v-.599c0-.637.27-1.265 1.024-1.265.762 0 1.004.628 1.004 1.265v.599c0 .637-.261 1.255-1.004 1.255-.773 0-1.024-.627-1.024-1.255Z"/><g filter="url(#b)"><path fill="#fff" d="M312.502 151.088h83.718c6.161 0 11.162 5.002 11.162 11.163v106.033c0 6.16-5.001 11.162-11.162 11.162h-83.718c-6.16 0-11.162-5.002-11.162-11.162V162.251c0-6.17 4.992-11.163 11.162-11.163Z"/><path fill="#FF6D3A" d="M340.709 265.648c2.558 0 4.345-1.69 4.335-4.056.01-2.279-1.622-3.92-3.824-3.92-.975.009-1.834.386-2.288.898h-.116l.357-3.138h5.253v-1.787h-7l-.715 6.702h1.979c.367-.696 1.043-1.024 1.961-1.014 1.361.009 2.346.965 2.336 2.317.01 1.303-.946 2.269-2.269 2.269-1.12-.009-2.028-.695-2.095-1.651h-2.076c.058 1.97 1.796 3.38 4.162 3.38Zm10.496 0c2.848 0 4.548-2.202 4.548-6.084 0-3.862-1.709-6.083-4.548-6.083s-4.558 2.221-4.548 6.083c-.01 3.882 1.69 6.084 4.548 6.084Zm-2.405-6.074c.01-2.82.927-4.307 2.405-4.316 1.477.009 2.394 1.496 2.404 4.316 0 2.849-.927 4.287-2.404 4.297-1.487-.01-2.405-1.458-2.405-4.297Zm11.646-.155c1.68.01 2.607-1.226 2.616-3.061-.009-1.796-.907-3.041-2.616-3.041-1.642 0-2.608 1.245-2.598 3.041-.01 1.825.908 3.071 2.598 3.061Zm-1.101-3.051c.009-1.023.376-1.728 1.091-1.728.772-.01 1.101.705 1.101 1.728 0 1.062-.348 1.748-1.101 1.748-.715 0-1.082-.686-1.091-1.748Zm.019 9.125h1.651l8.14-11.838h-1.651l-8.14 11.838Zm6.209-2.732c-.01 1.796.917 3.051 2.597 3.041 1.681.01 2.607-1.226 2.617-3.041-.01-1.806-.917-3.062-2.617-3.062-1.641 0-2.607 1.256-2.597 3.062Zm1.506 0c.01-1.043.377-1.739 1.091-1.748.773-.01 1.101.705 1.101 1.748 0 1.042-.347 1.737-1.101 1.728-.714.009-1.081-.686-1.091-1.728Z"/><path fill="#32363A" d="M347.327 209.092h-2.559v-11.723h-.087l-3.322 2.125v-2.337l3.525-2.279h2.443v14.214Zm14.351-7.184.155 1.612c-1.536.3-3.119.483-4.674.599v6.18h-2.182v-6.045c-1.642.068-3.187.078-4.529.087l-.27-1.796c3.186 0 7.667-.067 11.5-.637Zm-1.091-4.307c0 2.192-1.951 3.737-4.645 3.718-2.674.009-4.625-1.526-4.615-3.718-.01-2.211 1.931-3.727 4.615-3.717 2.694-.01 4.645 1.506 4.645 3.717Zm-4.635 1.932c1.516.009 2.569-.725 2.569-1.932 0-1.216-1.053-1.969-2.569-1.96-1.468-.009-2.511.744-2.501 1.96-.019 1.198 1.033 1.941 2.501 1.932Zm6.875-6.412h2.163v17.709h-2.163v-17.709Z"/><path fill="#FF6D3A" d="M346.127 185.956a.647.647 0 0 0 .126.261.807.807 0 0 0 .212.193.908.908 0 0 0 .27.096c.097.02.193.01.29-.019a24.733 24.733 0 0 1 13.152 0 .726.726 0 0 0 .56-.077.676.676 0 0 0 .212-.193.81.81 0 0 0 .126-.261l2.298-9.772a.683.683 0 0 0-.02-.396.681.681 0 0 0-.222-.328.739.739 0 0 0-.367-.164.704.704 0 0 0-.396.058l-4.567 2.027a.795.795 0 0 1-.521.029.718.718 0 0 1-.406-.328l-2.655-4.78a.665.665 0 0 0-.271-.27.712.712 0 0 0-.367-.096.825.825 0 0 0-.366.096.814.814 0 0 0-.271.27l-2.655 4.78a.684.684 0 0 1-.406.328.691.691 0 0 1-.521-.029l-4.567-2.027a.704.704 0 0 0-.396-.058.739.739 0 0 0-.367.164.681.681 0 0 0-.222.328.78.78 0 0 0-.02.396l2.337 9.772Z"/><path fill="#484F54" d="M313.48 238.485h-5.736v-7.957h5.736v7.957Zm-1.304-1.043v-5.88h-3.167v5.88h3.167Zm3.341-8.121h1.304v4.799h1.96v1.101h-1.96v6.354h-1.304v-12.254Zm8.849 4.77h1.738v-4.461h1.226v11.337h-1.226v-5.823h-2.144c-.685 1.497-1.863 2.829-3.795 3.901l-.743-.908c1.777-.994 2.848-2.182 3.457-3.544l-3.274.338-.164-1.129 3.814-.232c.155-.57.242-1.168.29-1.777h-3.505v-1.062h4.77c-.01 1.168-.135 2.298-.444 3.36Zm4.316-4.77h1.236v12.244h-1.236v-12.244Zm9.402 1.922h-4.587v1.352h4.239v1.033h-4.239v1.4c2.453.01 3.872-.029 5.542-.309l.136 1.043c-1.777.289-3.293.338-5.968.328h-1.014v-5.88h5.9v1.033h-.009Zm-.541 5.793c2.559-.009 4.162.831 4.162 2.25 0 1.439-1.603 2.26-4.162 2.26-2.607 0-4.172-.821-4.172-2.26.01-1.429 1.574-2.259 4.172-2.25Zm0 3.496c1.786 0 2.868-.444 2.868-1.246 0-.782-1.082-1.236-2.868-1.236-1.825 0-2.878.454-2.878 1.236 0 .802 1.053 1.246 2.878 1.246Zm2.81-11.201h1.303v7.532h-1.303v-7.532Zm4.232 12.563h-1.294l3.186-11.848h1.294l-3.186 11.848Zm6.187-6.818v-2.336h1.285v2.307c1.313-.048 2.665-.135 3.891-.289l.077.927c-2.559.425-5.436.492-7.647.492l-.116-1.072c.763 0 1.622-.009 2.51-.029Zm4.413-4.316c-.01.773-.01 1.873-.319 3.283l-1.274-.116c.261-1.197.29-2.095.299-2.81h-4.886v-1.062h6.18v.705Zm-1.178 6.296c2.559.009 4.133.83 4.143 2.221 0 1.438-1.584 2.259-4.143 2.259-2.568 0-4.142-.821-4.142-2.259 0-1.391 1.583-2.221 4.142-2.221Zm0 3.447c1.757 0 2.81-.425 2.82-1.236-.01-.763-1.063-1.207-2.82-1.207-1.777 0-2.839.444-2.829 1.207-.01.811 1.062 1.236 2.829 1.236Zm2.723-11.182h1.323v3.235h1.69v1.082h-1.69v3.263h-1.323v-7.58Zm3.746 9.521h4.239v-4.316H366v4.316h5.629v1.072h-11.162v-1.072h.009Zm9.908-7.145c0 1.516 0 3.206-.474 5.726l-1.303-.145c.473-2.366.473-4.104.483-5.581v-.145h-7.435v-1.053h8.729v1.198Zm3.176 10.197h-1.294l3.186-11.848h1.294l-3.186 11.848Zm3.784-5.813h4.934v-.85c-2.173-.097-3.389-.686-3.38-1.729 0-1.158 1.458-1.757 4.017-1.757 2.578 0 4.027.599 4.027 1.757 0 1.034-1.207 1.632-3.37 1.729v.85h4.944v1.033h-11.163v-1.033h-.009Zm.56-5.784h4.364v-1.13h1.294v1.13h4.307v1.004h-9.975v-1.004h.01Zm9.241 9.385c-.01 1.226-1.536 1.864-4.23 1.864-2.723 0-4.248-.638-4.248-1.864 0-1.236 1.525-1.902 4.248-1.902 2.694 0 4.22.666 4.23 1.902Zm-4.239.898c1.902.01 2.916-.299 2.916-.907 0-.618-1.024-.937-2.916-.937-1.893 0-2.917.319-2.917.937 0 .608 1.024.917 2.917.907Zm.009-6.238c1.719 0 2.636-.289 2.646-.84 0-.569-.927-.869-2.646-.869-1.709 0-2.645.29-2.636.869-.009.551.927.84 2.636.84Zm17.739 5.707h-11.211v-1.072h4.925v-2.51h-3.65v-6.306h1.304v2.115h6.015v-2.115h1.294v6.306h-3.669v2.51h4.992v1.072Zm-2.617-4.644v-2.096h-6.015v2.096h6.015Z"/></g><g filter="url(#c)"><path fill="#fff" d="M103.068 216.247h64.58c4.751 0 8.613 3.853 8.613 8.613v32.29c0 4.751-3.853 8.613-8.613 8.613h-64.58c-4.75 0-8.613-3.853-8.613-8.613v-32.29c0-4.751 3.853-8.613 8.613-8.613Z"/><path fill="#484F54" d="M120.814 227.516h4.867v.888h-3.785v4.934c1.921 0 3.157-.058 4.596-.319l.106.898c-1.516.28-2.838.338-4.943.338h-.841v-6.739Zm7.764 9.231h-1.082v-10.178h1.082v10.178Zm7.733-3.071-.608.85c-1.14-.55-2.047-1.69-2.501-3.023-.464 1.449-1.41 2.704-2.569 3.274l-.637-.85c1.535-.734 2.656-2.655 2.665-4.364v-1.082h-2.288v-.888h5.552v.888h-2.202v1.082c-.009 1.602 1.053 3.389 2.588 4.113Zm.705-7.107h1.082v4.027h1.631v.907h-1.631v5.215h-1.082v-10.149Zm6.094.696c1.535 0 2.694 1.042 2.694 2.51 0 1.487-1.168 2.53-2.694 2.52-1.535 0-2.704-1.033-2.704-2.52 0-1.468 1.178-2.51 2.704-2.51Zm0 4.103c.927 0 1.641-.637 1.641-1.583 0-.937-.714-1.574-1.641-1.574-.946 0-1.661.637-1.651 1.574-.01.946.705 1.583 1.651 1.583Zm-1.13 1.845h1.082v2.423h5.861v.879h-6.943v-3.302Zm6.644.743h-1.082v-7.387h1.082v7.387Z"/><path fill="#FF6D3A" d="M122.535 252.592h1.613c.038.715.753 1.188 1.67 1.188.985 0 1.69-.541 1.69-1.323 0-.802-.686-1.371-1.844-1.371h-.792v-1.227h.792c.946 0 1.603-.521 1.603-1.303 0-.744-.56-1.246-1.429-1.246-.841 0-1.555.464-1.584 1.207h-1.535c.038-1.487 1.39-2.51 3.128-2.51 1.796 0 2.955 1.101 2.945 2.452.01 1.005-.647 1.719-1.622 1.922v.068c1.255.164 1.97.965 1.96 2.085.01 1.497-1.39 2.578-3.312 2.578-1.892.01-3.244-1.023-3.283-2.52Zm7.793.029c0-1.12.84-2.047 1.902-2.211v-.058c-.927-.193-1.564-1.004-1.564-1.97 0-1.371 1.284-2.375 3.032-2.375 1.738 0 3.022 1.004 3.032 2.375-.01.966-.657 1.777-1.564 1.97v.058c1.052.164 1.902 1.091 1.902 2.211 0 1.449-1.41 2.501-3.37 2.501-1.979 0-3.379-1.052-3.37-2.501Zm3.37 1.265c1.043 0 1.729-.57 1.729-1.381 0-.84-.725-1.458-1.729-1.458s-1.728.618-1.728 1.458c-.01.811.676 1.381 1.728 1.381Zm0-4.046c.85 0 1.468-.531 1.468-1.303 0-.763-.599-1.285-1.468-1.285-.888 0-1.477.522-1.477 1.285 0 .772.608 1.303 1.477 1.303Zm4.868-2.047c0-1.033.686-1.902 1.874-1.902 1.226 0 1.873.869 1.873 1.902v.464c0 1.033-.666 1.902-1.873 1.902-1.217 0-1.874-.869-1.874-1.902v-.464Zm6.595-1.67h1.082l-6.103 8.874h-1.081l6.102-8.874Zm-4.721 3.051c.56 0 .734-.464.734-.917v-.464c0-.463-.165-.927-.734-.927-.541 0-.744.464-.744.927v.464c.01.463.193.917.744.917Zm4.509 1.786c1.226 0 1.873.869 1.873 1.903v.463c0 1.033-.666 1.902-1.873 1.902-1.217 0-1.873-.878-1.873-1.902v-.463c0-1.024.676-1.903 1.873-1.903Zm0 3.293c.55 0 .734-.463.734-.917v-.464c0-.463-.164-.927-.734-.927-.55 0-.743.464-.743.927v.464c0 .454.183.917.743.917Z"/></g><g filter="url(#d)"><path fill="#fff" d="M112.047 96.222h64.579c4.751 0 8.613 3.853 8.613 8.613v32.29a8.614 8.614 0 0 1-8.613 8.613h-64.579a8.614 8.614 0 0 1-8.613-8.613v-32.29c.009-4.75 3.862-8.613 8.613-8.613Z"/><path fill="#484F54" d="M134.697 114.211h2.182v-3.292h1.072v3.292h1.458v-3.292h1.062v3.292h3.477v.889h-9.26v-.889h.009Zm8.246-5.832c-.009 1.284-.009 2.617-.367 4.558l-1.062-.116c.358-1.835.358-3.196.358-4.452v-.212h-6.229v-.869h7.3v1.091Zm11.028 3.65h-2.395v1.178h1.256v3.264h-1.082v-2.414h-6.006v-.85h1.342v-1.178h-2.365v-.869h9.26v.869h-.01Zm-4.635-5.484c2.212-.01 3.621.733 3.621 1.96 0 1.226-1.409 1.969-3.621 1.96-2.221.009-3.63-.734-3.63-1.96 0-1.227 1.409-1.97 3.63-1.96Zm0 3.08c1.555 0 2.521-.415 2.521-1.13 0-.695-.966-1.111-2.521-1.111-1.564 0-2.52.406-2.51 1.111-.01.715.946 1.13 2.51 1.13Zm1.188 3.582v-1.178h-2.366v1.178h2.366Z"/><path fill="#FF6D3A" d="m132.248 133.591 3.128-3.022c.898-.898 1.362-1.429 1.371-2.163-.009-.831-.656-1.352-1.525-1.352-.908 0-1.497.57-1.497 1.468h-1.516c-.01-1.68 1.255-2.772 3.032-2.772 1.806 0 3.032 1.082 3.032 2.569 0 1.004-.483 1.815-2.231 3.457l-1.573 1.564v.068h3.939v1.332h-6.16v-1.149Zm7.377-3.273c0-2.897 1.284-4.568 3.409-4.568 2.124 0 3.418 1.671 3.408 4.568 0 2.916-1.274 4.596-3.408 4.596s-3.409-1.69-3.409-4.596Zm3.409 3.244c1.11 0 1.805-1.11 1.805-3.244 0-2.115-.695-3.235-1.805-3.235-1.101 0-1.796 1.12-1.796 3.235-.01 2.134.685 3.244 1.796 3.244Zm4.911-6.025c0-1.033.686-1.902 1.874-1.902 1.226 0 1.873.869 1.873 1.902V128c0 1.034-.666 1.903-1.873 1.903-1.217 0-1.874-.869-1.874-1.903v-.463Zm6.595-1.661h1.082l-6.103 8.874h-1.081l6.102-8.874Zm-4.712 3.051c.56 0 .734-.463.734-.917v-.463c0-.464-.164-.927-.734-.927-.541 0-.743.463-.743.927v.463c0 .454.193.917.743.917Zm4.51 1.777c1.226 0 1.873.869 1.873 1.902v.464c0 1.033-.666 1.902-1.873 1.902-1.217 0-1.874-.879-1.874-1.902v-.464c-.009-1.023.667-1.902 1.874-1.902Zm0 3.293c.55 0 .733-.464.733-.918v-.463c0-.464-.164-.927-.733-.927-.551 0-.744.463-.744.927v.463c-.01.454.174.918.744.918Z"/></g></g><defs><filter id="a" width="486" height="486" x="0" y="0" color-interpolation-filters="sRGB" filterUnits="userSpaceOnUse"><feFlood flood-opacity="0" result="BackgroundImageFix"/><feColorMatrix in="SourceAlpha" result="hardAlpha" values="0 0 0 0 0 0 0 0 0 0 0 0 0 0 0 0 0 0 127 0"/><feOffset dx="2" dy="2"/><feGaussianBlur stdDeviation="9"/><feComposite in2="hardAlpha" operator="out"/><feColorMatrix values="0 0 0 0 0 0 0 0 0 0 0 0 0 0 0 0 0 0 0.1 0"/><feBlend in2="BackgroundImageFix" result="effect1_dropShadow_1348_25424"/><feBlend in="SourceGraphic" in2="effect1_dropShadow_1348_25424" result="shape"/></filter><filter id="b" width="136.043" height="158.358" x="288.34" y="138.088" color-interpolation-filters="sRGB" filterUnits="userSpaceOnUse"><feFlood flood-opacity="0" result="BackgroundImageFix"/><feColorMatrix in="SourceAlpha" result="hardAlpha" values="0 0 0 0 0 0 0 0 0 0 0 0 0 0 0 0 0 0 127 0"/><feOffset dx="2" dy="2"/><feGaussianBlur stdDeviation="7.5"/><feComposite in2="hardAlpha" operator="out"/><feColorMatrix values="0 0 0 0 0 0 0 0 0 0 0 0 0 0 0 0 0 0 0.15 0"/><feBlend in2="BackgroundImageFix" result="effect1_dropShadow_1348_25424"/><feBlend in="SourceGraphic" in2="effect1_dropShadow_1348_25424" result="shape"/></filter><filter id="c" width="111.807" height="79.516" x="81.455" y="203.247" color-interpolation-filters="sRGB" filterUnits="userSpaceOnUse"><feFlood flood-opacity="0" result="BackgroundImageFix"/><feColorMatrix in="SourceAlpha" result="hardAlpha" values="0 0 0 0 0 0 0 0 0 0 0 0 0 0 0 0 0 0 127 0"/><feOffset dx="2" dy="2"/><feGaussianBlur stdDeviation="7.5"/><feComposite in2="hardAlpha" operator="out"/><feColorMatrix values="0 0 0 0 0 0 0 0 0 0 0 0 0 0 0 0 0 0 0.15 0"/><feBlend in2="BackgroundImageFix" result="effect1_dropShadow_1348_25424"/><feBlend in="SourceGraphic" in2="effect1_dropShadow_1348_25424" result="shape"/></filter><filter id="d" width="111.807" height="79.516" x="90.434" y="83.222" color-interpolation-filters="sRGB" filterUnits="userSpaceOnUse"><feFlood flood-opacity="0" result="BackgroundImageFix"/><feColorMatrix in="SourceAlpha" result="hardAlpha" values="0 0 0 0 0 0 0 0 0 0 0 0 0 0 0 0 0 0 127 0"/><feOffset dx="2" dy="2"/><feGaussianBlur stdDeviation="7.5"/><feComposite in2="hardAlpha" operator="out"/><feColorMatrix values="0 0 0 0 0 0 0 0 0 0 0 0 0 0 0 0 0 0 0.15 0"/><feBlend in2="BackgroundImageFix" result="effect1_dropShadow_1348_25424"/><feBlend in="SourceGraphic" in2="effect1_dropShadow_1348_25424" result="shape"/></filter></defs></svg>