<svg xmlns="http://www.w3.org/2000/svg" width="341" height="434" fill="none"><g clip-path="url(#a)"><path fill="#4181F0" d="M139.101 180.24c-10.52 0-16.04-20.14-18.69-35.01-8.93 6.23-22.01 14.11-30.91 14.11-2.98 0-5.36-.86-7.06-2.57-7.44-7.44 2.9-25.59 11.54-37.97-14.87-2.64-35.01-8.17-35.01-18.69 0-10.52 20.14-16.04 35.01-18.69C85.34 69.04 75 50.89 82.44 43.45c1.71-1.7 4.08-2.57 7.06-2.57 8.9 0 21.97 7.88 30.91 14.11 2.65-14.87 8.17-35.01 18.69-35.01 10.52 0 16.04 20.14 18.69 35.01 8.93-6.23 22.01-14.11 30.91-14.11 2.98 0 5.36.86 7.06 2.57 7.44 7.44-2.9 25.59-11.54 37.97 14.87 2.64 35.01 8.17 35.01 18.69 0 10.52-20.14 16.04-35.01 18.69 8.64 12.38 18.98 30.53 11.54 37.97-1.71 1.7-4.08 2.57-7.06 2.57-8.9 0-21.97-7.88-30.91-14.11-2.65 14.86-8.18 35.01-18.69 35.01Z"/><path fill="#fff" d="M139.1 22.97c7.01 0 13.14 14.92 16.52 37.25 13.97-10.3 26-16.35 33.07-16.35 2.13 0 3.81.55 4.95 1.69 4.95 4.95-1.26 19.84-14.66 38.02 22.33 3.38 37.25 9.52 37.25 16.52 0 7.01-14.92 13.14-37.25 16.52 13.4 18.18 19.61 33.07 14.66 38.02-1.15 1.15-2.82 1.7-4.95 1.7-7.07 0-19.1-6.05-33.07-16.35-3.38 22.33-9.52 37.25-16.52 37.25-7.01 0-13.14-14.92-16.53-37.25-13.97 10.3-26 16.35-33.07 16.35-2.13 0-3.81-.55-4.95-1.7-4.95-4.95 1.26-19.84 14.66-38.02-22.33-3.38-37.25-9.52-37.25-16.52 0-7.01 14.92-13.14 37.25-16.52C85.81 65.4 79.6 50.51 84.55 45.56c1.15-1.15 2.82-1.69 4.95-1.69 7.07 0 19.1 6.05 33.07 16.35 3.38-22.33 9.52-37.25 16.53-37.25Zm0-5.97c-9.37 0-16.35 11.08-20.78 32.96-9.58-6.31-20.56-12.06-28.81-12.06-4.74 0-7.6 1.87-9.17 3.44-6.63 6.63-3.73 19.39 8.6 37.99C67.07 83.76 56 90.74 56 100.11c0 9.37 11.07 16.34 32.94 20.78-12.33 18.6-15.23 31.36-8.6 37.99 1.57 1.57 4.44 3.44 9.17 3.44 8.25 0 19.24-5.75 28.81-12.06 4.44 21.88 11.41 32.96 20.78 32.96 9.37 0 16.35-11.08 20.78-32.96 9.58 6.31 20.56 12.06 28.81 12.06 4.74 0 7.6-1.87 9.17-3.44 6.63-6.63 3.73-19.39-8.6-37.99 21.87-4.44 32.94-11.41 32.94-20.78 0-9.37-11.07-16.34-32.94-20.78 12.33-18.6 15.23-31.36 8.6-37.99-1.57-1.57-4.44-3.44-9.17-3.44-8.25 0-19.24 5.75-28.81 12.06C155.44 28.07 148.47 17 139.1 17Z"/><path fill="#fff" d="M111.17 114.81c-1 .94-2.33 1.6-3.43 1.89-2.57.68-4.18-.59-4.75-2.81-.98-3.79-1.51-6.02-2.31-8.89-.46-1.56-.71-2.34-1.5-3.45 1-.96 2.5-1.8 3.6-2.1 1.88-.5 3.7.03 4.14 1.68.3 1.15.87 3.86 1.55 5.07.05 1.98.92 4.16 1.28 5.43.44 1.34.77 2.24 1.42 3.18Zm8.64-2.29c-1 .94-2.33 1.6-3.43 1.89-2.57.68-4.12-.61-4.69-2.83-.07-.27-.8-3.17-1.18-4.34-.26-.8-.6-1.52-2.04-1.05.21-3.1 2.28-4.38 3.83-4.79 2.22-.59 4.21.52 4.78 3.03.69 3.04.33 1.57 1.3 4.91.44 1.48.68 2.31 1.43 3.18Zm14.41-7c.82 3.09-2.86 4.92-5.64 5.66-4.89 1.3-8.08-.96-8.99-4.39-1.04-3.91 1.57-7.73 6.42-9.02 3.24-.86 6.22-.24 7.05 2.87.25.94.16 2.02-.21 2.92-1.61.83-4.37 1.67-6.37 1.11.85 1.34 2.24 1.93 3.76 1.53 1.17-.31 1.99-1.2 2.61-2.64.66.29 1.15 1.13 1.37 1.96Zm-8.35-2.28c.14.54.36 1.02.6 1.43.9-.91 1.14-2.12.86-3.16-.14-.54-.4-.92-.86-.8-.85.23-.85 1.59-.6 2.53Zm18.52 2.76c-1 .94-2.33 1.6-3.43 1.89-2.57.68-4.18-.59-4.75-2.81-.98-3.79-1.51-6.02-2.31-8.89-.46-1.56-.71-2.34-1.5-3.45 1-.96 2.5-1.8 3.6-2.1 1.88-.5 3.7.03 4.14 1.68.6 2.28 2.04 7.94 2.83 10.5.44 1.34.77 2.23 1.42 3.18Zm9.219-2.45c-1 .94-2.33 1.6-3.43 1.89-2.57.68-4.18-.59-4.75-2.81-.98-3.79-1.51-6.02-2.32-8.89-.46-1.56-.71-2.34-1.5-3.45 1-.96 2.5-1.8 3.6-2.1 1.88-.5 3.7.03 4.14 1.68.6 2.28 2.04 7.94 2.83 10.5.45 1.34.78 2.24 1.43 3.18Zm-.189-6.23c-.93-3.51.78-7.03 6.25-8.48 5.48-1.45 8.7.76 9.63 4.27 1 3.76-.66 7.45-6.14 8.9-5.48 1.45-8.75-.93-9.74-4.69Zm9.23-2.45c-.47-1.75-1.35-3.06-2.14-2.85-.79.21-.911 1.79-.451 3.54.53 2.01 1.46 3.48 2.25 3.27.8-.21.881-1.96.341-3.96Zm12.6-11.33 1.71 6.35c.3 1.13-.85 2.6-2.54 3.49-1.91.06-3.64-.67-3.94-1.77-.55-2.09-1.08-5.01-1.97-7.44.39-.8 1.46-1.42 2.98-1.82 1.5-.4 3.39-.19 3.76 1.19Zm-2.96 13.22c-.29-1.11.67-2.55 2.12-3.38 1.68 0 3.23.78 3.52 1.88.46 1.74-.56 2.97-2.12 3.38-1.57.42-3.06-.14-3.52-1.88Z"/><path fill="#FF6D3A" d="M243.119 283.98c-.2 0-.41-.02-.61-.07l-37.54-8.75c-.7-.16-1.3-.59-1.68-1.2a2.69 2.69 0 0 1-.34-2.03l5.46-23.43-20.42 12.71a2.691 2.691 0 0 1-3.71-.86l-20.36-32.73c-.79-1.26-.4-2.93.87-3.71l20.43-12.71-23.43-5.46a2.696 2.696 0 0 1-2.01-3.24l8.75-37.54c.16-.7.59-1.3 1.2-1.68a2.664 2.664 0 0 1 2.03-.34l23.43 5.46-12.71-20.43a2.69 2.69 0 0 1 .86-3.71l32.73-20.36a2.664 2.664 0 0 1 2.03-.34c.7.16 1.3.59 1.68 1.2l12.71 20.43 5.46-23.43c.16-.7.59-1.3 1.2-1.68a2.664 2.664 0 0 1 2.03-.34l37.54 8.75c.7.16 1.3.59 1.68 1.2.38.61.5 1.34.34 2.03l-5.46 23.43 20.43-12.71a2.691 2.691 0 0 1 3.71.86l20.36 32.73a2.69 2.69 0 0 1-.86 3.71l-20.43 12.71 23.43 5.46c1.45.34 2.35 1.79 2.01 3.24l-8.75 37.54c-.16.7-.59 1.3-1.2 1.68a2.664 2.664 0 0 1-2.03.34l-23.43-5.46 12.71 20.43a2.69 2.69 0 0 1-.86 3.71l-32.73 20.36a2.691 2.691 0 0 1-3.71-.86l-12.71-20.43-5.46 23.43a2.736 2.736 0 0 1-2.64 2.09Z"/><path fill="#fff" d="m240.558 122.39 37.54 8.75-6.94 29.76 25.95-16.14 20.36 32.73-25.95 16.14 29.76 6.94-8.75 37.54-29.76-6.94 16.14 25.95-32.73 20.36-16.14-25.95-6.93 29.76-37.54-8.75 6.93-29.76-25.95 16.14-20.36-32.73 25.95-16.14-29.76-6.93 8.75-37.54 29.76 6.93-16.14-25.95 32.73-20.36 16.14 25.95 6.94-29.76Zm0-5.39c-1 0-1.99.28-2.85.81a5.37 5.37 0 0 0-2.4 3.35l-3.98 17.09-9.27-14.9a5.383 5.383 0 0 0-4.58-2.54c-.97 0-1.96.26-2.84.81l-32.73 20.36a5.385 5.385 0 0 0-1.73 7.42l9.27 14.9-17.09-3.98c-.4-.09-.81-.14-1.22-.14-1 0-1.99.28-2.85.81a5.37 5.37 0 0 0-2.4 3.35l-8.75 37.54a5.43 5.43 0 0 0 .67 4.07 5.37 5.37 0 0 0 3.35 2.4l17.09 3.98-14.9 9.27a5.385 5.385 0 0 0-1.73 7.42l20.37 32.75a5.37 5.37 0 0 0 4.57 2.54c1 0 1.99-.28 2.85-.81l14.9-9.27-3.98 17.09c-.68 2.9 1.13 5.8 4.03 6.47l37.54 8.75c.4.09.81.14 1.22.14 1 0 1.99-.28 2.85-.81a5.37 5.37 0 0 0 2.4-3.35l3.98-17.09 9.27 14.9a5.383 5.383 0 0 0 4.58 2.54c.97 0 1.96-.26 2.84-.81l32.73-20.36a5.37 5.37 0 0 0 2.4-3.35 5.43 5.43 0 0 0-.67-4.07l-9.27-14.9 17.09 3.98c.4.09.81.14 1.22.14 1 0 1.99-.28 2.85-.81a5.37 5.37 0 0 0 2.4-3.35l8.75-37.54c.68-2.9-1.13-5.8-4.03-6.47l-17.09-3.98 14.9-9.27a5.37 5.37 0 0 0 2.4-3.35 5.43 5.43 0 0 0-.67-4.07l-20.36-32.73a5.37 5.37 0 0 0-4.57-2.54c-1 0-1.99.28-2.85.81l-14.9 9.27 3.98-17.09a5.43 5.43 0 0 0-.67-4.07 5.37 5.37 0 0 0-3.35-2.4l-37.54-8.75c-.41-.11-.82-.16-1.23-.16Z"/><path fill="#fff" d="M207.029 187.38c-.11.26-.42.47-.71.4l-6.21-1.06c-.3-.04-.62.14-.76.39-.22.49-.97 2.41-1.08 2.87-.06.24.08.43.32.49 2.33.54 3.05.45 5.38 1 .27.06.43.33.37.6l-.01.02-.81 3.14c-.09.29-.4.52-.67.46l-5.59-1.2c-.29-.07-.6.37-.66.64l-1.36 4.86c-.09.26-.36.45-.63.42l-4.04-.58c-.02-.01-.05-.01-.05-.01-.27-.06-.39-.32-.33-.56l.01-.02 4.55-18.33a.54.54 0 0 1 .63-.42l.02.01 12.44 3.13c.27.06.44.31.38.57-.15.7-.9 2.37-1.19 3.18Zm10.489 3.72c-.12.51-1.03 3.65-1.19 4.23-.03.12-.14.17-.29.16-2.62-.53-4.1.87-4.77 3.86 0 0-.42 1.93-1 4.4-.05.22-.26.35-.48.3l-4.15-.87-.02-.01a.374.374 0 0 1-.28-.45l2.64-13.3.01-.02c.05-.19.23-.31.42-.26l.02.01 4.13 1.17c.32.07.37.16.31.43l-.14.58c-.01.05-.02.1 0 .1 0 0 .03-.02.07-.06 1.13-.99 2.82-1.01 3.92-.75.27.06.48.14.67.21.07.04.18.12.15.24l-.02.03Zm3.841 15.55c-.05.2-.25.3-.42.26l-.02-.01-4.37-1.15c-.22-.05-.32-.25-.3-.46l2.46-12.01c.05-.19.23-.31.42-.26l5.06 1.26c.19.05.32.26.28.45l-3.11 11.92Zm1.12-13.96c-1.53-.36-2.46-1.96-2.09-3.59.37-1.6 1.92-2.63 3.45-2.27 1.56.36 2.49 1.96 2.11 3.57-.37 1.63-1.91 2.65-3.47 2.29Zm15.48 13.09c-.9 2.12-3.83 4.46-7.36 3.64-4.23-.99-6.82-4.18-5.76-8.72 1.05-4.5 4.41-7.27 8.13-6.41 4.64 1.08 5.4 5.08 4.48 9.04-.18.75-.6.83-.99.74-.01.02-.43-.02-6.98-1.39-.07 1.62.82 2.4 1.77 2.62.85.2 1.73-.06 2-.56.1-.21.3-.29.61-.22 2.56.55 3.77.75 3.82.76l-.02-.01.02.01c.24.06.34.21.29.4 0 .05-.01.07-.01.1Zm-5.92-6.92c-.75-.18-1.44.15-1.9 1.22 1.03.19 2.46.45 2.56.47.07.02.1 0 .13-.1.15-.7-.04-1.41-.79-1.59Zm20.189 15.27c-.06.14-.2.21-.37.17l-.02-.01-4.81-1.48a.2.2 0 0 1-.15-.24l.01-.02c.31-.8.6-1.91 1.05-3.83 1.02-4.4 1.23-6.04-.38-6.42-1.24-.29-1.99.38-2.43 2.41l-1.58 6.88c-.05.19-.23.33-.43.28l-4.52-1.18a.39.39 0 0 1-.28-.45l2.82-13.64.01-.02c.05-.19.23-.31.42-.26l4.82 1.2c.19.07.3.25.27.47l-.18.75c.92-.22 2.01-.25 3.27.04 3.6.84 5.52 3.03 3.89 10.03-.68 2.97-1.15 4.66-1.41 5.32Zm20.551-15.48-5.02 18.56c-.05.22-.29.37-.51.34l-4.03-.73-.02-.01c-.22-.05-.32-.26-.3-.46l.28-1.32c-.92.55-2 .79-3.34.48-3.64-.85-5.42-4.11-4.43-8.38.94-4.03 4.45-6.03 7.69-5.28 1.12.26 2.05.86 2.79 1.57l1.53-5.92c.08-.21.29-.37.51-.32l4.56.99.02.01c.19.05.32.26.28.45l-.01.02Zm-8.08 9.82c-.01-.82-.52-1.61-1.45-1.82-1.19-.28-2.19.51-2.51 1.85-.32 1.36.37 2.39 1.43 2.64.75.18 1.74-.31 2.25-1.5l.28-1.17Zm19.409 4.78c-.23.43-.63.52-1.07.39l-3.23-.88c-.53-.15-.51-.45-.41-.89.22-.92-.06-1.96-.93-2.16-1-.23-1.45.28-1.54.67-.25 1.07.8 1.65 1.59 2.09 2.07 1.23 5.09 2.34 4.36 5.47-.67 2.89-4.01 3.35-6.88 2.68-4.28-1-6.39-3.46-5.81-5.97.13-.56.32-.93.96-.8l2.98.64c.66.13.67.54.56 1.03-.15.63.57 1.31 1.68 1.57 1.02.24 1.36-.12 1.39-.24.23-1-2.25-1.91-2.89-2.31-1.71-1.04-3.56-2.62-2.89-5.54.82-3.5 3.61-5.26 7.3-4.4 3.43.8 6.13 3.38 5.12 7.7-.05.26-.15.68-.29.95Zm2.481 9.09c-1.12-.26-1.84-1.33-1.59-2.4.24-1.04 1.37-1.7 2.49-1.44s1.84 1.35 1.59 2.4c-.25 1.06-1.38 1.7-2.49 1.44Zm2.74-4.52c-.06.16-.27.27-.44.23l-2.35-.6c-.19-.07-.3-.25-.26-.42l2.96-14.45c.05-.19.22-.28.39-.24l3.73 1.13c.19.07.3.25.23.44l-4.26 13.91Z"/><path fill="#FF6D3A" d="M39 16.257H27.328l8.256-8.254-4.588-4.58-8.249 8.247V0H16.26v11.67L8.004 3.423l-4.588 4.58 8.256 8.254H0v6.486h11.672l-8.256 8.254 4.588 4.58 8.256-8.247V39h6.487V27.33l8.249 8.247 4.588-4.58-8.256-8.254H39v-6.486Z"/><path fill="#F4B95C" d="M100.751 227.84c0-2.02-4.29-3.78-10.71-4.75 3.85-5.23 5.64-9.51 4.21-10.93-1.42-1.42-5.71.36-10.93 4.21-.97-6.42-2.74-10.71-4.75-10.71-2.02 0-3.78 4.29-4.75 10.71-5.23-3.85-9.51-5.64-10.93-4.21-1.42 1.42.36 5.71 4.21 10.93-6.42.97-10.71 2.74-10.71 4.75 0 2.02 4.29 3.78 10.71 4.75-3.85 5.23-5.64 9.51-4.21 10.93 1.42 1.42 5.71-.36 10.93-4.21.97 6.42 2.74 10.71 4.75 10.71 2.02 0 3.78-4.29 4.75-10.71 5.23 3.85 9.51 5.64 10.93 4.21 1.42-1.42-.36-5.71-4.21-10.93 6.42-.97 10.71-2.73 10.71-4.75Z"/><path fill="#4181F0" d="M310.056 73.807s-.108-.023-.298-.044a6.463 6.463 0 0 0-.773-.064c-1.339-.053-3.806.142-6.688 1.7 2.616-1.984 3.802-4.163 4.302-5.395.102-.234.196-.48.26-.732.05-.184.083-.29.083-.29a5.049 5.049 0 0 0-3.873-6 5.048 5.048 0 0 0-6 3.874s-.024.107-.044.297a6.574 6.574 0 0 0-.065.774c-.053 1.339.142 3.805 1.7 6.688-1.993-2.619-4.163-3.802-5.395-4.303a4.914 4.914 0 0 0-.731-.26 5.049 5.049 0 0 0-6.292 3.8 5.049 5.049 0 0 0 3.873 6s.108.024.297.044a6.5 6.5 0 0 0 .774.065c1.339.053 3.806-.142 6.688-1.7-2.616 1.984-3.802 4.163-4.303 5.395-.101.234-.195.48-.259.731a5.048 5.048 0 0 0 3.8 6.291 5.049 5.049 0 0 0 6-3.872s.023-.108.044-.297a6.57 6.57 0 0 0 .064-.774c.053-1.34-.142-3.805-1.699-6.688 1.983 2.616 4.162 3.802 5.394 4.303.234.101.48.195.732.26a5.05 5.05 0 0 0 6.292-3.8 5.064 5.064 0 0 0-3.883-6.003Z"/><path fill="#B8C6FB" d="M332.508 293.279c-3.542-2.237-6.838-3.822-9.139-4.31 2.019-1.213 4.603-3.794 7.21-7.079 4.953-6.228 5.569-10.87 3.804-12.13-1.763-1.252-5.951.859-10.2 7.586-2.237 3.543-3.822 6.839-4.31 9.14-1.213-2.019-3.794-4.603-7.08-7.211-6.227-4.953-10.87-5.568-12.129-3.803-1.253 1.763.858 5.951 7.586 10.2 3.543 2.237 6.839 3.822 9.14 4.31-2.02 1.213-4.604 3.794-7.211 7.079-4.953 6.228-5.568 10.871-3.804 12.13 1.764 1.252 5.951-.859 10.2-7.586 2.238-3.543 3.823-6.839 4.311-9.14 1.213 2.02 3.793 4.603 7.079 7.211 6.228 4.953 10.87 5.568 12.129 3.803 1.252-1.77-.858-5.95-7.586-10.2Z"/><path fill="#71BA9D" d="M119.678 410.869c-10.847-2.555-23.632-11.499-36.12-25.225-17.322 6.705-32.755 9.001-43.582 6.451-6.013-1.417-10.366-4.246-12.945-8.442-7.286-11.775 1.925-31.86 23.453-51.492-10.526-27.161-9.78-49.26 1.995-56.546 4.177-2.583 9.359-3.188 15.352-1.776 10.847 2.555 23.613 11.494 36.12 25.225 17.322-6.705 32.755-9.002 43.582-6.451 6.013 1.416 10.366 4.246 12.945 8.442 7.285 11.775-1.906 31.865-23.453 51.491 10.526 27.161 9.78 49.261-1.996 56.546-4.18 2.604-9.358 3.189-15.351 1.777Z"/><path fill="#fff" d="M146.944 295.087c5.168 1.217 9.099 3.636 11.387 7.307 6.94 11.217-3.496 30.952-24.299 49.447 10.361 25.836 10.886 48.173-.326 55.093-3.691 2.283-8.283 2.674-13.451 1.457-10.592-2.495-23.583-11.798-35.995-25.756-17.358 6.945-33.135 9.472-43.707 6.982-5.168-1.218-9.1-3.637-11.387-7.308-6.94-11.217 3.495-30.951 24.299-49.446-10.362-25.836-10.887-48.173.326-55.094 3.69-2.283 8.283-2.674 13.45-1.456 10.592 2.495 23.583 11.798 35.996 25.755 17.338-6.95 33.115-9.476 43.707-6.981Zm-78.565-23.691c-6.68-1.574-12.489-.868-17.272 2.091-12.819 7.931-14.114 29.985-3.64 57.984-21.89 20.375-30.559 40.713-22.623 53.512 2.915 4.71 7.94 8.03 14.523 9.581 10.984 2.588 26.331.478 43.461-5.94 12.483 13.394 25.256 22.127 36.241 24.714 6.681 1.574 12.489.868 17.271-2.091 12.82-7.932 14.135-29.981 3.641-57.984 21.89-20.376 30.554-40.693 22.623-53.513-2.914-4.71-7.94-8.03-14.523-9.58-10.984-2.588-26.331-.479-43.461 5.94-12.464-13.389-25.256-22.127-36.24-24.714Z"/><path fill="#fff" d="M63.583 369.783c-.55-.8-1.13-1.693-1.74-2.678a97.576 97.576 0 0 1-1.831-3.095c-.632-1.111-1.264-2.222-1.868-3.378a91.94 91.94 0 0 1-1.722-3.413c-.176.165-.32.337-.476.49a3.243 3.243 0 0 0-.395.439l-2.705-2.304c2.513-2.501 4.735-4.348 6.687-5.556 3.962-2.451 6.867-2.162 8.733.855.871 1.408 1.106 2.821.67 4.23-.435 1.41-1.499 2.791-3.192 4.145 1.678.241 3.257.321 4.757.227 1.5-.093 2.938-.287 4.333-.594l-.336 3.907c-.78.177-1.644.266-2.609.279-.953.033-1.943.006-2.938-.074a64.842 64.842 0 0 1-2.905-.289 63.076 63.076 0 0 1-2.54-.375c.502.858 1.013 1.682 1.548 2.547l1.63 2.635-.038.163-1.489.921a17.52 17.52 0 0 0-1.39.944l-.184-.026Zm-2.424-16.551c-.342.211-.672.443-1.021.687-.35.244-.687.509-1.012.793.383.709.754 1.397 1.124 2.086.37.689.749 1.345 1.12 2.033.51-.343 1.08-.724 1.667-1.17a11.662 11.662 0 0 0 1.57-1.417c.464-.51.757-1.025.92-1.571.163-.546.096-1.06-.228-1.583-.373-.603-.889-.897-1.566-.867-.677.03-1.548.374-2.574 1.009Zm22.402 4.451c-1.166.722-2.309 1.123-3.48 1.208-1.171.085-2.24-.116-3.221-.621-.981-.506-1.827-1.29-2.487-2.356a8.087 8.087 0 0 1-.935-2.231 7.186 7.186 0 0 1-.186-2.638c.097-.922.43-1.823.977-2.691.548-.867 1.39-1.666 2.536-2.375.825-.51 1.57-.833 2.246-1 .675-.168 1.287-.213 1.823-.155.537.057.997.217 1.397.415.38.21.72.444.955.689.235.244.437.481.561.682.722 1.166.78 2.383.192 3.636-.588 1.253-1.789 2.414-3.6 3.534-.421.261-.816.478-1.203.661-.387.184-.754.355-1.1.514.594.467 1.25.673 1.967.619a4.075 4.075 0 0 0 1.911-.599c.825-.51 1.462-1.099 1.899-1.786a6.511 6.511 0 0 0 .923-2.463l3.04 1.317c-.182.559-.426 1.154-.677 1.783-.271.64-.68 1.283-1.227 1.927-.514.652-1.285 1.295-2.31 1.93Zm-5.023-9.019c-.704.436-1.236 1.015-1.555 1.713a3.703 3.703 0 0 0-.303 2.163l.98-.44c.326-.146.608-.32.91-.507a6.59 6.59 0 0 0 .875-.653c.317-.252.61-.544.869-.843.28-.313.467-.595.6-.873.122-.297.123-.521-.014-.742-.062-.1-.177-.196-.364-.275-.188-.078-.456-.107-.772-.079-.344.074-.743.238-1.226.536Zm16.572 1.844c-.906.56-1.88.829-2.91.827-1.03-.002-2-.265-2.92-.808-.908-.523-1.676-1.271-2.286-2.257-.573-.925-.922-1.849-1.04-2.805a6.794 6.794 0 0 1 .205-2.77 7.313 7.313 0 0 1 1.252-2.471 7.749 7.749 0 0 1 2.092-1.878 9.078 9.078 0 0 1 2.206-.976c-.121-.286-.23-.552-.352-.839l3.421-1.393c.056.271.2.683.373 1.187.206.513.437 1.065.757 1.674.288.6.61 1.208.917 1.796.309.588.612 1.124.898 1.586.237.383.48.732.765 1.057.285.325.58.532.897.641.318.109.675.056 1.057-.181l.261-.162 1.491 3.445c-.804.497-1.535.755-2.22.817a3.73 3.73 0 0 1-1.931-.335c-.162.907-.51 1.65-1.048 2.262a8.412 8.412 0 0 1-1.886 1.583Zm-4.915-3.717c.42.545.949.859 1.583.939.633.081 1.268-.062 1.912-.46.624-.386 1.027-.858 1.238-1.461.19-.591.259-1.245.16-1.99a6.974 6.974 0 0 1-.394-.591c-.262-.422-.515-.877-.769-1.332-.254-.455-.487-.923-.72-1.39-.628.11-1.22.366-1.764.702-.664.41-1.172.892-1.514 1.464-.34.573-.539 1.196-.534 1.833.004.637.167 1.26.54 1.863l.137.221c.03.093.087.141.125.202Zm18.193-4.478a6.318 6.318 0 0 1-2.05.823 5.12 5.12 0 0 1-2.231-.01 5.424 5.424 0 0 1-2.184-1.013c-.705-.51-1.344-1.227-1.916-2.152-.647-1.046-1.034-2.031-1.185-2.994-.151-.964-.115-1.849.13-2.668.244-.818.591-1.561 1.085-2.201a6.552 6.552 0 0 1 1.728-1.569 7.54 7.54 0 0 1 1.156-.604c.379-.151.758-.303 1.122-.389-.507-.91-1.015-1.82-1.514-2.762-.5-.943-.975-1.845-1.462-2.767l3.182-1.691a130.302 130.302 0 0 0 1.742 3.401 115.653 115.653 0 0 0 2.017 3.619c.706 1.232 1.428 2.398 2.125 3.525.66 1.066 1.302 2.059 1.919 3.012a55.312 55.312 0 0 0 1.739 2.54l-2.989 2.183a8.773 8.773 0 0 1-.43-.651 6.47 6.47 0 0 1-.798 1.272 3.96 3.96 0 0 1-1.186 1.096Zm-5.564-4.318c.386.624.817 1.052 1.283 1.265.465.212.916.267 1.345.196a3.156 3.156 0 0 0 1.143-.401 3.22 3.22 0 0 0 1.005-.983c.282-.397.458-.923.538-1.557l-.261-.423c-.61-.985-1.212-2.003-1.827-3.042-.874-.154-1.647-.01-2.311.401a4.088 4.088 0 0 0-.81.668c-.272.28-.454.615-.611.99a2.658 2.658 0 0 0-.129 1.276c.068.514.274 1.027.635 1.61Zm18.002 1.421-3.612.231c.224-1.167.402-2.362.54-3.532a49.79 49.79 0 0 0 .325-3.567 60.536 60.536 0 0 1-3.228-1.396 88.765 88.765 0 0 1-3.194-1.611 33.57 33.57 0 0 1-2.593-1.539l2.112-3.059c.582.446 1.25.895 2.015 1.368.765.472 1.57.919 2.428 1.362.858.443 1.691.845 2.532 1.215.001-2.921-.208-5.685-.632-8.259l3.764-.66c.104 1.382.165 2.874.215 4.484.05 1.61.073 3.265.048 4.977a104.368 104.368 0 0 1-.194 5.126 53.308 53.308 0 0 1-.526 4.86Zm10.656-11.322a1.847 1.847 0 0 1-1.498.232 2.019 2.019 0 0 1-1.242-.929c-.299-.482-.387-.984-.244-1.518.143-.533.446-.943.928-1.242a1.843 1.843 0 0 1 1.498-.231c.534.143.956.466 1.267.969.311.502.399 1.004.284 1.493-.115.488-.47.903-.993 1.226Zm-11.031-15.76 2.964-1.639c.233.468.541 1.056.924 1.764.383.709.803 1.478 1.273 2.328.471.849.941 1.699 1.431 2.536.482.87.947 1.667 1.4 2.444.453.776.864 1.44 1.212 2.003l.286.463c.1.161.175.281.257.37l-2.906 1.686c-.145-.188-.294-.43-.456-.691l-.535-.865c-.61-.986-1.262-2.084-1.976-3.284-.681-1.191-1.375-2.403-2.049-3.627a477 477 0 0 1-1.825-3.488Z"/><g clip-path="url(#b)"><path fill="#B8C6FB" d="M217.503 431.72c-8.039 0-12.258-15.394-14.276-26.75-6.83 4.754-16.819 10.775-23.614 10.775-2.281 0-4.094-.662-5.394-1.961-5.678-5.679 2.212-19.544 8.814-29.008-11.357-2.018-26.75-6.249-26.75-14.276 0-8.027 15.393-12.258 26.75-14.276-6.602-9.464-14.492-23.329-8.814-29.007 1.3-1.3 3.113-1.962 5.394-1.962 6.795 0 16.784 6.021 23.614 10.776 2.018-11.357 6.248-26.75 14.276-26.75 8.027 0 12.257 15.393 14.276 26.75 6.83-4.755 16.818-10.776 23.614-10.776 2.28 0 4.093.662 5.393 1.962 5.679 5.678-2.212 19.543-8.814 29.007 11.357 2.018 26.75 6.249 26.75 14.276 0 8.027-15.393 12.258-26.75 14.276 6.602 9.464 14.493 23.329 8.814 29.008-1.3 1.299-3.113 1.961-5.393 1.961-6.796 0-16.784-6.021-23.614-10.775-2.019 11.356-6.249 26.75-14.276 26.75Z"/><path fill="#fff" d="M217.502 311.561c5.359 0 10.034 11.402 12.622 28.46 10.673-7.867 19.863-12.485 25.268-12.485 1.619 0 2.907.422 3.785 1.3 3.786 3.785-.957 15.165-11.197 29.053 17.058 2.588 28.461 7.275 28.461 12.622 0 5.348-11.403 10.046-28.461 12.623 10.24 13.888 14.983 25.268 11.197 29.053-.878.878-2.155 1.3-3.785 1.3-5.405 0-14.595-4.629-25.268-12.486-2.588 17.058-7.275 28.461-12.622 28.461-5.348 0-10.046-11.403-12.623-28.461-10.672 7.868-19.863 12.486-25.268 12.486-1.619 0-2.907-.422-3.785-1.3-3.786-3.785.958-15.165 11.197-29.053-17.058-2.588-28.46-7.275-28.46-12.623 0-5.347 11.402-10.045 28.46-12.622-10.239-13.888-14.983-25.268-11.197-29.053.878-.878 2.155-1.3 3.785-1.3 5.405 0 14.596 4.629 25.268 12.485 2.589-17.058 7.275-28.46 12.623-28.46Zm0-4.561c-7.161 0-12.486 8.461-15.884 25.188-7.32-4.823-15.712-9.213-22.018-9.213-3.614 0-5.804 1.425-7.012 2.634-5.063 5.062-2.851 14.811 6.567 29.019-16.716 3.386-25.165 8.711-25.165 15.872s8.461 12.486 25.165 15.872c-9.418 14.208-11.63 23.957-6.567 29.019 1.197 1.198 3.386 2.634 7.012 2.634 6.306 0 14.698-4.39 22.018-9.213 3.387 16.716 8.723 25.188 15.884 25.188 7.16 0 12.485-8.461 15.872-25.188 7.32 4.823 15.712 9.213 22.018 9.213 3.614 0 5.804-1.425 7.012-2.634 5.063-5.062 2.851-14.811-6.567-29.019 16.715-3.386 25.165-8.711 25.165-15.872s-8.461-12.486-25.165-15.872c9.418-14.208 11.63-23.957 6.567-29.019-1.197-1.198-3.386-2.634-7.012-2.634-6.306 0-14.698 4.39-22.018 9.213-3.387-16.716-8.723-25.188-15.872-25.188Z"/><path fill="#fff" d="M197.922 372.677c-2.885-.662-4.253-2.828-3.843-4.653.582-2.542 3.102-3.056 5.04-1.824-.889 1.391-1.608 3.364-.627 3.58.228.046.901-.137 1.174-1.345.16-.696.183-1.619-.535-2.246.513-1.152.615-2.11.57-2.908-.536-.228-1.277-.422-1.973-.582-.411-.878-.103-1.938.388-2.691 1.436-.068 3.66.308 4.549.513 1.961.445 2.851 1.414 2.554 2.68l-1.322 5.941c-.662 2.896-3.125 4.173-5.987 3.523l.012.012Zm8.053-5.131c.673-2.965 3.432-5.473 8.039-4.424 4.606 1.049 6.009 4.504 5.336 7.468-.798 3.501-3.58 6.146-8.198 5.097-4.618-1.049-5.975-4.652-5.177-8.141Zm8.084 1.836c.468-2.064.171-3.296-.684-3.49-.855-.193-1.653.799-2.121 2.851-.558 2.452-.33 3.98.525 4.173.855.194 1.721-1.083 2.28-3.534Zm11.901 8.927a6.537 6.537 0 0 1-2.999.068c-1.984-.456-2.622-1.881-2.212-3.591.65-2.703 1.015-4.003 1.483-6.363-.274-.159-.65-.285-1.004-.365-.41-.878-.103-1.938.388-2.691 1.288-.137 2.885.137 3.934.365 1.448.331 2.497 1.334 2.2 2.6-.399 1.756-1.345 5.473-1.63 7.309-.171 1.06-.274 1.79-.16 2.657v.011Zm15.488-8.951c1.585.354 2.395 1.083 2.703 1.38a8.929 8.929 0 0 0-.901 2.201 108.803 108.803 0 0 0-1.311 5.701c-.274 1.379-.319 2.588-.274 3.227-.513.228-1.813.353-3.842-.114-1.175-.263-3.49-.981-4.094-1.756.376-.833 1.425-7.286.046-7.606-.354-.08-.673.285-.867 1.106-.479 2.11.16 4.937.81 6.488-.856.319-2.44.274-3.478.034-.935-.216-1.95-.729-2.828-1.436.308-.559.798-1.665 1.14-3.033a106.33 106.33 0 0 0 1.277-5.713 9.464 9.464 0 0 0 .16-2.44c1.425-.137 2.93 0 4.185.296 1.163.263 3.489 1.118 4.23 1.791-.547 1.231-1.231 7.331-.046 7.605.365.08.673-.285.867-1.106.479-2.132.091-5.302-.81-6.488.821-.342 2.03-.365 3.022-.148l.011.011Z"/></g></g><defs><clipPath id="a"><path fill="#fff" d="M0 0h341v434H0z"/></clipPath><clipPath id="b"><path fill="#fff" d="M154 307h127v127H154z"/></clipPath></defs></svg>