<svg width="14" height="11" viewBox="0 0 14 11" fill="none" xmlns="http://www.w3.org/2000/svg">
<path d="M1.81827 9.91673C1.83427 9.98246 1.86327 10.0443 1.90357 10.0986C1.94387 10.153 1.99466 10.1987 2.05292 10.2331C2.11118 10.2674 2.17574 10.2898 2.24279 10.2988C2.30983 10.3078 2.378 10.3033 2.44327 10.2855C5.42264 9.46052 8.57016 9.46052 11.5495 10.2855C11.6148 10.3033 11.683 10.3078 11.75 10.2988C11.8171 10.2898 11.8816 10.2674 11.9399 10.2331C11.9981 10.1987 12.0489 10.153 12.0892 10.0986C12.1295 10.0443 12.1585 9.98246 12.1745 9.91673L13.7683 3.14798C13.7902 3.05738 13.7863 2.96246 13.7571 2.87395C13.7279 2.78544 13.6745 2.70685 13.603 2.64705C13.5315 2.58725 13.4447 2.54863 13.3525 2.53554C13.2602 2.52245 13.1661 2.53542 13.0808 2.57298L9.91827 3.97923C9.80369 4.02968 9.67447 4.03588 9.55558 3.99664C9.43669 3.95739 9.33655 3.87548 9.27452 3.76673L7.43702 0.454227C7.39378 0.376077 7.3304 0.310935 7.25346 0.265574C7.17652 0.220213 7.08884 0.196289 6.99952 0.196289C6.91021 0.196289 6.82252 0.220213 6.74558 0.265574C6.66865 0.310935 6.60526 0.376077 6.56202 0.454227L4.72452 3.76673C4.66249 3.87548 4.56236 3.95739 4.44347 3.99664C4.32458 4.03588 4.19536 4.02968 4.08077 3.97923L0.918272 2.57298C0.832969 2.53542 0.738865 2.52245 0.646583 2.53554C0.554301 2.54863 0.467515 2.58725 0.396019 2.64705C0.324524 2.70685 0.271165 2.78544 0.241966 2.87395C0.212767 2.96246 0.20889 3.05738 0.230772 3.14798L1.81827 9.91673Z" fill="#71BA9D"/>
</svg>
