<svg fill="none" height="29" viewBox="0 0 29 29" width="29" xmlns="http://www.w3.org/2000/svg"><g stroke="#fff" stroke-linecap="round" stroke-linejoin="round" stroke-width="2"><path d="m11.167 24.2465h-5.25c-.23207 0-.45463-.0922-.61872-.2563-.1641-.1641-.25628-.3867-.25628-.6187v-4.8891c-.0004-.1136.02161-.2262.06478-.3313s.10664-.2006.18678-.2812l13.12504-13.12498c.0814-.08267.1784-.14833.2855-.19314.107-.04481.2219-.06789.3379-.06789s.2309.02308.3379.06789c.1071.04481.2041.11047.2855.19314l4.8782 4.87813c.0826.08142.1483.17847.1931.2855.0448.10705.0679.22195.0679.33795s-.0231.2309-.0679.3379c-.0448.1071-.1105.2041-.1931.2855z"/><path d="m15.542 7.62158 6.125 6.12502"/><path d="m24.292 24.2466h-13.125l-6.07032-6.0703"/><path d="m18.6045 10.6841-10.50001 10.5"/></g></svg>
