<svg fill="none" height="20" viewBox="0 0 20 20" width="20" xmlns="http://www.w3.org/2000/svg"><rect fill="#646a70" height="20" rx="4" width="20"/><path d="m15.7501 7.31571c-.0686-.2542-.2026-.48595-.3888-.67212-.1862-.18616-.4179-.32021-.6721-.38875-.9365-.25484-4.6892-.25484-4.6892-.25484s-3.7537 0-4.68818.25089c-.25477.0687-.48696.20328-.6732.39021-.18624.18692-.31996.4196-.38772.67461-.2509.93542-.2509 2.88819-.2509 2.88819s0 1.9529.2509 2.8883c.06836.2543.20236.4861.38856.6723s.41806.3202.67236.3886c.93546.2508 4.68818.2508 4.68818.2508s3.7537 0 4.6892-.2508c.2542-.0686.4859-.2026.6721-.3888s.3202-.4179.3888-.6721c.2499-.9354.2499-2.8883.2499-2.8883s-.003-1.95277-.2499-2.88819z" fill="#fff4ec"/><path d="m8.99805 12 3.46555-2-3.46555-2z" fill="#646a70"/></svg>
