<svg fill="none" height="20" viewBox="0 0 20 20" width="20" xmlns="http://www.w3.org/2000/svg"><path d="m13.2 10c0 .6329-.1877 1.2516-.5393 1.7778-.3516.5263-.8514.9364-1.4361 1.1786s-1.22815.3056-1.84889.1821-1.19092-.4282-1.63845-.8758c-.44753-.4475-.7523-1.0177-.87577-1.6384-.12348-.6207-.06011-1.26416.1821-1.84889.2422-.58472.65235-1.08449 1.17859-1.43611.52623-.35162 1.14492-.5393 1.77782-.5393.8484.00097 1.6618.33842 2.2617.93833s.9373 1.41328.9383 2.26167zm6.8-4.4v8.8c-.0017 1.4847-.5922 2.9081-1.6421 3.9579-1.0498 1.0499-2.4732 1.6404-3.9579 1.6421h-8.8c-1.4847-.0017-2.9081-.5922-3.95794-1.6421-1.04984-1.0498-1.64037852-2.4732-1.64206-3.9579v-8.8c.00168148-1.4847.59222-2.9081 1.64206-3.95794s2.47324-1.64037852 3.95794-1.64206h8.8c1.4847.00168148 2.9081.59222 3.9579 1.64206 1.0499 1.04984 1.6404 2.47324 1.6421 3.95794zm-5.2 4.4c0-.94935-.2815-1.87738-.8089-2.66674-.5275-.78935-1.2771-1.40458-2.1542-1.76788s-1.84222-.45836-2.77333-.27315-1.78639.64237-2.45768 1.31366-1.12845 1.52657-1.31366 2.45768-.09015 1.89623.27315 2.77333.97853 1.6267 1.76788 2.1542c.78936.5274 1.71739.8089 2.66674.8089 1.2726-.0014 2.4927-.5076 3.3925-1.4075.8999-.8998 1.4061-2.1199 1.4075-3.3925zm1.6-5.2c0-.23734-.0704-.46934-.2022-.66668-.1319-.19734-.3193-.35115-.5386-.44198-.2193-.09082-.4605-.11458-.6933-.06828s-.4466.16059-.6144.32841-.2821.38164-.3284.61442-.0226.47406.0682.69333c.0909.21927.2447.40669.442.53854.1974.13186.4294.20224.6667.20224.3183 0 .6235-.12643.8485-.35147.2251-.22505.3515-.53027.3515-.84853z" fill="#646a70"/></svg>
