<svg fill="none" height="17" viewBox="0 0 16 17" width="16" xmlns="http://www.w3.org/2000/svg"><g stroke="#fff" stroke-linecap="round" stroke-linejoin="round" stroke-width="1.2"><path d="m6 14.1215h-3c-.13261 0-.25978-.0527-.35355-.1464-.09377-.0938-.14645-.221-.14645-.3536v-2.7937c-.00022-.0649.01236-.1293.03702-.1893.02467-.0601.06094-.1147.10673-.1607l7.50005-7.50002c.0465-.04725.1019-.08476.1631-.11037s.1268-.0388.1931-.0388.132.01319.1931.0388c.0612.02561.1166.06312.1632.11037l2.7875 2.7875c.0472.04652.0847.10198.1103.16314s.0388.1268.0388.19311c0 .0663-.0132.13195-.0388.19311s-.0631.11661-.1103.16314z"/><path d="m13.5 14.1216h-7.5"/><path d="m8.5 4.62158 3.5 3.5"/></g></svg>
