<svg fill="none" height="15" viewBox="0 0 15 15" width="15" xmlns="http://www.w3.org/2000/svg"><path d="m6.83334 4.28829h1.33334v1.33333h-1.33334zm0 2.66667h1.33334v4.00004h-1.33334zm.66667-6.000004c-3.68 0-6.666666 2.986664-6.666666 6.666664 0 3.67998 2.986666 6.66668 6.666666 6.66668 3.67999 0 6.66669-2.9867 6.66669-6.66668 0-3.68-2.9867-6.666664-6.66669-6.666664zm0 12.000044c-2.94 0-5.33333-2.3934-5.33333-5.33338 0-2.94 2.39333-5.33333 5.33333-5.33333 2.93999 0 5.33329 2.39333 5.33329 5.33333 0 2.93998-2.3933 5.33338-5.33329 5.33338z" fill="#888e94"/></svg>
