<svg fill="none" height="16" viewBox="0 0 13 16" width="13" xmlns="http://www.w3.org/2000/svg"><path d="m10.6667 5.33333h-.76194v-1.52381c0-2.10285-1.70666-3.80952-3.80952-3.80952s-3.80953 1.70667-3.80953 3.80952v1.52381h-.7619c-.838096 0-1.52381.68572-1.52381 1.52381v7.61906c0 .8381.685714 1.5238 1.52381 1.5238h9.14289c.8381 0 1.5238-.6857 1.5238-1.5238v-7.61906c0-.83809-.6857-1.52381-1.5238-1.52381zm-4.57146 6.85717c-.8381 0-1.52381-.6857-1.52381-1.5238 0-.83813.68571-1.52384 1.52381-1.52384.83809 0 1.52381.68571 1.52381 1.52384 0 .8381-.68572 1.5238-1.52381 1.5238zm2.3619-6.85717h-4.72381v-1.52381c0-1.30285 1.05905-2.3619 2.36191-2.3619s2.3619 1.05905 2.3619 2.3619z" fill="#ccd2d8"/></svg>
