<svg xmlns="http://www.w3.org/2000/svg" width="20" height="20" fill="none"><rect width="20" height="20" fill="#646a70" rx="4"/><path fill="#fff4ec" d="M15.75 7.316a1.505 1.505 0 0 0-1.06-1.061C13.752 6 10 6 10 6s-3.754 0-4.688.25A1.502 1.502 0 0 0 4.25 7.317C4 8.25 4 10.204 4 10.204s0 1.953.25 2.888a1.502 1.502 0 0 0 1.062 1.061c.935.25 4.688.25 4.688.25s3.754 0 4.69-.25a1.505 1.505 0 0 0 1.06-1.06c.25-.936.25-2.89.25-2.89s-.003-1.952-.25-2.887z"/><path fill="#646a70" d="m8.998 12 3.466-2-3.466-2z"/></svg>