<svg xmlns="http://www.w3.org/2000/svg" width="28" height="28" fill="none"><path fill="#1f2022" d="M13.954.875C6.24.895 0 5.945 0 12.168c0 3.813 2.385 7.368 6.342 9.454-.64 2.028-1.572 5.2-1.233 5.48.36.297 4.22-2.332 6.353-3.827a17.22 17.22 0 0 0 2.538.187c7.732 0 14-5.056 14-11.293C28 5.932 21.732.876 14 .876h-.046z"/><path fill="#ffe227" d="M3.29 8.12a.884.884 0 0 0-.887.887v.004c0 .491.395.886.887.886h1.386v5.333c0 .493.396.889.888.889a.887.887 0 0 0 .888-.889V9.897h1.425a.884.884 0 0 0 .887-.886v-.004a.884.884 0 0 0-.887-.886zm7.437-.001c-.093 0-.185.012-.274.036a.886.886 0 0 0-.725.564l-2.384 6.203a.886.886 0 0 0 .51 1.148.886.886 0 0 0 1.149-.51l.361-.94h2.767l.361.94a.886.886 0 0 0 1.148.51.886.886 0 0 0 .51-1.148L11.767 8.72a.886.886 0 0 0-.782-.569 1.059 1.059 0 0 0-.256-.031zm.02 2.903.7 1.821h-1.4zM15.59 8.12a.903.903 0 0 0-.906.906v6.188c0 .501.404.905.905.905h2.743c.501 0 .905-.404.905-.905s-.403-.905-.905-.905h-1.838V9.027a.903.903 0 0 0-.905-.906zm4.887 0a.903.903 0 0 0-.905.906v6.188c0 .501.403.905.905.905a.903.903 0 0 0 .905-.905v-1.9l.028-.027.316-.323 2.107 2.799a.905.905 0 1 0 1.447-1.09l-2.274-3.02 1.914-1.958a.904.904 0 0 0-.014-1.281.903.903 0 0 0-1.28.014l-2.244 2.296V9.026a.903.903 0 0 0-.905-.905z"/></svg>