<svg fill="none" height="24" viewBox="0 0 24 24" width="24" xmlns="http://www.w3.org/2000/svg"><g stroke="#32363a" stroke-width="2"><path d="m8.25 15c2.6924 0 4.875-2.1826 4.875-4.875 0-2.69239-2.1826-4.875-4.875-4.875-2.69239 0-4.875 2.18261-4.875 4.875 0 2.6924 2.18261 4.875 4.875 4.875z" stroke-miterlimit="10"/><g stroke-linecap="round" stroke-linejoin="round"><path d="m14.5688 5.42813c.431-.11689.8754-.17677 1.3219-.17813 1.293 0 2.5329.51361 3.4472 1.42785.9142.91424 1.4278 2.15422 1.4278 3.44715 0 1.2929-.5136 2.5329-1.4278 3.4471-.9143.9143-2.1542 1.4279-3.4472 1.4279"/><path d="m1.5 18.5066c.7612-1.0832 1.77191-1.9673 2.94676-2.5777 1.17484-.6103 2.47932-.9289 3.80324-.9289s2.6284.3186 3.8032.9289c1.1749.6104 2.1856 1.4945 2.9468 2.5777"/><path d="m15.8906 15c1.3241-.0008 2.6288.3174 3.8038.9277 1.1749.6104 2.1855 1.4948 2.9462 2.5786"/></g></g></svg>
