<svg xmlns="http://www.w3.org/2000/svg" width="34" height="17" fill="none"><path fill="#646a70" d="M15.725 17H8.5c-2.354 0-4.352-.833-6.01-2.482C.825 12.852 0 10.855 0 8.5s.825-4.352 2.49-6.018C4.149.825 6.146 0 8.5 0h7.225v2.55H8.5c-1.64 0-3.043.578-4.207 1.742S2.55 6.86 2.55 8.5s.578 3.043 1.743 4.207S6.86 14.45 8.5 14.45h7.225zm-5.313-7.225v-2.55h13.175v2.55zM18.276 17v-2.55H25.5c1.64 0 3.043-.578 4.207-1.742S31.45 10.14 31.45 8.5s-.578-3.043-1.742-4.207S27.14 2.55 25.5 2.55h-7.225V0H25.5c2.354 0 4.352.825 6.018 2.482C33.175 4.14 34 6.146 34 8.5s-.833 4.352-2.482 6.018C29.861 16.175 27.855 17 25.5 17z"/></svg>