<svg xmlns="http://www.w3.org/2000/svg" width="256" height="185" fill="none"><clipPath id="a"><path d="M190 24h19v19h-19z"/></clipPath><path fill="#ff6d3a" d="M160.755 104.853 150.53 94.628H165V76.372h-14.47l10.225-10.225-12.902-12.914-10.225 10.237V49h-18.256v14.47l-10.225-10.237-12.913 12.914 10.236 10.225H92v18.256h14.47l-10.236 10.225 12.913 12.902 10.225-10.225V122h18.256v-14.47l10.225 10.225z"/><path stroke="#000" stroke-linecap="round" stroke-linejoin="round" stroke-width="6" d="M113 78.34 129.443 95 165 58"/><path fill="#ff6d3a" d="M30 30.92h-8.977l6.346-6.556-3.524-3.646-6.351 6.557V18h-4.988v9.275l-6.351-6.557-3.524 3.646 6.346 6.557H0v5.153h8.977l-6.346 6.562 3.524 3.646 6.351-6.562V49h4.988v-9.28l6.351 6.562 3.524-3.646-6.346-6.562H30z"/><path fill="#f4b95c" d="M256 79.5c0-1.498-3.193-2.813-7.966-3.535 2.866-3.887 4.195-7.075 3.135-8.134-1.059-1.06-4.243.27-8.134 3.135-.722-4.773-2.037-7.966-3.535-7.966s-2.813 3.193-3.535 7.966c-3.887-2.866-7.075-4.195-8.134-3.135-1.06 1.06.269 4.243 3.135 8.134-4.773.722-7.966 2.037-7.966 3.535s3.193 2.813 7.966 3.535c-2.866 3.887-4.195 7.075-3.135 8.134 1.059 1.06 4.243-.27 8.134-3.135.722 4.773 2.037 7.966 3.535 7.966s2.813-3.193 3.535-7.966c3.887 2.866 7.075 4.195 8.134 3.135 1.06-1.06-.269-4.243-3.135-8.134 4.773-.722 7.966-2.037 7.966-3.535z"/><path fill="#4181f0" d="M36.07 131.931c-1.92-1.919-6.38-.762-11.07 2.535-4.695-3.297-9.15-4.459-11.07-2.535s-.76 6.379 2.536 11.069c-3.297 4.695-4.46 9.15-2.535 11.069 1.919 1.924 6.379.762 11.069-2.535 4.695 3.297 9.15 4.459 11.07 2.535 1.918-1.919.76-6.379-2.536-11.069 3.297-4.695 4.46-9.15 2.535-11.069z"/><circle cx="36.5" cy="102.5" r="6.5" fill="#f4b95c"/><circle cx="196.5" cy="127.5" r="6.5" fill="#4181f0"/><g clip-path="url(#a)"><path fill="#4181f0" d="m204.912 35.741 4.091-2.241s-4.041-2.216-4.091-2.241l1.308-4.476-4.476 1.308L199.503 24l-2.241 4.091-4.476-1.308 1.308 4.476-4.091 2.241 4.091 2.241-1.308 4.476 4.476-1.308L199.503 43s2.216-4.041 2.241-4.091l4.476 1.308-1.308-4.476z"/></g><path fill="#4181f0" d="M100 12.5c-6.903 0-12.5 5.597-12.5 12.5 0-6.903-5.597-12.5-12.5-12.5 6.903 0 12.5-5.597 12.5-12.5 0 6.903 5.597 12.5 12.5 12.5z"/><path fill="#f4b95c" d="M162.694 163.306 157 153l-5.699 10.306L141 169l10.301 5.699L157 185l5.694-10.301L173 169z"/></svg>