<svg fill="none" height="185" viewBox="0 0 256 185" width="256" xmlns="http://www.w3.org/2000/svg" xmlns:xlink="http://www.w3.org/1999/xlink"><clipPath id="a"><path d="m190 24h19v19h-19z"/></clipPath><path d="m160.755 104.853-10.225-10.2252h14.47v-18.2556h-14.47l10.225-10.2254-12.902-12.9133-10.225 10.2366v-14.4701h-18.256v14.4701l-10.225-10.2366-12.9135 12.9133 10.2365 10.2254h-14.47v18.2556h14.47l-10.2365 10.2252 12.9135 12.902 10.225-10.225v14.47h18.256v-14.47l10.225 10.225z" fill="#ff6d3a"/><path d="m113 78.3407 16.443 16.6593 35.557-37" stroke="#000" stroke-linecap="round" stroke-linejoin="round" stroke-width="6"/><path d="m30 30.9208h-8.9774l6.3466-6.5571-3.5238-3.6456-6.3514 6.5571v-9.2752h-4.988v9.2752l-6.35142-6.5571-3.52376 3.6456 6.34662 6.5571h-8.97744v5.1534h8.97744l-6.34662 6.5621 3.52376 3.6456 6.35142-6.5621v9.2802h4.988v-9.2802l6.3514 6.5621 3.5238-3.6456-6.3466-6.5621h8.9774z" fill="#ff6d3a"/><path d="m256 79.5c0-1.4978-3.193-2.8126-7.966-3.535 2.866-3.8866 4.195-7.0749 3.135-8.1344-1.059-1.0596-4.243.2697-8.134 3.1353-.722-4.7728-2.037-7.9659-3.535-7.9659s-2.813 3.1931-3.535 7.9659c-3.887-2.8656-7.075-4.1949-8.134-3.1353-1.06 1.0595.269 4.243 3.135 8.1344-4.773.7224-7.966 2.0372-7.966 3.535s3.193 2.8126 7.966 3.535c-2.866 3.8866-4.195 7.0749-3.135 8.1344 1.059 1.0596 4.243-.2697 8.134-3.1352.722 4.7727 2.037 7.9658 3.535 7.9658s2.813-3.1931 3.535-7.9658c3.887 2.8655 7.075 4.1948 8.134 3.1352 1.06-1.0595-.269-4.243-3.135-8.1344 4.773-.7224 7.966-2.0372 7.966-3.535z" fill="#f4b95c"/><path d="m36.0692 131.931c-1.9192-1.919-6.3789-.762-11.0692 2.535-4.6953-3.297-9.15-4.459-11.0692-2.535s-.7617 6.379 2.5355 11.069c-3.2972 4.695-4.4597 9.15-2.5355 11.069 1.9192 1.924 6.3789.762 11.0692-2.535 4.6953 3.297 9.15 4.459 11.0692 2.535 1.9192-1.919.7617-6.379-2.5355-11.069 3.2972-4.695 4.4597-9.15 2.5355-11.069z" fill="#4181f0"/><circle cx="36.5" cy="102.5" fill="#f4b95c" r="6.5"/><circle cx="196.5" cy="127.5" fill="#4181f0" r="6.5"/><g clip-path="url(#a)"><path d="m204.912 35.7412 4.091-2.2412s-4.041-2.2161-4.091-2.2412c.015-.0532 1.308-4.4761 1.308-4.4761l-4.476 1.3084c-.025-.0469-2.241-4.0911-2.241-4.0911l-2.241 4.0911c-.053-.0156-4.476-1.3084-4.476-1.3084l1.308 4.4761c-.047.0251-4.091 2.2412-4.091 2.2412l4.091 2.2412-1.308 4.4761s4.423-1.2928 4.476-1.3084l2.241 4.0911s2.216-4.041 2.241-4.0911l4.476 1.3084s-1.293-4.4229-1.308-4.4761z" fill="#4181f0"/></g><path d="m100 12.5c-6.9031 0-12.5 5.5969-12.5 12.5 0-6.9031-5.5969-12.5-12.5-12.5 6.9031 0 12.5-5.5969 12.5-12.5 0 6.9031 5.5969 12.5 12.5 12.5z" fill="#4181f0"/><path d="m162.694 163.306-5.694-10.306-5.699 10.306-10.301 5.694 10.301 5.699 5.699 10.301 5.694-10.301 10.306-5.699z" fill="#f4b95c"/></svg>
