<svg fill="none" height="24" viewBox="0 0 24 24" width="24" xmlns="http://www.w3.org/2000/svg"><g stroke="#32363a" stroke-linecap="round" stroke-linejoin="round" stroke-width="2"><path d="m21 5.25h-18c-.41421 0-.75.33579-.75.75v2.25c0 .41421.33579.75.75.75h18c.4142 0 .75-.33579.75-.75v-2.25c0-.41421-.3358-.75-.75-.75z"/><path d="m20.25 9v9c0 .1989-.079.3897-.2197.5303-.1406.1407-.3314.2197-.5303.2197h-15c-.19891 0-.38968-.079-.53033-.2197-.14065-.1406-.21967-.3314-.21967-.5303v-9"/><path d="m9.75 12.75h4.5"/></g></svg>
