<svg xmlns="http://www.w3.org/2000/svg" width="122" height="61" fill="none"><path fill="#FF6D3A" d="m58.576 19.835-3.352-3.352h4.739V10.5h-4.74l3.349-3.352-4.226-4.226-3.353 3.353v-4.74h-5.977v4.74l-3.352-3.353-4.23 4.226 3.352 3.353h-4.74v5.98h4.74l-3.352 3.353 4.23 4.226 3.352-3.353v4.744h5.977v-4.744l3.353 3.353 4.23-4.226Z"/><path fill="#4181F0" d="m80.354 16.56 5.596-3.066s-5.527-3.031-5.596-3.065l1.79-6.123-6.122 1.79L72.956.5l-3.065 5.596-6.123-1.79 1.79 6.123c-.065.034-5.596 3.065-5.596 3.065l5.596 3.066-1.79 6.122 6.123-1.79 3.065 5.596s3.031-5.527 3.066-5.596l6.122 1.79-1.79-6.122Z"/><path fill="#000" d="M.52 35.201h4.889v2.034c.963-1.392 2.569-2.428 4.744-2.428 2.603 0 4.461 1.212 5.531 3.284 1.105-2.214 3.498-3.284 5.532-3.284 4.247 0 6.675 3.07 6.675 7.887v10.348H23v-9.526c0-2.642-.856-4.248-2.783-4.248-2.106 0-3.566 1.64-3.566 5.065v8.709h-4.89v-9.526c0-2.642-.856-4.248-2.782-4.248-2.107 0-3.567 1.64-3.567 5.065v8.709H.523V35.2H.52ZM52.976 60.5l3.746-8.456-7.492-16.843h5.351l4.783 11.56 4.744-11.56h5.386L58.289 60.5h-5.318.005Zm37.29-25.3h4.89v2.857c.607-1.747 2.427-3.07 4.422-3.07.501 0 1.036.034 1.64.214v4.958c-.749-.248-1.426-.394-2.214-.394-2.32 0-3.853 1.82-3.853 4.748v8.529h-4.89V35.2h.005Zm-41.091 8.923c0 5.142-4.17 9.313-9.312 9.313a9.313 9.313 0 1 1 9.312-9.313Zm-9.312-4.743a4.743 4.743 0 1 0 0 9.487 4.743 4.743 0 0 0 0-9.487Zm48.227 4.743c0 5.142-4.17 9.313-9.312 9.313a9.313 9.313 0 1 1 9.313-9.313Zm-9.312-4.743a4.743 4.743 0 1 0 0 9.487 4.743 4.743 0 0 0 0-9.487Zm42.703-4.179v17.84h-4.89v-1.33a9.26 9.26 0 0 1-5.39 1.72 9.313 9.313 0 0 1 0-18.624 9.25 9.25 0 0 1 5.39 1.721v-1.331h4.89v.004Zm-9.634 4.174a4.744 4.744 0 1 0 0 9.488 4.744 4.744 0 0 0 0-9.488Z"/></svg>