<svg fill="none" height="24" viewBox="0 0 145 24" width="145" xmlns="http://www.w3.org/2000/svg"><path d="m0 0h145v24h-145z" fill="#ff6d3a"/><g fill="#fff"><path d="m16.8746 15.4823-2.5119-2.5096h3.5523v-4.4799h-3.5523l2.5119-2.50963-3.1664-3.16864-2.5119 2.51189v-3.55005h-4.47761v3.55005l-2.51189-2.51189-3.16639 3.16864 2.5119 2.50963h-3.55231v4.4799h3.55231l-2.5119 2.5096 3.16639 3.1664 2.51189-2.5096v3.55h4.47761v-3.55l2.5119 2.5096z"/><path d="m33.1927 13.0291 4.191-2.2952s-4.1413-2.27044-4.191-2.29526c.0158-.05417 1.3384-4.58596 1.3384-4.58596l-4.586 1.33832c-.0271-.04965-2.2952-4.191-2.2952-4.191l-2.2953 4.191c-.0541-.0158-4.5859-1.33832-4.5859-1.33832l1.3383 4.58596c-.0496.02708-4.191 2.29526-4.191 2.29526l4.191 2.2952-1.3383 4.5859s4.534-1.3247 4.5859-1.3383l2.2953 4.191s2.2704-4.1413 2.2952-4.191l4.586 1.3383s-1.3248-4.534-1.3384-4.5859z"/><path d="m41.8838 4.05097h3.6629v1.52338c.7222-1.04267 1.9251-1.81678 3.5545-1.81678 1.9522 0 3.3402.90951 4.1437 2.45998.8282-1.65654 2.6202-2.45998 4.1436-2.45998 3.1799 0 4.9989 2.29975 4.9989 5.90622v7.75011h-3.6606v-7.1362c0-1.97706-.641-3.17997-2.0854-3.17997-1.5775 0-2.6721 1.22999-2.6721 3.79607v6.5223h-3.6606v-7.1362c0-1.977-.641-3.17991-2.0854-3.17991-1.5775 0-2.6721 1.22999-2.6721 3.79601v6.5224h-3.6629v-13.36292z"/><path d="m81.1747 23 2.8053-6.335-5.6128-12.61593h4.0082l3.5816 8.65963 3.5546-8.65963h4.0353l-8.3933 18.95093h-3.9834z"/><path d="m109.109 4.05136h3.663v2.13725c.454-1.30898 1.817-2.2975 3.313-2.2975.375 0 .774.02709 1.23.16025v3.7148c-.562-.18732-1.069-.29339-1.656-.29339-1.738 0-2.887 1.36314-2.887 3.55453v6.387h-3.663z"/><path d="m78.3299 10.7316c0 3.8525-3.1235 6.976-6.976 6.976s-6.976-3.1235-6.976-6.976c0-3.85249 3.1235-6.97598 6.976-6.97598s6.976 3.12349 6.976 6.97598zm-6.976-3.55458c-1.9635 0-3.5546 1.59109-3.5546 3.55458 0 1.9635 1.5911 3.5545 3.5546 3.5545s3.5546-1.591 3.5546-3.5545c0-1.96349-1.5911-3.55458-3.5546-3.55458z"/><path d="m107.478 10.7316c0 3.8525-3.123 6.976-6.976 6.976-3.8521 0-6.9756-3.1235-6.9756-6.976 0-3.85249 3.1235-6.97598 6.9756-6.97598 3.853 0 6.976 3.12349 6.976 6.97598zm-6.976-3.55458c-1.9631 0-3.5542 1.59109-3.5542 3.55458 0 1.9635 1.5911 3.5545 3.5542 3.5545 1.964 0 3.555-1.591 3.555-3.5545 0-1.96349-1.591-3.55458-3.555-3.55458z"/><path d="m132.488 4.05097v13.36293h-3.661v-.9953c-1.139.8102-2.532 1.2909-4.039 1.2909-3.853 0-6.976-3.1235-6.976-6.976 0-3.85243 3.123-6.97593 6.976-6.97593 1.505 0 2.897.47845 4.039 1.29093v-.99528h3.661zm-7.215 3.12801c-1.964 0-3.555 1.59109-3.555 3.55452 0 1.9635 1.591 3.5546 3.555 3.5546 1.963 0 3.554-1.5911 3.554-3.5546 0-1.96343-1.591-3.55452-3.554-3.55452z"/></g></svg>
