<svg xmlns="http://www.w3.org/2000/svg" width="145" height="24" fill="none"><path fill="#ff6d3a" d="M0 0h145v24H0z"/><path fill="#fff" d="m16.875 15.482-2.512-2.51h3.552v-4.48h-3.552l2.512-2.509-3.167-3.168-2.512 2.511v-3.55H6.72v3.55L4.207 2.815 1.04 5.983l2.512 2.51H0v4.48h3.552l-2.512 2.51 3.167 3.166 2.512-2.51v3.55h4.477v-3.55l2.512 2.51zm16.318-2.452 4.19-2.296s-4.14-2.27-4.19-2.295l1.338-4.586-4.586 1.338L27.65 1l-2.295 4.191-4.586-1.338 1.338 4.586-4.191 2.295 4.191 2.295-1.338 4.586s4.534-1.325 4.586-1.338l2.295 4.19s2.27-4.14 2.295-4.19l4.586 1.338s-1.325-4.534-1.338-4.586zm8.691-8.979h3.663v1.523c.722-1.042 1.925-1.816 3.554-1.816 1.952 0 3.34.91 4.144 2.46.828-1.657 2.62-2.46 4.144-2.46 3.18 0 4.998 2.3 4.998 5.906v7.75h-3.66v-7.136c0-1.977-.641-3.18-2.086-3.18-1.577 0-2.672 1.23-2.672 3.796v6.522h-3.66V10.28c0-1.977-.641-3.18-2.086-3.18-1.577 0-2.672 1.23-2.672 3.796v6.522h-3.663V4.055zM81.175 23l2.805-6.335-5.613-12.616h4.008l3.582 8.66 3.555-8.66h4.035L85.154 23H81.17zm27.934-18.949h3.663V6.19c.454-1.31 1.817-2.298 3.313-2.298.375 0 .774.027 1.23.16v3.715c-.562-.187-1.069-.293-1.656-.293-1.738 0-2.887 1.363-2.887 3.554v6.387h-3.663zM78.33 10.732a6.976 6.976 0 1 1-13.953-.001 6.976 6.976 0 0 1 13.953 0zm-6.976-3.555a3.554 3.554 0 1 0-.001 7.108 3.554 3.554 0 0 0 0-7.108zm36.124 3.555a6.976 6.976 0 1 1-13.952 0 6.976 6.976 0 0 1 13.952 0zm-6.976-3.555a3.554 3.554 0 1 0 0 7.108 3.554 3.554 0 0 0 0-7.108zm31.986-3.126v13.363h-3.661v-.995a6.976 6.976 0 1 1 0-11.37v-.996h3.661zm-7.215 3.128a3.554 3.554 0 1 0-.002 7.108 3.554 3.554 0 0 0 .002-7.108z"/></svg>