<svg xmlns="http://www.w3.org/2000/svg" width="133" height="22" fill="none"><path fill="#FF6D3A" d="m16.875 14.482-2.512-2.51h3.552v-4.48h-3.552l2.512-2.509-3.167-3.168-2.512 2.511V.776H6.72v3.55L4.207 1.815 1.04 4.983l2.512 2.51H0v4.48h3.552l-2.512 2.51 3.167 3.166 2.512-2.51v3.55h4.477v-3.55l2.512 2.51 3.167-3.167Z"/><path fill="#4181F0" d="m33.193 12.03 4.19-2.296s-4.14-2.27-4.19-2.295l1.338-4.586-4.586 1.338L27.65 0l-2.295 4.191-4.586-1.338 1.338 4.586-4.191 2.295 4.191 2.295-1.338 4.586s4.534-1.325 4.586-1.338l2.295 4.19s2.27-4.14 2.295-4.19l4.586 1.338s-1.325-4.534-1.338-4.586Z"/><path fill="#000" d="M41.883 3.051h3.663v1.523c.722-1.042 1.925-1.816 3.555-1.816 1.952 0 3.34.91 4.143 2.46.829-1.657 2.62-2.46 4.144-2.46 3.18 0 4.999 2.3 4.999 5.906v7.75h-3.66V9.278c0-1.977-.642-3.18-2.086-3.18-1.578 0-2.672 1.23-2.672 3.796v6.522h-3.66V9.28c0-1.977-.642-3.18-2.086-3.18-1.578 0-2.672 1.23-2.672 3.796v6.523h-3.663V3.056l-.005-.005ZM81.174 22l2.805-6.335L78.366 3.05h4.008l3.582 8.66 3.555-8.66h4.035L85.153 22h-3.984.005Zm27.935-18.949h3.663v2.137c.453-1.308 1.817-2.297 3.313-2.297.375 0 .774.027 1.23.16v3.715c-.562-.187-1.07-.293-1.657-.293-1.737 0-2.886 1.363-2.886 3.554v6.387h-3.663V3.051ZM78.33 9.732a6.976 6.976 0 1 1-13.953-.001 6.976 6.976 0 0 1 13.952 0Zm-6.977-3.555a3.554 3.554 0 1 0 0 7.108 3.554 3.554 0 0 0 0-7.108Zm36.125 3.555a6.976 6.976 0 1 1-13.952 0 6.976 6.976 0 0 1 13.952 0Zm-6.976-3.555a3.554 3.554 0 1 0 0 7.108 3.554 3.554 0 0 0 0-7.108Zm31.985-3.126v13.363h-3.661v-.995a6.976 6.976 0 1 1 0-11.37v-.996h3.661v-.002Zm-7.215 3.128a3.554 3.554 0 1 0-.002 7.108 3.554 3.554 0 0 0 .002-7.108Z"/></svg>