<svg width="15" height="14" viewBox="0 0 15 14" fill="none" xmlns="http://www.w3.org/2000/svg">
<path d="M6.30751 2.52724C5.15238 2.74487 4.34044 3.58193 3.87169 5.0384C3.63731 5.75827 3.52012 6.46976 3.52012 7.17289C3.52012 7.25659 3.52012 7.33193 3.52012 7.39889C3.53687 7.44911 3.55361 7.57467 3.57035 7.77556H6.30751V13.2499H0.95874V8.20246C0.95874 5.72478 1.4526 3.8163 2.44033 2.47702C3.42805 1.13773 4.71711 0.367641 6.30751 0.166748V2.52724ZM14.7701 2.52724C13.8494 2.67791 13.1462 3.19688 12.6607 4.08416C12.192 4.97144 11.9576 5.99264 11.9576 7.14777C11.9576 7.24822 11.9576 7.34867 11.9576 7.44911C11.9744 7.54956 11.9995 7.65838 12.033 7.77556H14.7701V13.2499H9.39624V8.20246C9.39624 6.21027 9.81477 4.43572 10.6518 2.8788C11.4889 1.30514 12.8616 0.401123 14.7701 0.166748V2.52724Z" fill="#FF6D3A"/>
</svg>
