<svg fill="none" height="18" viewBox="0 0 19 18" width="19" xmlns="http://www.w3.org/2000/svg"><path d="m7.42412 3.20477c-1.54018.29018-2.62277 1.40625-3.24777 3.34822-.3125.95982-.46875 1.90848-.46875 2.84598v.30134c.02232.06696.04464.23437.06696.50219h3.64956v7.2991h-7.131701v-6.7299c0-3.30354.658483-5.84818 1.975451-7.63389 1.31696-1.78572 3.03571-2.812504 5.15625-3.0803607zm11.28348 0c-1.2277.20089-2.1652.89286-2.8125 2.07589-.625 1.18304-.9375 2.54465-.9375 4.08483v.40178c.0223.13393.0558.27903.1004.43523h3.6496v7.2991h-7.1652v-6.7299c0-2.65621.5581-5.02229 1.6741-7.09818 1.1161-2.09821 2.9465-3.303571 5.4911-3.6160707z" fill="#f4b95c"/></svg>
