<svg fill="none" height="18" viewBox="0 0 19 18" width="19" xmlns="http://www.w3.org/2000/svg"><path d="m7.42412 3.32976c-1.54018.29017-2.62277 1.40625-3.24777 3.34821-.3125.95982-.46875 1.90848-.46875 2.84598v.30134c.02232.06697.04464.23441.06696.50221h3.64956v7.2991h-7.131701v-6.7299c0-3.30355.658483-5.84819 1.975451-7.63391 1.31696-1.78571 3.03571-2.812499 5.15625-3.080356zm11.28348 0c-1.2277.20089-2.1652.89285-2.8125 2.07589-.625 1.18303-.9375 2.54464-.9375 4.08482v.40179c.0223.13394.0558.27904.1004.43524h3.6496v7.2991h-7.1652v-6.7299c0-2.65623.5581-5.0223 1.6741-7.09819 1.1161-2.09822 2.9465-3.303576 5.4911-3.616076z" fill="#b8c6fb"/></svg>
