<svg xmlns="http://www.w3.org/2000/svg" width="25" height="24" fill="none"><path fill="#4181F0" d="M19.002 14.83 24.168 12l-5.166-2.83 1.651-5.655-5.656 1.651C14.966 5.106 12.168 0 12.168 0l-2.83 5.166-5.655-1.651L5.334 9.17.168 12l5.166 2.83-1.651 5.655 5.655-1.651L12.168 24l2.83-5.166 5.655 1.651-1.651-5.655Z"/><path fill="#fff" d="M14.894 16v-1.345H11.52v-.054l1.202-1.16c1.626-1.472 2.062-2.212 2.066-3.11C14.783 8.963 13.66 8 11.966 8c-1.657 0-2.802.987-2.798 2.532h1.557c-.004-.76.485-1.226 1.23-1.226.716 0 1.248.432 1.252 1.13-.004.631-.401 1.067-1.133 1.772l-2.837 2.609L9.241 16h5.653Z"/></svg>