<svg xmlns="http://www.w3.org/2000/svg" width="25" height="24" fill="none"><g clip-path="url(#a)"><path fill="#B8C6FB" d="M24.168 12a2.756 2.756 0 0 0-2.756-2.756h-2.596l1.836-1.836a2.755 2.755 0 1 0-3.896-3.896L14.92 5.348V2.756a2.756 2.756 0 0 0-5.512 0v2.596L7.572 3.516a2.755 2.755 0 1 0-3.896 3.896l1.836 1.836H2.924a2.756 2.756 0 0 0 0 5.512H5.52l-1.836 1.836a2.755 2.755 0 1 0 3.896 3.896l1.836-1.836v2.596a2.756 2.756 0 0 0 5.512 0v-2.596l1.836 1.836a2.755 2.755 0 1 0 3.896-3.896l-1.836-1.836h2.596a2.756 2.756 0 0 0 2.756-2.756L24.168 12Z"/><path fill="#fff" d="M9.168 13.27 12.549 8h2.089v5.249h1.016v1.337h-1.016V16h-1.58v-1.414h-3.89V13.27Zm3.912-.021V9.823h-.078l-2.155 3.36v.066h2.233Z"/></g><defs><clipPath id="a"><path fill="#fff" d="M.168 0h24v24h-24z"/></clipPath></defs></svg>