<svg xmlns="http://www.w3.org/2000/svg" width="25" height="24" fill="none"><path fill="#F4B95C" d="M24.168 12c0-1.09-2.322-2.046-5.793-2.57 2.084-2.828 3.05-5.146 2.28-5.917-.77-.77-3.086.196-5.916 2.28C14.213 2.323 13.257 0 12.168 0c-1.09 0-2.046 2.322-2.571 5.793-2.827-2.084-5.145-3.05-5.916-2.28-.77.77.196 3.086 2.28 5.916C2.491 9.954.168 10.911.168 12c0 1.09 2.322 2.046 5.793 2.57-2.084 2.828-3.05 5.146-2.28 5.917.77.77 3.086-.196 5.916-2.28.525 3.47 1.482 5.793 2.571 5.793 1.09 0 2.046-2.322 2.57-5.793 2.828 2.084 5.146 3.05 5.917 2.28.77-.77-.196-3.086-2.28-5.916 3.47-.525 5.793-1.482 5.793-2.571Z"/><path fill="#fff" d="M12.134 16c1.753 0 3.019-.958 3.011-2.289.008-.973-.623-1.67-1.772-1.81v-.06c.879-.157 1.487-.776 1.48-1.65C14.86 8.961 13.775 8 12.156 8c-1.597 0-2.807.932-2.833 2.27h1.551c.023-.597.586-.981 1.274-.981.688 0 1.148.407 1.144 1 .004.616-.532 1.034-1.304 1.034h-.722v1.198h.722c.917 0 1.48.449 1.475 1.084.004.627-.55 1.057-1.326 1.057-.75 0-1.312-.384-1.339-.959h-1.63C9.195 15.061 10.418 16 12.134 16Z"/></svg>