<svg fill="none" height="49" viewBox="0 0 49 49" width="49" xmlns="http://www.w3.org/2000/svg" xmlns:xlink="http://www.w3.org/1999/xlink"><clipPath id="a"><path d="m.917969.779541h48v48h-48z"/></clipPath><g clip-path="url(#a)"><path d="m14.2935 45.0476c-.4036-.1012-.6472-.5078-.546-.9114l1.6317-6.5078-5.75586 3.4481c-.17527.105-.38411.1301-.56909.0838-.18498-.0464-.35728-.1671-.46228-.3423l-5.52298-9.2193c-.1008-.1682-.1329-.3729-.08371-.5691s.17405-.3615.34231-.4623l5.75588-3.4481-6.50785-1.6317c-.40359-.1012-.64721-.5078-.54602-.9114l2.61267-10.4205c.10119-.4035.50785-.6471.91143-.5459l6.5079 1.6316-3.44823-5.75583c-.1008-.16826-.1329-.37292-.08371-.5691.04919-.19619.17404-.36149.3423-.46229l9.22484-5.52156c.1753-.105.3841-.13009.5691-.08371s.3573.16703.4623.3423l3.4482 5.75588 1.6317-6.50786c.1011-.40359.5078-.64719.9114-.546l10.426 2.61408c.4036.10119.6472.50782.546.91141l-1.6317 6.50788 5.7502-3.44961c.1753-.105.3842-.13008.5692-.0837s.3573.16703.4623.3423l5.5229 9.21921c.1008.1683.1329.3729.0837.5691s-.174.3615-.3423.4623l-5.7559 3.4482 6.5079 1.6317c.4036.1012.6472.5078.546.9114l-2.6141 10.426c-.1012.4036-.5078.6472-.9114.546l-6.5078-1.6317 3.4482 5.7559c.1008.1682.1328.3729.0836.5691s-.174.3615-.3422.4623l-9.2193 5.5229c-.1752.105-.3841.1301-.5691.0837-.1849-.0463-.3573-.167-.4623-.3423l-3.4481-5.7558-1.6317 6.5078c-.1012.4036-.5078.6472-.9114.546l-10.4261-2.6141z" fill="#ff6d3a"/><g fill="#fff"><path d="m24.9342 2.62045 10.426 2.61409-2.073 8.26796 7.3123-4.38058 5.5229 9.21918-7.3122 4.3806 8.2679 2.073-2.6141 10.426-8.2679-2.073 4.3806 7.3123-9.2192 5.523-4.3806-7.3123-2.073 8.268-10.4261-2.6141 2.073-8.268-7.31223 4.3806-5.52298-9.2192 7.31231-4.3806-8.26796-2.073 2.61408-10.426 8.26798 2.073-4.38063-7.31231 9.21923-5.52296 4.3806 7.31227zm.3654-1.4574c-.3868-.09697-.7947-.03838-1.1382.16742s-.5877.53781-.6846.92458l-1.1904 4.74777-2.5158-4.19948c-.2058-.34353-.5378-.58763-.9246-.68461-.3868-.09697-.7947-.03839-1.1382.16741l-9.2192 5.52297c-.34353.2058-.58764.53781-.68462.92458-.09697.38677-.03838.79468.16742 1.1382l2.5158 4.19951-4.74777-1.1904c-.38677-.097-.79469-.0384-1.13822.1674s-.58764.5378-.68461.9246l-2.61408 10.426c-.09697.3868-.03838.7947.16742 1.1382s.53782.5876.92459.6846l4.74775 1.1904-4.19947 2.5158c-.7151.4284-.94559 1.3477-.51719 2.0628l5.52295 9.2192c.20579.3435.53782.5876.92459.6846s.79469.0384 1.13824-.1674l4.1994-2.5158-1.1903 4.7478c-.2024.8071.2848 1.6204 1.0919 1.8228l10.4261 2.6141c.3868.0969.7946.0383 1.1382-.1675.3435-.2058.5876-.5378.6846-.9245l1.1904-4.7478 2.5158 4.1995c.2142.3575.549.5904.9245.6846.3756.0941.7807.0468 1.1382-.1674l9.2193-5.523c.3435-.2058.5876-.5378.6846-.9246.0969-.3868.0384-.7947-.1674-1.1382l-2.5158-4.1995 4.7477 1.1904c.3868.097.7947.0384 1.1382-.1674.3436-.2058.5877-.5378.6847-.9246l2.614-10.426c.2024-.8072-.2848-1.6204-1.092-1.8228l-4.7477-1.1904 4.1994-2.5158c.7151-.4284.9456-1.3477.5172-2.0628l-5.5229-9.21918c-.2058-.34353-.5378-.58763-.9246-.6846-.3868-.09698-.7947-.03839-1.1382.1674l-4.1995 2.51578 1.1904-4.74776c.097-.38677.0384-.79467-.1674-1.1382-.2072-.33793-.5378-.58763-.9246-.6846z"/><path d="m19.2897 25.2803-.298 1.1883-6.5135-1.6331.298-1.1883 2.6065.6535.26-1.037-2.2534-.565.9599-3.8285 5.8016 1.4546-.9599 3.8285-2.2533-.565-.26 1.037zm-4.33-3.4509 3.2679.8193.364-1.4518-3.2679-.8193z"/><path d="m24.6703 22.1836c.2197.5972.2009 1.4087-.0563 2.4345s-.6235 1.7502-1.0989 2.1731c-.4755.423-1.0264.553-1.643.3984s-1.041-.5291-1.2606-1.1264c-.2197-.5972-.2065-1.4101.0507-2.4359s.6235-1.7502 1.1045-2.1717c.4811-.4216 1.0263-.5529 1.6429-.3983s1.0411.5291 1.2607 1.1263zm-1.3007 2.1225c.3176-1.2668.2354-1.9606-.2467-2.0815-.4877-.1223-.8875.4507-1.2051 1.7175-.1715.6839-.2321 1.187-.1763 1.5108.0559.3238.1987.5145.4285.5721.4821.1209.8819-.4521 1.1996-1.7189zm4.1727-2.2901-1.6134 6.435-1.2501-.3135.3893-1.5526-.7287-.1827.3821-1.1673.6502.163.2853-1.1379-.6502-.163.2138-1.2094.7287.1827.3415-1.3621 1.2501.3134z"/><path d="m30.0937 27.952c.3083.0773.618.1252.9333.1506.3154.0255.5859.0159.8046-.0246l-.2839 1.1322c-.2145.0476-.485.0572-.813.0345-.3279-.0226-.6489-.0733-.9684-.1534l-2.5448-.6381.8952-3.5706 2.3936.6001.3176-1.2668-2.4104-.6043.2867-1.1435 3.6772.9219-.8882 3.5426-2.3991-.6015-.3247 1.2948 1.3229.3317zm4.3424-.4007-.7511-.1883-.714 2.8475-1.2724-.319 1.612-6.4294 1.2724.3191-.5888 2.3486.7511.1883z"/><path d="m35.9995 28.7003-.936-.2347.6826-4.1959 1.6256.4076zm-.0874.8003c.1134.1892.1385.3981.0809.6279s-.1783.4022-.3676.5156c-.1879.1077-.3981.1384-.6279.0808-.2299-.0576-.4022-.1783-.5156-.3676-.1148-.1836-.1399-.3925-.0809-.6279.0591-.2354.1783-.4022.3676-.5156s.3982-.1384.628-.0808.4021.1783.5155.3676z"/></g></g></svg>
