<svg xmlns="http://www.w3.org/2000/svg" width="49" height="49" fill="none"><clipPath id="a"><path d="M.918.715h48v48h-48z"/></clipPath><g clip-path="url(#a)"><path fill="#b8c6fb" d="M24.92 47.853c-3.04 0-4.634-5.818-5.397-10.11-2.58 1.797-6.356 4.072-8.925 4.072-.862 0-1.547-.25-2.038-.74-2.146-2.147.836-7.387 3.331-10.964-4.292-.763-10.11-2.362-10.11-5.396s5.818-4.633 10.11-5.395C9.396 15.743 6.414 10.502 8.56 8.356c.491-.491 1.176-.741 2.038-.741 2.569 0 6.344 2.275 8.925 4.072.763-4.292 2.362-10.11 5.396-10.11s4.633 5.818 5.396 10.11c2.581-1.797 6.356-4.072 8.925-4.072.862 0 1.547.25 2.038.741 2.146 2.146-.836 7.387-3.331 10.964 4.292.762 10.11 2.361 10.11 5.395 0 3.034-5.818 4.633-10.11 5.396 2.495 3.577 5.477 8.817 3.331 10.963-.491.492-1.176.742-2.038.742-2.569 0-6.344-2.276-8.925-4.073-.763 4.292-2.362 10.11-5.396 10.11z"/><g fill="#fff"><path d="M24.918 2.439c2.026 0 3.793 4.31 4.771 10.757 4.034-2.974 7.507-4.72 9.55-4.72.612 0 1.099.16 1.43.492 1.432 1.43-.361 5.732-4.231 10.98 6.447.979 10.756 2.75 10.756 4.771s-4.309 3.797-10.756 4.771c3.87 5.25 5.663 9.55 4.232 10.98-.332.333-.815.492-1.43.492-2.044 0-5.517-1.75-9.55-4.719C28.71 42.69 26.94 47 24.917 47s-3.796-4.31-4.77-10.757c-4.034 2.974-7.508 4.72-9.55 4.72-.612 0-1.1-.16-1.431-.492-1.43-1.43.362-5.732 4.232-10.98-6.447-.98-10.757-2.75-10.757-4.772s4.31-3.796 10.757-4.77c-3.87-5.25-5.663-9.55-4.232-10.981.332-.332.814-.491 1.43-.491 2.043 0 5.517 1.75 9.55 4.719.979-6.447 2.75-10.757 4.771-10.757zm0-1.724c-2.706 0-4.719 3.198-6.003 9.52-2.767-1.823-5.938-3.482-8.322-3.482-1.366 0-2.193.539-2.65.995-1.913 1.914-1.077 5.599 2.482 10.968-6.318 1.28-9.51 3.293-9.51 6 0 2.706 3.197 4.718 9.51 5.998-3.56 5.37-4.395 9.054-2.482 10.968.452.453 1.28.996 2.65.996 2.384 0 5.555-1.66 8.322-3.483 1.28 6.318 3.297 9.52 6.003 9.52s4.72-3.197 6-9.52c2.766 1.823 5.938 3.483 8.321 3.483 1.366 0 2.194-.54 2.65-.996 1.914-1.913 1.078-5.598-2.482-10.968 6.318-1.28 9.511-3.292 9.511-5.999 0-2.706-3.197-4.719-9.51-5.999 3.559-5.37 4.395-9.054 2.481-10.968-.452-.452-1.28-.995-2.65-.995-2.383 0-5.555 1.66-8.322 3.482-1.28-6.318-3.297-9.52-5.999-9.52z"/><path d="M17.518 25.538c-1.09-.25-1.607-1.069-1.452-1.758.22-.962 1.172-1.155 1.905-.69-.336.526-.608 1.271-.237 1.353.086.017.34-.052.444-.508.06-.263.069-.612-.203-.85.194-.435.233-.797.216-1.098a4.815 4.815 0 0 0-.746-.22c-.155-.332-.039-.733.147-1.017.543-.026 1.383.116 1.72.194.74.168 1.077.534.964 1.013l-.5 2.245c-.25 1.094-1.18 1.577-2.262 1.332zm3.044-1.939c.254-1.12 1.297-2.069 3.038-1.672 1.741.396 2.271 1.702 2.017 2.822-.302 1.323-1.353 2.323-3.099 1.927s-2.258-1.759-1.956-3.077zm3.055.694c.177-.78.065-1.246-.258-1.32-.324-.072-.625.302-.802 1.078-.211.927-.125 1.504.198 1.578.324.073.651-.41.862-1.336zm4.499 3.374a2.47 2.47 0 0 1-1.134.025c-.75-.172-.99-.71-.836-1.357.246-1.021.384-1.513.56-2.405a1.406 1.406 0 0 0-.379-.138c-.155-.331-.039-.732.147-1.017.487-.051 1.09.052 1.487.138.547.125.943.504.831.983-.15.664-.508 2.068-.616 2.762-.064.401-.103.677-.06 1.004zm5.854-3.383c.598.133.904.41 1.02.521a3.386 3.386 0 0 0-.34.832c-.164.63-.358 1.46-.496 2.155-.103.521-.12.978-.103 1.22-.194.085-.685.133-1.452-.044-.444-.099-1.319-.37-1.547-.664.142-.314.538-2.753.017-2.874-.134-.03-.255.108-.328.418-.18.797.06 1.866.306 2.452-.323.12-.922.104-1.314.013a2.766 2.766 0 0 1-1.069-.543c.116-.211.302-.63.431-1.146.177-.685.358-1.521.483-2.16a3.6 3.6 0 0 0 .06-.922c.539-.051 1.108 0 1.582.112.44.1 1.318.423 1.599.677-.207.466-.466 2.771-.018 2.875.138.03.254-.108.328-.418.18-.806.034-2.004-.306-2.453.31-.129.767-.137 1.142-.056z"/></g></g></svg>