<svg xmlns="http://www.w3.org/2000/svg" width="49" height="49" fill="none"><clipPath id="a"><path d="M.918.232h48v48h-48z"/></clipPath><g clip-path="url(#a)"><path fill="#4181f0" d="M24.92 47.378c-3.04 0-4.634-5.819-5.397-10.112-2.582 1.798-6.353 4.074-8.927 4.074-.862 0-1.547-.25-2.038-.742-2.147-2.146.836-7.388 3.331-10.965-4.293-.763-10.112-2.362-10.112-5.397 0-3.034 5.82-4.634 10.112-5.396-2.495-3.578-5.478-8.82-3.331-10.966.49-.491 1.176-.741 2.038-.741 2.57 0 6.345 2.275 8.927 4.073.763-4.293 2.362-10.112 5.397-10.112 3.034 0 4.633 5.819 5.396 10.112 2.582-1.798 6.354-4.073 8.927-4.073.862 0 1.547.25 2.039.741 2.146 2.147-.836 7.392-3.332 10.966 4.293.762 10.112 2.362 10.112 5.396 0 3.035-5.82 4.634-10.112 5.397 2.496 3.577 5.478 8.819 3.332 10.965-.492.492-1.181.742-2.04.742-2.568 0-6.344-2.276-8.926-4.074-.763 4.293-2.362 10.112-5.396 10.112z"/><g fill="#fff"><path d="M24.92 1.956c2.025 0 3.797 4.31 4.77 10.758 4.035-2.974 7.51-4.72 9.552-4.72.617 0 1.1.16 1.432.492 1.43 1.431-.363 5.733-4.233 10.983 6.448.978 10.758 2.75 10.758 4.771 0 2.022-4.31 3.798-10.758 4.772 3.87 5.25 5.663 9.552 4.232 10.983-.331.332-.814.491-1.43.491-2.044 0-5.518-1.75-9.552-4.72-.979 6.448-2.75 10.759-4.772 10.759-2.021 0-3.797-4.31-4.771-10.759-4.035 2.974-7.509 4.72-9.552 4.72-.612 0-1.1-.16-1.431-.491-1.431-1.431.362-5.733 4.233-10.983-6.449-.978-10.759-2.75-10.759-4.772 0-2.021 4.31-3.797 10.759-4.771-3.871-5.25-5.664-9.552-4.233-10.983.332-.332.815-.491 1.43-.491 2.044 0 5.518 1.75 9.553 4.72.978-6.449 2.75-10.76 4.771-10.76zm0-1.724c-2.708 0-4.72 3.198-6.005 9.517-2.767-1.823-5.94-3.483-8.323-3.483-1.367 0-2.194.539-2.651.996-1.914 1.914-1.078 5.6 2.482 10.97-6.318 1.28-9.517 3.293-9.517 6s3.199 4.72 9.517 6c-3.56 5.37-4.396 9.056-2.482 10.97.452.452 1.28.995 2.65.995 2.384 0 5.557-1.66 8.324-3.483 1.28 6.32 3.297 9.518 6.004 9.518s4.72-3.198 6.004-9.518c2.768 1.824 5.94 3.483 8.32 3.483 1.366 0 2.193-.539 2.65-.995 1.914-1.914 1.078-5.6-2.483-10.97 6.32-1.28 9.518-3.293 9.518-6s-3.198-4.72-9.518-6c3.56-5.37 4.397-9.056 2.483-10.97-.452-.453-1.28-.996-2.65-.996-2.384 0-5.557 1.66-8.32 3.483C29.643 3.43 27.626.232 24.92.232z"/><path d="M16.848 28.468a2.446 2.446 0 0 1-.991.548c-.742.198-1.207-.173-1.371-.815-.285-1.095-.436-1.741-.668-2.569-.134-.448-.207-.677-.431-.996.288-.275.72-.521 1.043-.607.543-.142 1.069.008 1.194.483.086.331.25 1.116.448 1.465.017.573.267 1.203.37 1.569.13.388.225.647.414.918zm2.496-.663a2.447 2.447 0 0 1-.992.547c-.741.198-1.19-.177-1.353-.819-.022-.078-.229-.914-.34-1.254-.074-.233-.177-.44-.591-.302.06-.897.66-1.267 1.108-1.388.637-.168 1.215.151 1.383.875.198.88.095.453.375 1.418.125.427.194.664.414.918zm4.161-2.017c.237.892-.823 1.422-1.629 1.633-1.414.375-2.336-.28-2.6-1.267-.3-1.13.453-2.233 1.859-2.608.935-.25 1.797-.069 2.034.832a1.39 1.39 0 0 1-.06.845c-.466.241-1.263.483-1.84.319.245.388.646.56 1.085.444.34-.09.574-.345.755-.763.19.086.332.328.396.569zm-2.41-.66c.044.155.104.298.173.414a.956.956 0 0 0 .25-.914c-.043-.155-.116-.267-.25-.233-.246.065-.246.462-.172.733zm5.347.798a2.446 2.446 0 0 1-.992.547c-.741.198-1.207-.172-1.37-.815-.285-1.095-.436-1.741-.668-2.569-.134-.448-.207-.676-.431-.995.288-.276.72-.522 1.043-.608.543-.142 1.069.009 1.194.483.176.66.59 2.293.819 3.034.129.388.224.647.413.918zm2.664-.708a2.446 2.446 0 0 1-.992.548c-.741.198-1.207-.173-1.37-.815-.285-1.095-.436-1.741-.668-2.569-.134-.448-.207-.677-.431-.996.288-.275.72-.521 1.043-.607.543-.142 1.069.008 1.194.483.176.659.59 2.293.819 3.034.129.388.224.647.413.918zm-.06-1.801c-.268-1.013.224-2.03 1.806-2.448s2.512.22 2.784 1.232c.289 1.087-.19 2.151-1.776 2.574-1.582.418-2.526-.268-2.814-1.354zm2.668-.707c-.134-.509-.388-.884-.621-.823-.229.06-.263.517-.13 1.021.156.582.423 1.009.651.944.229-.06.25-.564.095-1.146zm3.641-3.272.49 1.837c.087.327-.245.75-.732 1.008-.552.017-1.052-.194-1.138-.513-.16-.603-.314-1.448-.569-2.15.112-.23.423-.41.862-.526.436-.117.983-.052 1.086.344zm-.854 3.82c-.086-.32.194-.738.612-.98.483 0 .931.225 1.017.544.134.5-.16.858-.612.978s-.883-.043-1.017-.543z"/></g></g></svg>