<svg xmlns="http://www.w3.org/2000/svg" width="49" height="49" fill="none"><clipPath id="a"><path d="M.918.45h48v48h-48z"/></clipPath><g clip-path="url(#a)"><path fill="#ff6d3a" d="M19.575 46.464a11.665 11.665 0 0 1-7.26-5.3 11.645 11.645 0 0 1-1.549-8.084 11.692 11.692 0 0 1-6.473-5.082C.923 22.466 2.682 15.22 8.213 11.85a11.677 11.677 0 0 1 8.083-1.55 11.692 11.692 0 0 1 5.083-6.473 11.666 11.666 0 0 1 8.882-1.382c3.05.74 5.627 2.622 7.26 5.3a11.645 11.645 0 0 1 1.548 8.084 11.691 11.691 0 0 1 6.474 5.083c3.37 5.53 1.611 12.778-3.92 16.148a11.644 11.644 0 0 1-8.083 1.549 11.691 11.691 0 0 1-5.083 6.473 11.654 11.654 0 0 1-8.882 1.382z"/><g fill="#fff"><path d="M30.066 3.263c2.713.66 5.17 2.35 6.74 4.92a10.844 10.844 0 0 1 1.282 8.246c2.713.66 5.17 2.35 6.741 4.92 3.135 5.145 1.507 11.853-3.637 14.981a10.872 10.872 0 0 1-8.246 1.281 10.883 10.883 0 0 1-4.92 6.742 10.844 10.844 0 0 1-8.246 1.28 10.883 10.883 0 0 1-6.742-4.919 10.872 10.872 0 0 1-1.28-8.246 10.883 10.883 0 0 1-6.742-4.92C1.881 22.403 3.51 15.695 8.653 12.567a10.871 10.871 0 0 1 8.247-1.281 10.894 10.894 0 0 1 13.166-8.022zm.4-1.648a12.494 12.494 0 0 0-9.526 1.488 12.508 12.508 0 0 0-5.212 6.26 12.527 12.527 0 0 0-7.954 1.762 12.517 12.517 0 0 0-5.689 7.783 12.505 12.505 0 0 0 1.488 9.525 12.508 12.508 0 0 0 6.26 5.212 12.527 12.527 0 0 0 1.762 7.954 12.517 12.517 0 0 0 7.783 5.69c3.265.792 6.656.266 9.525-1.488a12.508 12.508 0 0 0 5.213-6.26 12.527 12.527 0 0 0 7.953-1.762c5.933-3.616 7.819-11.382 4.203-17.315a12.508 12.508 0 0 0-6.26-5.212 12.527 12.527 0 0 0-1.762-7.954 12.515 12.515 0 0 0-7.784-5.683z"/><path d="M6.671 22.83c.012-.084.045-.218.083-.406s.092-.412.146-.667c.056-.263.123-.538.195-.837l.219-.901.231-.954c.075-.305.144-.557.198-.78.054-.224.1-.379.123-.476l1.37.309c-.045.147-.105.33-.157.546.187-.152.38-.263.593-.33.213-.066.435-.068.666-.012.283.07.501.21.646.426s.241.469.295.766c.534-.51 1.084-.692 1.65-.554.32.077.565.208.739.4.176.185.295.41.358.67.063.26.09.543.07.846a8.88 8.88 0 0 1-.104.922c-.06.309-.125.609-.193.892-.082.335-.165.646-.241.928-.077.281-.147.54-.201.795l-1.394-.338.118-.484.145-.597c.048-.2.097-.37.134-.52l.063-.26c.078-.32.144-.628.198-.915a2.78 2.78 0 0 0 .05-.722c-.024-.195-.107-.31-.249-.344-.141-.034-.277.004-.421.11a2.187 2.187 0 0 0-.41.454 6.282 6.282 0 0 0-.382.633c-.044.21-.08.422-.13.631-.05.209-.092.412-.139.606l-.14.573c-.04.163-.09.341-.135.528l-1.356-.33c.105-.432.199-.82.273-1.156.074-.338.144-.66.205-.976.106-.566.153-.989.127-1.272-.026-.282-.115-.438-.271-.476-.171-.041-.346.027-.508.208s-.328.41-.473.682c-.098.434-.199.883-.298 1.356-.1.473-.185.926-.262 1.373zm9.812 2.405c-.514-.124-.943-.339-1.282-.634a2.321 2.321 0 0 1-.705-1.063 2.434 2.434 0 0 1-.023-1.331 3.21 3.21 0 0 1 .367-.866c.175-.297.402-.55.685-.773a2.46 2.46 0 0 1 1.012-.464c.392-.086.846-.07 1.353.052.365.089.661.2.895.344a2 2 0 0 1 .535.46 1.541 1.541 0 0 1 .336.957c-.003.143-.014.25-.035.34-.127.522-.44.871-.949 1.048-.508.176-1.161.168-1.966-.028a5.885 5.885 0 0 1-.956-.319c.039.294.154.535.362.72.208.184.439.303.692.365.365.089.702.1 1.018.034a2.56 2.56 0 0 0 .938-.42l.464 1.21c-.206.1-.434.195-.679.293a2.966 2.966 0 0 1-.865.184c-.35.042-.742.002-1.197-.109zm1.125-3.853a1.57 1.57 0 0 0-.9.034 1.427 1.427 0 0 0-.684.512 7.6 7.6 0 0 0 .39.15c.13.047.255.086.389.118a3.164 3.164 0 0 0 .895.083c.16-.008.292-.031.405-.075.113-.043.178-.115.2-.204.01-.045 0-.102-.028-.18a.557.557 0 0 0-.188-.235c-.099-.08-.263-.15-.479-.203zm1.989 4.588c.012-.084.045-.218.083-.406.037-.188.092-.412.146-.667.056-.263.123-.538.195-.837l.219-.901.231-.954c.074-.305.143-.557.198-.78.054-.224.1-.379.123-.476l1.369.309c-.044.147-.104.33-.156.546.187-.152.38-.263.593-.33.213-.066.434-.068.665-.011.283.068.502.208.647.425s.24.469.295.766c.534-.51 1.083-.692 1.65-.555.32.078.565.209.739.4.176.186.295.412.358.672.063.26.089.542.07.845-.018.304-.053.61-.105.922-.059.309-.124.609-.193.892-.081.335-.164.646-.24.928-.077.28-.148.54-.202.795l-1.393-.338.118-.484.144-.597c.05-.2.098-.37.134-.52l.064-.26c.077-.32.144-.628.198-.915.054-.287.065-.528.049-.722-.024-.195-.106-.31-.248-.344-.141-.034-.277.004-.421.11a2.191 2.191 0 0 0-.41.454 6.31 6.31 0 0 0-.383.633c-.043.21-.078.422-.13.631-.05.209-.091.412-.138.605l-.14.574c-.04.164-.09.341-.135.527l-1.357-.329c.105-.432.2-.82.273-1.157.074-.337.145-.659.206-.975.106-.567.153-.989.127-1.272s-.115-.438-.271-.476c-.172-.041-.346.027-.508.208a3.48 3.48 0 0 0-.474.682c-.097.434-.198.883-.297 1.356-.1.473-.185.926-.262 1.373zm9.781 2.412c-.432-.105-.788-.263-1.074-.482a2.325 2.325 0 0 1-.658-.767 2.6 2.6 0 0 1-.266-.956 3.293 3.293 0 0 1 .086-1.037 2.58 2.58 0 0 1 1.142-1.616c.278-.17.582-.285.911-.34s.671-.034 1.03.053c.372.09.698.24.988.445.29.205.52.458.702.747a2.612 2.612 0 0 1 .31 2.008c-.197.812-.575 1.391-1.13 1.73-.541.342-1.229.412-2.04.215zm.311-1.314c.395.096.72.057.981-.109.263-.173.443-.46.545-.877.09-.373.05-.698-.118-.976-.17-.278-.44-.462-.806-.55a1.151 1.151 0 0 0-.645.024c-.215.074-.393.189-.552.356s-.261.362-.318.593a1.574 1.574 0 0 0-.017.627c.034.214.13.403.288.567.135.16.359.277.642.345zm2.849 2.042c.131-.442.255-.885.37-1.33s.23-.884.338-1.323l.265-1.19c.088-.397.164-.773.23-1.144l1.365.292c-.041.203-.082.406-.126.616a2.18 2.18 0 0 1 .73-.375c.264-.078.541-.081.84-.009.111.027.256.078.42.15.172.073.335.183.492.316l-.488 1.326a1.32 1.32 0 0 0-.39-.277 1.733 1.733 0 0 0-.368-.144c-.342-.083-.67.003-.983.25-.313.248-.582.64-.798 1.172-.092.38-.186.736-.277 1.077a16 16 0 0 1-.269.913l-1.349-.328zm4.988 2.86-1.05-.942c.38-.263.76-.533 1.13-.815s.732-.58 1.075-.89a17.99 17.99 0 0 1-.494-1.28c-.159-.45-.296-.893-.422-1.318-.125-.425-.213-.81-.277-1.133l1.427-.253a11.568 11.568 0 0 0 .452 1.972c.11.358.232.703.357 1.033a20.364 20.364 0 0 0 2.113-2.43l1.212.855a45.828 45.828 0 0 1-2.55 2.671c-.482.46-.97.909-1.477 1.338-.506.43-1 .838-1.496 1.191z"/></g></g></svg>