<svg fill="none" height="49" viewBox="0 0 49 49" width="49" xmlns="http://www.w3.org/2000/svg" xmlns:xlink="http://www.w3.org/1999/xlink"><clipPath id="a"><path d="m.917969.450684h48v48h-48z"/></clipPath><g clip-path="url(#a)"><path d="m19.5749 46.464c-3.0496-.7403-5.6274-2.6215-7.2597-5.3004-1.4883-2.4425-2.0331-5.2871-1.549-8.0833-2.70536-.8582-4.97876-2.6387-6.47338-5.0827-3.370246-5.5312-1.61106-12.7778 3.92008-16.148 2.4425-1.4883 5.2856-2.02674 8.0833-1.549.8582-2.70537 2.6386-4.97874 5.0827-6.47336 2.6789-1.63232 5.8324-2.12223 8.8819-1.38193 3.0496.74031 5.6274 2.62156 7.2597 5.30046 1.4883 2.44253 2.0331 5.28713 1.549 8.08333 2.7054.8581 4.9788 2.6386 6.4734 5.0827 3.3702 5.5311 1.6111 12.7777-3.9201 16.148-2.4425 1.4883-5.2871 2.033-8.0833 1.5489-.8581 2.7054-2.6386 4.9788-5.0827 6.4734-2.6725 1.6339-5.8324 2.1222-8.8819 1.3819z" fill="#ff6d3a"/><g fill="#fff"><path d="m30.0655 3.26334c2.7135.65873 5.1698 2.34935 6.7413 4.91947 1.5714 2.57009 1.9398 5.53299 1.281 8.24649 2.7135.6588 5.1699 2.3494 6.7413 4.9195 3.135 5.1451 1.5066 11.8528-3.6369 14.9815-2.5686 1.5651-5.533 1.9397-8.2465 1.281-.6587 2.7135-2.3494 5.1698-4.9195 6.7413-2.5701 1.5714-5.533 1.9398-8.2465 1.281-2.7135-.6587-5.1698-2.3493-6.7413-4.9194-1.5651-2.5686-1.9397-5.533-1.281-8.2465-2.71353-.6588-5.16985-2.3494-6.74129-4.9195-3.135-5.1451-1.50663-11.8528 3.63689-14.9815 2.5686-1.5651 5.533-1.9398 8.2465-1.281.6587-2.71355 2.3493-5.16987 4.9195-6.74131 2.5749-1.56356 5.5393-1.93825 8.2465-1.28105zm.4001-1.64841c-3.2714-.79417-6.6556-.26628-9.5252 1.48759-2.411 1.46908-4.2253 3.6604-5.2123 6.26065-2.7634-.31502-5.5363.29414-7.95368 1.76163-2.87588 1.7524-4.8967 4.5179-5.68934 7.783-.79263 3.2651-.26627 6.6557 1.48761 9.5253 1.46908 2.411 3.66041 4.2253 6.26066 5.2123-.31502 2.7634.29415 5.5363 1.76165 7.9537 1.7524 2.8758 4.5179 4.8966 7.783 5.6893 3.2651.7926 6.6557.2663 9.5253-1.4876 2.411-1.4691 4.2252-3.6604 5.2123-6.2606 2.7634.315 5.5363-.2942 7.9536-1.7617 5.933-3.6151 7.8184-11.3816 4.2033-17.3146-1.4691-2.411-3.6604-4.2253-6.2606-5.2123.315-2.7634-.2942-5.53634-1.7617-7.95369-1.7475-2.868-4.5131-4.8888-7.7846-5.68298z"/><path d="m6.67105 22.8296c.01245-.0838.04504-.2179.08281-.406s.09203-.4116.14608-.6668c.05586-.2626.12278-.5383.19513-.8364.07236-.298.14472-.5961.21888-.9016.0814-.3353.15738-.6483.23154-.9538.07417-.3055.14313-.557.19739-.7805.05427-.2236.09972-.3783.12323-.4751l1.36901.3086c-.04363.1473-.10373.3299-.15619.546.1868-.1519.37947-.2629.59289-.3295.21342-.0665.43468-.068.66568-.012.2832.0688.5017.2086.6464.4252s.2412.4689.2953.7661c.534-.5095 1.0833-.6918 1.6496-.5543.3204.0778.5649.2081.7392.4004.1761.1847.2948.4108.3579.6708.0632.2599.0893.5424.0709.8457-.0184.3032-.0535.6103-.1053.9213-.0592.3091-.1242.609-.1929.8921-.0814.3353-.1648.6465-.241.9278-.0762.2814-.147.5404-.201.7955l-1.3934-.3382c.0307-.1267.0705-.2906.1176-.4844.047-.1937.0958-.3949.1447-.5961.0488-.2012.0979-.3708.1341-.5198.0361-.149.0578-.2384.0633-.2608.0777-.3204.1444-.6277.1983-.9145.0538-.2868.0652-.5286.049-.7219-.0237-.1951-.1063-.3099-.2479-.3442-.1416-.0344-.2771.0037-.4214.1107-.1369.1088-.2772.2641-.4098.4529-.1344.1962-.265.4091-.3825.633-.0432.2105-.0789.4227-.1295.6314-.0507.2086-.0921.4116-.1391.6054-.0543.2235-.0995.4098-.1393.5737s-.0906.341-.1359.5273l-1.35614-.3293c.10492-.4321.19898-.8196.27292-1.1567.07395-.3372.1443-.6594.20537-.976.10586-.566.15316-.9885.12706-1.2711-.02611-.2825-.11457-.4381-.27105-.4761-.17138-.0416-.34575.0266-.50817.2081s-.32821.4095-.47327.682c-.09747.434-.19857.8829-.29762 1.356-.09906.473-.18522.9256-.26214 1.3724z"/><path d="m16.4832 25.2354c-.5142-.1248-.9434-.3394-1.282-.6347-.3387-.2952-.5754-.6526-.7047-1.0627-.1292-.4101-.1397-.8545-.0239-1.3314.0687-.2832.1932-.5686.3679-.8655.1746-.2969.4017-.5495.6847-.7727.283-.2233.6204-.3781 1.0123-.4644.3918-.0864.8457-.0709 1.3523.0521.3652.0886.6616.2001.8951.3435.226.1417.4093.2967.535.4613.1258.1647.2181.337.2656.4985.0476.1615.0729.3175.0701.4589-.0027.1413-.0132.2493-.0349.3387-.1266.5216-.4404.8715-.9487 1.0479-.5084.1765-1.1612.1679-1.966-.0275-.1863-.0452-.3558-.0942-.5161-.1489-.1604-.0547-.304-.1133-.4401-.17.0392.2936.1543.5346.362.7191.2077.1846.4391.3039.6924.3654.3652.0886.7018.0994 1.0176.034.3157-.0654.6253-.2033.9381-.4193l.464 1.2094c-.2058.1-.4339.1945-.6787.2929-.2523.0966-.5364.1617-.8654.1844-.3494.0415-.7421.0014-1.1966-.109zm1.1249-3.8536c-.3204-.0778-.616-.0628-.8999.034-.2857.1042-.5077.2713-.6846.5124.1287.0549.2592.1024.3897.1498.1305.0475.2554.0857.3895.1183.1192.0289.2551.054.417.0696.162.0157.3182.022.4781.0135s.2917-.0317.4049-.0753c.1131-.0435.1778-.1146.1995-.2041.0108-.0447.0011-.1022-.0273-.1802-.0284-.0779-.0884-.1556-.1876-.2349-.0991-.0793-.2632-.1507-.4793-.2031z"/><path d="m19.5968 25.9696c.0125-.0838.0451-.2179.0828-.406.0378-.1881.0921-.4117.1461-.6668.0559-.2626.1228-.5383.1952-.8364.0723-.2981.1447-.5961.2188-.9016.0814-.3353.1574-.6483.2316-.9538.0741-.3055.1431-.5571.1974-.7806.0542-.2235.0997-.3782.1232-.4751l1.369.3087c-.0436.1472-.1037.3299-.1562.546.1868-.1519.3795-.263.5929-.3295.2134-.0666.4347-.0681.6657-.012.2831.0687.5017.2086.6464.4252s.2412.4689.2953.766c.534-.5095 1.0833-.6917 1.6496-.5543.3204.0778.5649.2082.7392.4004.1761.1848.2948.4109.3579.6708.0632.2599.0893.5425.0709.8457-.0184.3033-.0535.6104-.1053.9213-.0593.3092-.1241.609-.1929.8922-.0814.3353-.1648.6464-.241.9278-.0762.2813-.147.5403-.201.7955l-1.3934-.3383c.0307-.1267.0705-.2906.1175-.4843.0471-.1938.0959-.395.1448-.5961.0488-.2012.0979-.3708.134-.5198.0362-.1491.0579-.2385.0633-.2608.0778-.3204.1445-.6278.1984-.9145.0538-.2868.0652-.5287.049-.722-.0237-.1951-.1063-.3098-.2478-.3442-.1416-.0343-.2771.0038-.4215.1108-.1368.1088-.2771.2641-.4097.4528-.1345.1962-.2651.4091-.3826.6331-.0432.2104-.0789.4227-.1296.6313-.0506.2087-.092.4117-.139.6054-.0543.2236-.0995.4098-.1393.5738-.0398.1639-.0907.3409-.1359.5272l-1.3562-.3292c.105-.4322.199-.8197.273-1.1568.0739-.3371.1443-.6593.2053-.9759.1059-.5661.1532-.9886.1271-1.2711s-.1146-.4381-.2711-.4761c-.1713-.0416-.3457.0265-.5081.208-.1624.1816-.3282.4096-.4733.6821-.0975.434-.1986.8829-.2976 1.3559-.0991.4731-.1852.9256-.2622 1.3725z"/><path d="m29.3781 28.3817c-.4322-.1049-.7885-.2624-1.0745-.4818-.2861-.2194-.5073-.4782-.658-.7673-.149-.2966-.2367-.6177-.2651-.956-.0265-.3457.0009-.6863.0859-1.0365.0869-.3576.2261-.671.4269-.9458.2008-.2747.4355-.4939.7152-.6707.2778-.1692.582-.2848.9108-.3391s.6711-.0343 1.0288.0525c.3726.0904.6991.2407.9887.4452.2897.2044.5202.4577.7025.7465.1824.2889.2961.6006.3543.9461.0581.3455.0438.6971-.0448 1.0622-.1972.8122-.5745 1.3913-1.1302 1.7299-.5407.3422-1.2283.4119-2.0405.2148zm.3109-1.3133c.3949.0959.7201.0565.9812-.109.2629-.1729.4432-.4605.5445-.8778.0904-.3726.0511-.6977-.1182-.9756-.1693-.2778-.4402-.4619-.8053-.5505-.2236-.0543-.4392-.0435-.6452.0248-.2152.074-.393.1887-.5518.3553s-.2616.3626-.3177.5936c-.0488.2012-.053.4132-.018.6268.0349.2137.131.4027.2884.5672.135.159.359.2765.6421.3452z"/><path d="m32.5385 29.1099c.1309-.4417.2543-.8851.3703-1.3304s.2301-.8831.3368-1.3227c.0885-.3968.1769-.7935.2653-1.1902.0884-.3968.164-.773.2303-1.1435l1.3652.292c-.0414.2029-.0828.4059-.126.6164.2238-.1745.4666-.297.7302-.3751.2635-.078.5406-.0818.8387-.0094.1117.0271.2571.0782.4213.1496.1716.0732.3342.1837.4913.3165l-.4875 1.3256c-.1143-.1145-.2414-.2085-.3906-.2763-.1475-.0752-.2705-.1209-.3674-.1444-.3428-.0832-.6713.0028-.9839.2504-.3127.2476-.5815.64-.7973 1.1715-.0923.38-.1865.7359-.2772 1.0768-.0907.341-.1797.6429-.269.9132l-1.3487-.3275z"/><path d="m37.526 31.9693-1.0498-.9414c.3794-.2629.7607-.5333 1.1289-.8148s.7325-.5797 1.0763-.8907c-.1719-.3969-.3367-.8235-.4942-1.2799-.1592-.449-.2962-.8925-.4218-1.3176-.1257-.425-.2138-.8094-.2774-1.1325l1.4266-.2534c.0335.2843.0933.5908.1681.9324.0749.3417.1721.6888.2842 1.0396.1104.3582.2318.7033.3567 1.0334.8092-.7977 1.5122-1.6134 2.1129-2.4302l1.2128.8546c-.3506.4041-.7475.8364-1.1814 1.2913-.434.4549-.8846.9136-1.3687 1.38-.4822.459-.9702.9086-1.4768 1.338-.5067.4293-1.0004.8381-1.4964 1.1912z"/></g></g></svg>
