<svg fill="none" height="49" viewBox="0 0 49 49" width="49" xmlns="http://www.w3.org/2000/svg"><path d="m38.5129 44.9353c-3.6988 0-8.5099-1.9164-13.589-5.4008-5.0858 3.4844-9.8969 5.4008-13.589 5.4008-2.05043 0-3.67201-.583-4.82453-1.7422-3.24984-3.2499-1.80249-10.4397 3.65863-18.4203-5.46782-7.9738-6.90847-15.17035-3.65863-18.42019 1.15252-1.15252 2.7808-1.74218 4.82453-1.74218 3.6988 0 8.5032 1.9164 13.589 5.40077 5.0858-3.48437 9.8969-5.40077 13.589-5.40077 2.0504 0 3.672.58296 4.8245 1.74218 3.2499 3.24984 1.8092 10.43969-3.6586 18.42019 5.4678 7.9739 6.9085 15.1704 3.6586 18.4203-1.1525 1.1592-2.7808 1.7422-4.8245 1.7422z" fill="#71ba9d"/><g fill="#fff"><path d="m38.5141 5.45472c1.7623 0 3.2163.48245 4.2349 1.49425 3.0957 3.09573 1.2262 10.26543-4.0875 17.82383 5.3137 7.5584 7.1832 14.7349 4.0875 17.8239-1.0186 1.0185-2.4726 1.4943-4.2349 1.4943-3.6117 0-8.5166-2.0169-13.589-5.5817-5.0791 3.5648-9.984 5.5817-13.589 5.5817-1.76231 0-3.21636-.4825-4.23487-1.4943-3.09572-3.0957-1.22622-10.2655 4.08747-17.8239-5.31369-7.5584-7.18319-14.7348-4.08747-17.82383 1.01851-1.0185 2.47256-1.49425 4.23487-1.49425 3.6117 0 8.5166 2.01691 13.589 5.58168 5.0724-3.56477 9.9773-5.58168 13.589-5.58168zm-27.1847-1.67518c-2.27827 0-4.10085.67007-5.42089 1.99011-3.53797 3.53797-2.27825 10.76135 3.23643 19.00985-5.52138 8.2486-6.7744 15.4787-3.23643 19.0099 1.29993 1.3 3.17613 1.9901 5.42089 1.9901 3.7457 0 8.5434-1.8494 13.589-5.2265 5.0523 3.3771 9.8433 5.2265 13.589 5.2265 2.2783 0 4.1008-.67 5.4209-1.9901 3.538-3.5379 2.2849-10.7613-3.2364-19.0099 5.5213-8.2485 6.7744-15.47188 3.2364-19.00985-1.3-1.29994-3.1761-1.99011-5.4209-1.99011-3.7457 0-8.5434 1.84939-13.589 5.22655-5.0456-3.37716-9.8433-5.22655-13.589-5.22655z"/><path d="m17.2621 35.9311c-.2387-.2165-.494-.4607-.766-.7328-.2665-.2664-.5385-.5495-.8272-.8604-.2886-.3109-.5773-.6217-.8604-.9493-.2831-.3275-.5607-.6495-.816-.9714-.0445.0666-.0778.1332-.1166.1943-.0389.061-.0722.1165-.0944.172l-1.0492-.5384c.6218-.9993 1.1991-1.7653 1.7376-2.3038 1.0936-1.0936 2.0539-1.2213 2.8866-.3886.3886.3886.5718.8272.5385 1.3157s-.272 1.0159-.7161 1.5821c.5606-.05 1.0769-.1444 1.5543-.2887s.9271-.3164 1.3545-.5218l.1888 1.2879c-.2387.1166-.5107.2109-.8216.2886-.3053.0833-.6273.1499-.9548.1999-.3276.05-.6495.0944-.9604.1277s-.5995.0555-.8493.0721c.2276.2387.4552.4663.6939.7051l.7272.7272v.0555c-.1277.1276-.2609.2609-.4108.4108-.1499.1498-.272.2831-.3775.4108zm-2.0428-5.1626c-.0944.0943-.1832.1942-.2776.2997s-.1832.2165-.2664.3331c.1776.1998.3497.3941.5218.5884s.3442.3775.5162.5718c.1388-.1499.2943-.3164.4497-.5052.1554-.1887.2887-.3774.3997-.5773.111-.1998.1665-.3886.1776-.5773.0111-.1888-.0499-.3498-.1943-.4941-.1665-.1665-.3552-.222-.5717-.161-.2165.0611-.4719.2387-.755.5219z"/><path d="m22.7985 30.502c-.3219.3219-.6606.5384-1.0325.655s-.7328.1332-1.088.0444c-.3553-.0888-.6884-.2775-.9826-.5718-.1777-.1776-.3331-.3885-.4719-.6495-.1387-.2609-.222-.5329-.2609-.8382-.0388-.3053 0-.6217.1111-.9437.111-.322.3219-.644.6383-.9604.2276-.2276.4441-.3886.6495-.494.2054-.1055.3997-.1666.5774-.1888.1776-.0222.3386-.0055.4829.0278.1388.0388.2665.0888.3609.1499.0943.061.1776.1221.2331.1776.322.322.433.7106.3386 1.1602-.0943.4497-.3941.916-.8937 1.4156-.1166.1166-.2276.2165-.3386.3053-.1111.0888-.2165.1721-.3165.2498.2276.1055.4552.1221.6828.05.2221-.0666.4164-.1832.5718-.3387.2276-.2276.3886-.4663.4774-.7216.0888-.2554.1333-.544.1111-.866l1.0825.1943c-.0167.1943-.05.4052-.0833.6273-.0389.2276-.1221.4663-.2498.7161-.1166.2498-.3164.5162-.5996.7994zm-2.3093-2.5314c-.1943.1943-.3219.4219-.3719.6717s-.0278.494.0666.7216c.0944-.0721.1887-.1443.2831-.2164.0944-.0722.1721-.1499.2554-.2332.0721-.0722.1499-.161.2331-.2776.0833-.1054.1555-.222.2165-.3386.0666-.1221.1055-.2276.1277-.3275.0167-.1055 0-.1776-.0611-.2387-.0277-.0278-.0721-.05-.1387-.0611s-.1555 0-.2554.0333c-.1055.05-.222.1333-.3553.2665z"/><path d="m25.987 27.3043c-.2498.2498-.544.4108-.877.4885-.3331.0778-.6662.0667-1.0048-.0388-.3331-.0999-.6384-.2831-.9104-.5551-.2554-.2554-.4386-.5274-.5496-.8272-.111-.2997-.161-.6051-.1443-.9104.0166-.3053.0832-.6051.2165-.8937.1277-.2832.3053-.5385.5329-.7661.1887-.1887.4052-.3497.6384-.483-.0611-.0832-.1166-.1609-.1777-.2442l.9993-.7106c.0388.0833.1165.2054.2109.3553.1055.1499.2221.3109.3719.483.1388.1721.2887.3441.433.5107.1444.1665.2832.3164.4108.4441.1055.1055.211.1998.3276.2831.1165.0833.2276.1277.3386.1388s.222-.0333.3275-.1388l.0722-.0722.7438.9992c-.222.2221-.4385.3609-.655.4331-.2165.0721-.4386.0832-.6495.0388.0166.3053-.0389.5718-.1665.8105-.1277.2387-.2943.4607-.4886.655zm-1.8707-.8271c.1776.1443.3719.2054.5829.1832.2109-.0222.4052-.1166.5828-.2942.1721-.1721.2665-.3553.2887-.5663.0167-.2054-.0111-.4219-.0999-.655-.0611-.05-.1166-.1055-.1721-.161-.1166-.1166-.2332-.2442-.3497-.3719-.1166-.1277-.2276-.2609-.3387-.3942-.1943.0833-.3663.211-.5162.3609-.1832.1832-.3109.3775-.3775.5884-.0666.211-.0833.4275-.0333.6329.0499.2053.1499.3941.3164.5606l.0611.0611c.0166.0277.0388.0388.0555.0555z"/><path d="m29.6469 23.6465c-.1721.1721-.372.3164-.5996.4219s-.4663.1665-.7216.1665c-.2609.0056-.5219-.0444-.7828-.161-.2664-.111-.5273-.2942-.7827-.5495-.2886-.2887-.4885-.5774-.6106-.8771-.1222-.2998-.1777-.5885-.161-.8716.0166-.2831.0722-.5496.1832-.7938.111-.2443.2609-.4608.4385-.6384.1055-.1055.2165-.2054.3276-.2831.111-.0777.222-.1554.333-.211-.2331-.2553-.4663-.5107-.6994-.7771-.2332-.2665-.4552-.5219-.6828-.7828l.8993-.7882c.2498.3053.5273.6272.8216.9659.2942.3386.6106.6772.927 1.0159.322.3441.644.6661.9548.977.2942.2942.5774.5662.8494.8271s.5218.4885.7549.6884l-.7993.9326c-.0667-.0555-.1333-.1222-.1888-.1777-.0333.1555-.0888.322-.161.4719-.0666.1665-.1665.3109-.2997.4441zm-2.1262-.9715c.1721.1721.3442.2776.5108.3109.1665.0333.3164.0166.4496-.0389s.2498-.1277.3386-.2165c.1055-.1054.1943-.2387.2498-.3941.0611-.1499.0778-.3331.0555-.544-.0388-.0389-.0777-.0777-.1165-.1166-.272-.272-.5441-.5551-.8216-.8438-.2942.0167-.5329.1221-.7161.3053-.0777.0777-.1499.1721-.211.2776-.0666.111-.0999.2331-.1221.3664-.0167.1276 0 .2775.0555.4219.0611.161.1666.3108.3275.4718z"/><path d="m33.4476 21.7643-1.1491.3497c-.0167-.3941-.05-.7938-.0944-1.1824-.0388-.3941-.0999-.7883-.1665-1.1769-.3664-.0555-.755-.1221-1.1491-.2054-.3997-.0888-.7772-.1776-1.1547-.2775-.3664-.1-.6883-.1999-.9548-.2998l.4496-1.1491c.2221.0999.4719.1943.755.2887.2831.0943.5774.1776.8882.2553.3109.0777.6107.1444.9104.1999-.222-.9437-.4996-1.8208-.8327-2.6202l1.1658-.4996c.1388.4385.272.9159.4108 1.4322s.272 1.0492.3941 1.6043c.1222.5551.2332 1.1102.3276 1.6709.0943.5607.1609 1.0936.1998 1.6099z"/><path d="m36.0309 17.2953c-.1277.1277-.2832.1943-.4663.1887-.1832-.0055-.3387-.0721-.4719-.2054-.1332-.1332-.1998-.2886-.1943-.4718.0056-.1832.0722-.3386.2054-.4719.1277-.1277.2831-.1943.4663-.1887.1832.0055.3442.0777.483.2165s.2054.2942.2054.4607c0 .1666-.0833.3276-.2276.4719zm-4.763-4.2523.8327-.7549c.111.1332.2553.2997.433.4996.1776.1998.3719.4163.5884.655s.433.4774.6551.7106c.222.2442.433.4663.6383.6828.2054.2165.3886.3997.5441.5551.0444.0444.0832.0833.1276.1277.0445.0444.0778.0777.1111.0999l-.8105.7661c-.0611-.05-.1277-.1166-.1998-.1888-.0722-.0721-.1499-.1498-.2388-.2387-.272-.272-.5662-.5773-.8882-.9104-.3108-.333-.6272-.6717-.9381-1.0158-.2998-.3442-.5884-.6773-.8549-.9882z"/></g></svg>
