<svg xmlns="http://www.w3.org/2000/svg" width="49" height="49" fill="none"><clipPath id="a"><path d="M.918.78h48v48h-48z"/></clipPath><g clip-path="url(#a)"><path fill="#ff6d3a" d="M14.293 45.048a.75.75 0 0 1-.545-.912l1.631-6.508-5.756 3.448a.758.758 0 0 1-.569.084.758.758 0 0 1-.462-.342l-5.523-9.22a.752.752 0 0 1 .259-1.03l5.755-3.449-6.507-1.632a.75.75 0 0 1-.546-.91l2.612-10.421a.75.75 0 0 1 .912-.546l6.508 1.631-3.449-5.756a.752.752 0 0 1 .259-1.03l9.225-5.522a.756.756 0 0 1 1.031.259l3.448 5.755 1.632-6.508a.75.75 0 0 1 .911-.546l10.426 2.614a.75.75 0 0 1 .546.912l-1.631 6.507 5.75-3.45a.757.757 0 0 1 1.032.259l5.522 9.22a.752.752 0 0 1-.258 1.031l-5.756 3.448 6.508 1.632a.75.75 0 0 1 .546.911L45.19 35.403a.75.75 0 0 1-.912.546l-6.508-1.631 3.449 5.756a.752.752 0 0 1-.259 1.031l-9.22 5.523a.758.758 0 0 1-1.03-.259l-3.449-5.756-1.631 6.508a.75.75 0 0 1-.912.546l-10.426-2.614z"/><g fill="#fff"><path d="M24.934 2.62 35.36 5.235l-2.073 8.268L40.6 9.122l5.523 9.22-7.312 4.38 8.268 2.073-2.614 10.426-8.268-2.073 4.38 7.312-9.218 5.523-4.381-7.312-2.073 8.268-10.426-2.614 2.073-8.268-7.312 4.38-5.523-9.219 7.312-4.38-8.268-2.074 2.614-10.426 8.268 2.073L9.262 9.1l9.219-5.523 4.38 7.312zm.366-1.457a1.5 1.5 0 0 0-1.823 1.092l-1.19 4.748-2.516-4.2a1.5 1.5 0 0 0-.925-.684 1.5 1.5 0 0 0-1.138.167L8.488 7.81a1.5 1.5 0 0 0-.684.925 1.5 1.5 0 0 0 .167 1.138l2.516 4.2L5.74 12.88a1.5 1.5 0 0 0-1.822 1.092L1.303 24.399a1.5 1.5 0 0 0 1.092 1.823l4.747 1.19-4.2 2.516a1.5 1.5 0 0 0-.516 2.063l5.523 9.219c.205.344.537.588.924.685s.795.038 1.138-.168l4.2-2.516-1.19 4.748a1.5 1.5 0 0 0 1.091 1.823l10.426 2.614a1.5 1.5 0 0 0 1.823-1.092l1.19-4.748 2.516 4.2c.215.357.55.59.925.684.376.095.78.047 1.138-.167l9.22-5.523a1.5 1.5 0 0 0 .684-.925 1.5 1.5 0 0 0-.167-1.138l-2.516-4.2 4.748 1.191a1.5 1.5 0 0 0 1.822-1.092l2.614-10.426a1.5 1.5 0 0 0-1.092-1.823l-4.747-1.19 4.2-2.516a1.5 1.5 0 0 0 .516-2.063L41.89 8.35a1.5 1.5 0 0 0-.924-.684 1.5 1.5 0 0 0-1.138.167l-4.2 2.516 1.19-4.748a1.5 1.5 0 0 0-1.091-1.823z"/><path d="m19.29 25.28-.298 1.189-6.514-1.633.298-1.189 2.607.654.26-1.037-2.254-.565.96-3.829 5.802 1.455-.96 3.828-2.253-.565-.26 1.037zm-4.33-3.45 3.268.819.364-1.452-3.268-.82zm9.71.354c.22.597.201 1.408-.056 2.434s-.624 1.75-1.099 2.173c-.475.423-1.026.553-1.643.399s-1.04-.53-1.26-1.127c-.22-.597-.207-1.41.05-2.436s.624-1.75 1.105-2.171c.48-.422 1.026-.553 1.643-.399s1.04.53 1.26 1.127zm-1.3 2.122c.317-1.267.235-1.96-.247-2.081-.488-.123-.888.45-1.205 1.717-.172.684-.232 1.187-.176 1.51.055.325.198.515.428.573.482.12.882-.452 1.2-1.719zm4.172-2.29-1.613 6.435-1.25-.314.39-1.552-.73-.183.383-1.167.65.163.285-1.138-.65-.163.214-1.21.728.183.342-1.362 1.25.314zm2.552 5.936a5.7 5.7 0 0 0 .933.15c.315.026.586.017.805-.024l-.284 1.132c-.215.048-.485.057-.813.035a5.526 5.526 0 0 1-.969-.154l-2.544-.638.895-3.57 2.393.6.318-1.267-2.41-.604.286-1.144 3.677.922-.888 3.543-2.399-.602-.325 1.295 1.323.332zm4.342-.4-.751-.189-.714 2.848-1.272-.32 1.612-6.429 1.272.32-.589 2.348.751.188zM36 28.7l-.937-.234.683-4.196 1.626.407zm-.088.8c.113.19.139.399.081.628s-.178.403-.368.516a.82.82 0 0 1-.628.08.797.797 0 0 1-.515-.367.78.78 0 0 1-.081-.628.788.788 0 0 1 .996-.596c.23.058.402.178.515.368z"/></g></g></svg>