<svg fill="none" height="49" viewBox="0 0 49 49" width="49" xmlns="http://www.w3.org/2000/svg" xmlns:xlink="http://www.w3.org/1999/xlink"><clipPath id="a"><path d="m.917969.360107h48v48h-48z"/></clipPath><g clip-path="url(#a)"><path d="m24.9202 47.5067c-3.0405 0-4.6361-5.819-5.3994-10.1121-2.5833 1.7974-6.3569 4.0733-8.9315 4.0733-.86256 0-1.54826-.25-2.0399-.7414-2.1477-2.1465.83664-7.3879 3.3337-10.9655-4.29543-.7629-10.11748-2.3621-10.11748-5.3966s5.82205-4.6336 10.11748-5.3965c-2.49706-3.5776-5.4814-8.819-3.3337-10.96554.49164-.49138 1.17734-.74138 2.0399-.74138 2.5703 0 6.3482 2.27587 8.9315 4.07332.7633-4.29314 2.3633-10.11212 5.3994-10.11212s4.636 5.81898 5.3994 10.11212c2.5833-1.79745 6.3569-4.07332 8.9315-4.07332.8625 0 1.5482.25 2.0399.74138 2.1477 2.14654-.8367 7.39224-3.3337 10.96554 4.2954.7629 10.1174 2.362 10.1174 5.3965s-5.822 4.6337-10.1174 5.3966c2.497 3.5776 5.4814 8.819 3.3337 10.9655-.4917.4914-1.1817.7414-2.0399.7414-2.5703 0-6.3482-2.2759-8.9315-4.0733-.7634 4.2931-2.3633 10.1121-5.3994 10.1121z" fill="#f4b95c"/><g fill="#fff"><path d="m24.9202 2.08425c2.027 0 3.7995 4.31035 4.7741 10.75865 4.0367-2.97416 7.5127-4.71986 9.5569-4.71986.6167 0 1.0997.15949 1.4317.49139 1.4318 1.43107-.3622 5.73277-4.235 10.98277 6.4518.9784 10.7644 2.75 10.7644 4.7715 0 2.0216-4.3126 3.7975-10.7644 4.7716 3.8728 5.25 5.6668 9.5517 4.235 10.9827-.332.3319-.815.4914-1.4317.4914-2.0442 0-5.5202-1.75-9.5569-4.7198-.9789 6.4483-2.7515 10.7586-4.7741 10.7586s-3.7994-4.3103-4.774-10.7586c-4.0367 2.9741-7.5127 4.7198-9.5569 4.7198-.61236 0-1.09967-.1595-1.43174-.4914-1.4318-1.431.36224-5.7327 4.23494-10.9827-6.45166-.9785-10.76428-2.75-10.76428-4.7716 0-2.0215 4.31262-3.7974 10.76428-4.7715-3.8727-5.25-5.66674-9.5517-4.23494-10.98277.33207-.3319.81507-.49139 1.43174-.49139 2.0442 0 5.5202 1.75001 9.5569 4.71986.9789-6.4483 2.7514-10.75865 4.774-10.75865zm0-1.724143c-2.7083 0-4.7223 3.198283-6.0075 9.517253-2.7687-1.82328-5.9428-3.48277-8.3277-3.48277-1.36709 0-2.19507.53881-2.65221.9957-1.91482 1.9138-1.07821 5.59911 2.48401 10.96981-6.32231 1.2802-9.522269 3.2931-9.522269 6s3.199959 4.7199 9.522269 6c-3.56222 5.3707-4.39883 9.056-2.48401 10.9698.45282.4526 1.28081.9957 2.65221.9957 2.3849 0 5.559-1.6594 8.3277-3.4827 1.2809 6.3189 3.2992 9.5172 6.0075 9.5172 2.7084 0 4.7224-3.1983 6.0075-9.5172 2.7688 1.8233 5.9429 3.4827 8.3235 3.4827 1.3671 0 2.1951-.5388 2.6522-.9957 1.9148-1.9138 1.0781-5.5991-2.4841-10.9698 6.3223-1.2801 9.5223-3.2931 9.5223-6s-3.2-4.7198-9.5223-6c3.5622-5.3707 4.3989-9.05601 2.4841-10.96981-.4528-.45258-1.2808-.9957-2.6522-.9957-2.3849 0-5.559 1.65949-8.3235 3.48277-1.2808-6.31897-3.2991-9.517253-6.0075-9.517253z"/><path d="m16.8419 28.5961c-.2889.2716-.6727.4612-.9919.5474-.7417.1983-1.2075-.1724-1.3714-.8146-.2846-1.0949-.4355-1.7414-.6684-2.569-.1337-.4483-.207-.6767-.4313-.9957.289-.2758.7202-.5215 1.0436-.6077.5434-.1423 1.0696.0086 1.1946.4827.0863.3319.2502 1.1164.4486 1.4656.0172.5732.2673 1.2025.3709 1.5689.1293.3879.2242.6466.4139.9181zm2.497-.6638c-.2889.2716-.6727.4612-.9919.5474-.7418.1983-1.1903-.1767-1.3542-.8189-.0215-.0776-.2285-.9138-.3406-1.2543-.0733-.2328-.1768-.4397-.5908-.3017.0603-.8966.6598-1.2673 1.1083-1.388.6383-.1681 1.2162.1509 1.3844.875.1984.8793.0948.4526.3752 1.4181.125.4267.194.6638.414.9181z"/><path d="m23.5037 25.9163c.2372.8922-.8238 1.4224-1.6302 1.6336-1.4146.375-2.3375-.2802-2.6005-1.2672-.3019-1.1294.4528-2.2328 1.8587-2.6078.9359-.25 1.7984-.069 2.0356.8319.0733.2715.0431.5819-.0604.8448-.4658.2414-1.2636.4828-1.8415.319.2458.3879.6469.5603 1.0868.4439.3407-.0905.5736-.3448.7547-.7629.1898.0862.3321.3276.3968.569zm-2.4108-.6595c.0431.1552.1035.2974.1725.4138.2587-.2629.3278-.6121.2502-.9138-.0432-.1552-.1165-.2673-.2502-.2328-.2458.0647-.2458.4612-.1725.7328z"/><path d="m26.4435 26.0533c-.2889.2716-.6727.4613-.9918.5475-.7418.1982-1.2076-.1725-1.3715-.8147-.2846-1.0948-.4356-1.7414-.6685-2.5689-.1337-.4483-.207-.6768-.4312-.9957.2889-.2759.7202-.5216 1.0436-.6078.5434-.1422 1.0696.0086 1.1947.4828.1768.6594.5908 2.2931.8194 3.0345.1293.3879.2242.6465.414.9181z"/><path d="m29.1076 25.3467c-.289.2715-.6728.4612-.9919.5474-.7418.1982-1.2075-.1724-1.3714-.8147-.2847-1.0948-.4356-1.7414-.6685-2.5689-.1337-.4483-.207-.6768-.4313-.9957.289-.2759.7203-.5216 1.0437-.6078.5434-.1422 1.0695.0086 1.1946.4828.1768.6595.5908 2.2931.8194 3.0344.1294.388.2243.6466.414.9182z"/><path d="m29.0494 23.5459c-.2674-1.0129.2242-2.0302 1.807-2.4483 1.5827-.4181 2.5143.2199 2.786 1.2328.2889 1.0862-.1898 2.1508-1.7768 2.5732-1.5828.4182-2.5273-.2672-2.8162-1.3534zm2.6695-.7069c-.1337-.5086-.3881-.8836-.621-.8233-.2286.0604-.2631.5172-.1294 1.0216.1553.5819.4226 1.0086.6512.9439.2286-.0603.2501-.5646.0949-1.1465z"/><path d="m35.3556 19.5662.4916 1.8362c.0863.3276-.2458.75-.7332 1.0086-.552.0172-1.0523-.194-1.1385-.5129-.1596-.6035-.3148-1.4483-.5693-2.1509.1122-.2285.4227-.4095.8626-.5259.4356-.1163.9833-.0517 1.0868.3449zm-.8539 3.8189c-.0863-.3189.194-.737.6123-.9784.4831 0 .9316.2241 1.0178.5431.1337.5-.1595.8577-.6123.9784-.4529.1207-.8841-.0431-1.0178-.5431z"/></g></g></svg>
