<svg fill="none" height="49" viewBox="0 0 49 49" width="49" xmlns="http://www.w3.org/2000/svg" xmlns:xlink="http://www.w3.org/1999/xlink"><clipPath id="a"><path d="m.917969.450684h48v48h-48z"/></clipPath><g clip-path="url(#a)"><path d="m22.7732 47.6118c-.0911 0-.1884-.0183-.2796-.0486l-10.2479-3.6348c-.4376-.1581-.6686-.6383-.5106-1.0759l2.2004-6.2119-5.95067 2.8324c-.11548.0547-.23703.079-.36468.079-.09725 0-.18844-.0182-.27961-.0486-.21274-.073-.38292-.231-.48017-.4315l-4.67418-9.8225c-.09725-.2006-.1094-.4316-.03038-.6443.07902-.2128.23095-.383.43153-.4802l5.95064-2.8325-6.212-2.2064c-.43763-.158-.66859-.6382-.51055-1.0758l3.63478-10.248c.12157-.3464.44979-.5592.79017-.5592.09117 0 .18844.0183.27961.0487l6.21191 2.2064-2.8324-5.95064c-.09725-.20058-.1094-.43155-.03038-.64429.07901-.21274.23098-.38294.43148-.48019l9.8225-4.67418c.1155-.05471.2371-.07902.3647-.07902.0973 0 .1884.01824.2796.04864.2128.07293.3829.23096.4802.43155l2.8325 5.95061 2.2064-6.21197c.1215-.34646.4498-.55921.7902-.55921.0911 0 .1884.01824.2795.04863l10.248 3.63479c.4376.15803.6686.63823.5105 1.07586l-2.2003 6.21202 5.9506-2.83251c.1155-.0547.2432-.07902.3587-.07902.316 0 .6139.17627.7597.48019l4.6742 9.81634c.0973.2006.1094.4316.0304.6443-.079.2128-.231.383-.4316.4802l-5.9506 2.8325 6.212 2.2064c.4377.158.6686.6382.5106 1.0758l-3.6348 10.248c-.0729.2127-.231.3829-.4316.4802-.1155.0547-.237.079-.3647.079-.0972 0-.1884-.0183-.2796-.0487l-6.2119-2.2064 2.8324 5.9507c.2006.4194.0244.9238-.395 1.1244l-9.8164 4.6742c-.1155.0547-.2371.079-.3647.079-.0973 0-.1885-.0182-.2796-.0486-.2128-.0729-.3829-.231-.4802-.4315l-2.8325-5.9507-2.2064 6.212c-.1216.3465-.4498.5592-.7902.5592z" fill="#ff6d3b"/><g fill="#fff"><path d="m27.0705 2.13437 10.2479 3.63479-2.8811 8.12664 7.7862-3.7077 4.6742 9.8224-7.7862 3.7077 8.1266 2.8811-3.6348 10.248-8.1266-2.8811 3.7077 7.7862-9.8164 4.6742-3.7077-7.7862-2.8811 8.1266-10.2479-3.6348 2.8811-8.1266-7.78627 3.7077-4.67418-9.8225 7.78625-3.7077-8.12663-2.8811 3.63478-10.2479 8.12665 2.8811-3.7077-7.78627 9.8224-4.67418 3.7078 7.78625 2.881-8.12663m0-1.683686c-.6929 0-1.3433.431572-1.5864 1.118416l-1.5256 4.29731-1.9633-4.11497c-.1945-.40117-.5349-.71116-.9543-.863121-.1824-.066861-.3708-.097255-.5653-.097255-.2492 0-.4984.054717-.7233.164125l-9.82244 4.674181c-.40117.1945-.71115.53489-.8631.95429-.15196.4194-.12766.88134.06685 1.28859l1.96329 4.11495-4.29736-1.5256c-.18234-.0669-.37077-.0973-.56527-.0973-.24921 0-.49842.0547-.72331.1641-.40117.1945-.71115.5349-.86311.9543l-3.63478 10.248c-.309992.8752.14587 1.8356 1.02114 2.1517l4.29733 1.5256-4.11499 1.9633c-.40116.1945-.71114.5349-.8631.9543s-.12765.8813.06685 1.2886l4.67418 9.8224c.28568.6078.89351.9604 1.51957.9604.24313 0 .48626-.0547.72331-.1641l4.11494-1.9633-1.5256 4.2973c-.31.8753.1459 1.8357 1.0211 2.1517l10.248 3.6348c.1823.0669.3707.0973.5652.0973.2493 0 .4985-.0547.7234-.1641.4011-.1945.7111-.5349.8631-.9543l1.5256-4.2974 1.9633 4.115c.1945.4012.5349.7112.9543.8631.1823.0669.3708.0973.5653.0973.2492 0 .4984-.0547.7233-.1641l9.8163-4.6742c.8388-.4012 1.1975-1.4041.7963-2.2429l-1.9633-4.115 4.2974 1.5257c.1823.0668.3707.0973.5652.0973.2492 0 .4985-.0548.7234-.1642.4011-.1945.7111-.5349.8631-.9543l3.6347-10.2479c.31-.8753-.1458-1.8356-1.0211-2.1517l-4.2973-1.5256 4.115-1.9633c.4011-.1945.7111-.5349.8631-.9543.1519-.4194.1276-.8813-.0669-1.2886l-4.6742-9.82245c-.2857-.60783-.8935-.96038-1.5195-.96038-.2432 0-.4863.05472-.7234.16413l-4.1149 1.9633 1.5256-4.29735c.31-.87527-.1459-1.83564-1.0211-2.15171l-10.248-3.634802c-.1884-.066861-.3768-.097254-.5652-.097254z"/><path d="m15.7598 19.6097c-.0365.0669-.1276.1155-.2067.0851l-1.6776-.4862c-.079-.0243-.1762.0182-.2188.0851-.0729.1276-.3404.6321-.389.7597-.0243.0669.0061.1216.0729.1459.6261.2249.8267.2188 1.4528.4437.0729.0243.1094.1034.0851.1763l-.3222.851c-.0365.0729-.1276.1337-.2006.1033l-1.5074-.5045c-.079-.0243-.1762.0851-.2006.158l-.5288 1.3008c-.0304.0669-.1155.1155-.1884.0972l-1.0941-.2856h-.0121c-.073-.0243-.0973-.0973-.073-.1642l1.8235-4.9234c.0304-.079.1094-.1215.1884-.0972l3.337 1.2521c.0729.0243.1094.0973.0851.1702-.0669.1945-.3282.6322-.4316.8449z"/><path d="m18.5291 20.9652c-.0486.1398-.395.9786-.4619 1.1306-.0122.0304-.0426.0425-.0851.0364-.7051-.2309-1.1549.1095-1.4345.9179 0 0-.1762.5166-.4133 1.1852-.0182.0608-.0851.0912-.1398.0669l-1.1184-.3647h-.0061c-.0547-.0182-.0851-.079-.0607-.1337l1.1426-3.5862c.0183-.0608.073-.0851.1216-.0669h.0061l1.1062.4559c.0851.0304.0973.0547.073.1277l-.0547.158s-.0122.0243 0 .0304c0 0 .006 0 .0182-.0122.3404-.237.8084-.1884 1.1063-.0851.0729.0243.1276.0547.1762.079.0182.0122.0486.0365.0365.073z"/><path d="m19.1094 25.372c-.0182.0547-.0789.073-.1215.0608h-.0061l-1.1731-.4558c-.0608-.0183-.079-.0791-.0669-.1338l1.0516-3.2336c.0182-.0547.0729-.079.1216-.0608l1.3554.5045c.0547.0183.079.079.0608.1337l-1.2278 3.1911zm.7416-3.8171c-.4133-.1459-.62-.6139-.4619-1.0515.1519-.4316.6139-.6626 1.0211-.5167.4194.1459.6261.62.4741 1.0516-.1519.4376-.6139.6746-1.0333.5227z"/><path d="m23.7143 25.6454c-.3161.5592-1.1974 1.1123-2.1395.778-1.1367-.4012-1.7506-1.3615-1.319-2.5833.4255-1.2095 1.4405-1.8721 2.4435-1.5134 1.246.4437 1.3311 1.5681.9542 2.6318-.0729.2006-.1944.2128-.2978.1763 0 .0061-.1216-.0182-1.8843-.6017-.0729.4437.152.6868.4073.778.2309.079.4802.0364.5713-.0912.0365-.0547.0912-.0729.1763-.0425.6929.2309 1.0151.3221 1.0333.3282.0669.0243.0851.0668.0669.1215l-.0122.0244zm-1.4162-2.0909c-.2006-.073-.4012 0-.5592.2796.2796.085.6625.2005.6868.2066.0183.0061.0304 0 .0365-.0243.0669-.1884.0365-.389-.1641-.4619z"/><path d="m27.3938 28.3928c-.0182.0365-.0607.0486-.1094.0365h-.006l-1.2825-.5592c-.0304-.0122-.0426-.0426-.0304-.0729.1094-.2189.2249-.5167.4072-1.0334.4194-1.1791.5227-1.6289.0973-1.7809-.3343-.1155-.5593.0426-.7477.5896l-.6504 1.8478c-.0182.0547-.0729.0851-.1276.0669l-1.2095-.4681c-.0547-.0182-.0791-.079-.0608-.1337l1.1974-3.6773c.0182-.0608.0729-.0851.1276-.0669l1.2886.4802c.0486.0243.073.079.0608.1398l-.0729.2006c.2613-.0304.5592-.0061.8995.1155.9665.3403 1.4284 1.009.7598 2.8871-.2796.7963-.4619 1.2461-.5531 1.4223z"/><path d="m33.539 24.7579-1.9572 4.9659c-.0182.0608-.0912.0912-.152.079l-1.088-.3282h-.006c-.0608-.0243-.0791-.0851-.073-.1398l.1216-.3526c-.2735.1216-.5775.1581-.9361.0304-.9786-.3464-1.3676-1.3007-.9603-2.4495.3829-1.0819 1.4162-1.5256 2.2854-1.2156.2978.1094.541.3039.7172.5227l.6079-1.5864c.0243-.0547.0911-.0912.1519-.073l1.2278.4133c.0547.0183.079.0851.0608.1338zm-2.5346 2.4677c.0243-.2249-.0973-.4619-.3404-.547-.3222-.1155-.62.0729-.7476.4315-.1277.3647.0243.6687.316.772.2006.0729.4863-.0304.6686-.3465l.1094-.316z"/><path d="m36.2124 29.1405c-.079.1094-.1945.1216-.3039.073l-.8631-.3404c-.1398-.0547-.1277-.1398-.0851-.2553.0851-.2492.0486-.541-.1884-.6261-.2675-.0972-.4073.0304-.4437.1338-.1034.2856.1702.4801.3768.626.5349.4012 1.3312.8024 1.0333 1.6472-.2735.778-1.2096.7963-1.9815.5228-1.1488-.4073-1.6594-1.1549-1.4162-1.8235.0547-.152.1155-.2432.2857-.1945l.8023.2674c.1762.0547.1702.1702.1215.2978-.0608.1702.1155.3769.4133.4863.2736.0973.3769.0122.3891-.0243.0972-.2674-.5592-.5957-.7294-.7294-.4377-.3404-.8996-.8327-.6261-1.6168.3343-.9421 1.161-1.3372 2.1517-.9847.9178.3282 1.5864 1.1245 1.1731 2.2854-.0243.073-.0668.1824-.1094.2553z"/><path d="m36.6099 31.7176c-.2978-.1094-.468-.4255-.3647-.7111.0972-.2796.4315-.4255.7294-.3222.2978.1033.462.4316.3647.7112-.1033.2857-.4316.4254-.7294.3221zm.8935-1.1609c-.0243.0425-.079.0668-.1276.0486l-.6261-.2371c-.0486-.0243-.0729-.079-.0608-.1215l1.2643-3.8962c.0182-.0547.0668-.0729.1155-.0547l.9968.4255c.0486.0243.073.079.0486.1276z"/></g></g></svg>
