<svg xmlns="http://www.w3.org/2000/svg" width="49" height="49" fill="none"><clipPath id="a"><path d="M.918.45h48v48h-48z"/></clipPath><g clip-path="url(#a)"><path fill="#ff6d3b" d="M22.773 47.612a.905.905 0 0 1-.28-.049l-10.247-3.635a.842.842 0 0 1-.51-1.075l2.2-6.212-5.951 2.832a.839.839 0 0 1-.644.03.84.84 0 0 1-.48-.431l-4.675-9.823a.818.818 0 0 1-.03-.644.86.86 0 0 1 .431-.48l5.951-2.833-6.212-2.206a.842.842 0 0 1-.51-1.076L5.45 11.762a.84.84 0 0 1 1.07-.51l6.212 2.206L9.9 7.508a.818.818 0 0 1-.03-.645.86.86 0 0 1 .43-.48l9.823-4.674a.839.839 0 0 1 .644-.03.84.84 0 0 1 .48.431l2.833 5.95 2.206-6.211a.84.84 0 0 1 1.07-.511l10.248 3.635a.842.842 0 0 1 .51 1.076l-2.2 6.212 5.951-2.833a.84.84 0 0 1 1.118.401l4.675 9.817c.097.2.109.431.03.644a.86.86 0 0 1-.432.48l-5.95 2.833 6.212 2.206a.842.842 0 0 1 .51 1.076l-3.634 10.248a.84.84 0 0 1-.797.56.873.873 0 0 1-.28-.05l-6.211-2.206 2.832 5.95c.2.42.025.925-.395 1.125l-9.816 4.674a.839.839 0 0 1-.645.03.84.84 0 0 1-.48-.43l-2.832-5.951-2.207 6.212a.84.84 0 0 1-.79.559z"/><g fill="#fff"><path d="M27.07 2.134 37.319 5.77l-2.88 8.127 7.785-3.708 4.675 9.823-7.787 3.707 8.127 2.881-3.635 10.248-8.126-2.88 3.707 7.785-9.816 4.675-3.708-7.787-2.88 8.127-10.249-3.635 2.881-8.126-7.786 3.707-4.674-9.822 7.786-3.708-8.126-2.881 3.634-10.248 8.127 2.881-3.708-7.786 9.823-4.674 3.707 7.786 2.881-8.127m0-1.683c-.692 0-1.343.431-1.586 1.118l-1.526 4.297-1.963-4.115a1.707 1.707 0 0 0-.954-.863 1.627 1.627 0 0 0-.565-.097c-.25 0-.499.055-.724.164L9.936 5.63a1.707 1.707 0 0 0-.863.955c-.152.42-.128.881.067 1.288l1.963 4.115-4.297-1.525a1.626 1.626 0 0 0-.566-.098c-.249 0-.498.055-.723.164a1.707 1.707 0 0 0-.863.955L1.019 21.73a1.689 1.689 0 0 0 1.021 2.151l4.298 1.526-4.115 1.963c-.402.195-.712.535-.864.955s-.127.88.067 1.288L6.1 39.437a1.679 1.679 0 0 0 2.243.796l4.115-1.963-1.525 4.297a1.689 1.689 0 0 0 1.02 2.152l10.249 3.634a1.66 1.66 0 0 0 1.288-.066c.401-.195.711-.535.863-.955l1.526-4.297 1.963 4.115c.195.401.535.711.955.863.182.067.37.097.565.097.25 0 .498-.054.723-.164l9.817-4.674a1.683 1.683 0 0 0 .796-2.243l-1.963-4.115 4.297 1.526c.182.067.37.097.565.097.25 0 .499-.055.724-.164.4-.195.71-.535.863-.954l3.634-10.248a1.688 1.688 0 0 0-1.02-2.152L43.5 23.493l4.115-1.963c.401-.194.711-.535.863-.954.152-.42.128-.881-.067-1.289l-4.674-9.822a1.678 1.678 0 0 0-2.243-.796l-4.115 1.963 1.526-4.298a1.689 1.689 0 0 0-1.021-2.151L27.636.548A1.676 1.676 0 0 0 27.07.45z"/><path d="M15.76 19.61c-.037.067-.128.115-.207.085l-1.678-.486c-.078-.025-.176.018-.218.085-.073.127-.34.632-.39.76-.024.066.007.121.074.145.626.225.826.22 1.452.444.073.024.11.103.086.176l-.323.851c-.036.073-.127.134-.2.104l-1.508-.505c-.079-.024-.176.085-.2.158l-.53 1.3c-.03.068-.115.116-.187.098l-1.095-.285h-.012c-.073-.025-.097-.098-.073-.165l1.824-4.923c.03-.08.11-.122.188-.097l3.337 1.252a.13.13 0 0 1 .085.17c-.067.195-.328.632-.431.845zm2.77 1.355c-.05.14-.396.979-.463 1.13-.012.031-.042.043-.085.037-.705-.23-1.155.11-1.434.918 0 0-.177.517-.414 1.185a.104.104 0 0 1-.14.067l-1.118-.364h-.006a.099.099 0 0 1-.06-.134l1.142-3.586c.018-.061.073-.085.122-.067h.006l1.106.456c.085.03.097.054.073.127l-.055.158s-.012.025 0 .03c0 0 .006 0 .018-.011.34-.237.809-.189 1.107-.086.073.025.127.055.176.08.018.012.048.036.036.072zm.58 4.407c-.019.055-.08.073-.122.06h-.006l-1.173-.455c-.061-.018-.08-.08-.067-.134l1.051-3.233a.093.093 0 0 1 .122-.061l1.355.504c.055.019.08.08.061.134l-1.228 3.191zm.741-3.817c-.413-.146-.62-.614-.462-1.052.152-.431.614-.662 1.021-.516.42.146.626.62.474 1.051-.152.438-.614.675-1.033.523zm3.863 4.09c-.316.56-1.197 1.113-2.14.778-1.136-.4-1.75-1.361-1.318-2.583.425-1.21 1.44-1.872 2.443-1.513 1.246.443 1.331 1.568.955 2.631-.073.201-.195.213-.298.177 0 .006-.122-.018-1.885-.602-.072.444.152.687.408.778.23.08.48.036.571-.091.037-.055.091-.073.176-.043.693.231 1.015.322 1.034.329.067.024.085.066.067.121l-.013.024zm-1.416-2.09c-.2-.074-.401 0-.56.28.28.084.663.2.688.206.018.006.03 0 .036-.025.067-.188.037-.389-.164-.462zm5.096 4.838c-.018.036-.06.048-.11.036h-.006l-1.282-.559c-.03-.012-.043-.043-.03-.073.109-.219.224-.517.407-1.033.42-1.18.522-1.63.097-1.781-.334-.116-.56.043-.748.59l-.65 1.847a.1.1 0 0 1-.128.067l-1.21-.468c-.054-.018-.078-.079-.06-.134l1.197-3.677a.096.096 0 0 1 .128-.067l1.289.48c.048.025.073.08.06.14l-.073.2c.262-.03.56-.005.9.116.966.34 1.428 1.01.76 2.887-.28.797-.462 1.247-.553 1.423zm6.145-3.635-1.957 4.966c-.018.06-.091.091-.152.079l-1.088-.328h-.006c-.061-.025-.08-.085-.073-.14l.121-.353a1.204 1.204 0 0 1-.936.03c-.978-.346-1.367-1.3-.96-2.449.383-1.082 1.416-1.525 2.285-1.215.298.109.541.303.718.522l.607-1.586a.131.131 0 0 1 .152-.073l1.228.413c.055.018.08.085.061.134zm-2.535 2.468a.516.516 0 0 0-.34-.547c-.322-.116-.62.073-.748.431-.127.365.025.669.316.772.201.073.487-.03.669-.346l.11-.316zm5.208 1.914c-.079.11-.194.122-.304.073l-.863-.34c-.14-.055-.127-.14-.085-.255.085-.25.049-.541-.188-.626-.268-.097-.407.03-.444.134-.103.285.17.48.377.626.535.4 1.331.802 1.033 1.647-.273.778-1.21.796-1.981.523-1.149-.408-1.66-1.155-1.416-1.824.054-.152.115-.243.285-.194l.803.267c.176.055.17.17.121.298-.06.17.116.377.413.486.274.097.377.012.39-.024.097-.268-.56-.596-.73-.73-.438-.34-.9-.832-.626-1.616.334-.943 1.161-1.338 2.152-.985.918.328 1.586 1.124 1.173 2.285a1.528 1.528 0 0 1-.11.255zm.398 2.578c-.298-.11-.468-.426-.365-.711.097-.28.432-.426.73-.323.297.104.462.432.364.712-.103.285-.431.425-.73.322zm.893-1.161a.107.107 0 0 1-.127.048l-.626-.237c-.049-.024-.073-.079-.061-.121l1.264-3.897c.018-.054.067-.072.116-.054l.996.425c.05.025.074.08.05.128z"/></g></g></svg>