<svg xmlns="http://www.w3.org/2000/svg" width="49" height="49" fill="none"><path fill="#f4b95c" d="M24.92 46.532c-12.221 0-22.166-9.944-22.166-22.165C2.754 12.146 12.699 2.2 24.92 2.2c12.22 0 22.165 9.945 22.165 22.166 0 12.22-9.938 22.165-22.165 22.165z"/><g fill="#fff"><path d="M24.918 3.029c11.78 0 21.331 9.55 21.331 21.331S36.7 45.691 24.918 45.691s-21.331-9.55-21.331-21.33 9.55-21.332 21.331-21.332zm0-1.669c-12.681 0-23 10.319-23 23s10.319 23 23 23 23-10.318 23-23-10.312-23-23-23z"/><path d="M13.075 29.4c.06.173.06.32 0 .447-.06.126-.18.22-.347.28l-2.97 1.041c-.173.06-.32.06-.447 0-.12-.06-.214-.173-.274-.347-.06-.167-.06-.307 0-.434s.174-.214.347-.274l2.63-.927-.494-1.402a.484.484 0 0 1-.007-.374.45.45 0 0 1 .28-.227.496.496 0 0 1 .368 0c.1.047.18.147.234.294zm-.92-5.267a2.244 2.244 0 0 1-.3 1.135 1.98 1.98 0 0 1-.788.747c-.334.18-.721.26-1.162.254a2.41 2.41 0 0 1-.9-.174 1.864 1.864 0 0 1-.682-.46 2.099 2.099 0 0 1-.433-.7 2.385 2.385 0 0 1-.147-.889 2.29 2.29 0 0 1 .293-1.134c.187-.327.454-.574.781-.748.334-.173.721-.253 1.168-.247.334.007.634.06.901.174a1.96 1.96 0 0 1 1.128 1.148c.1.273.147.567.14.894zm-.935-.02a1.03 1.03 0 0 0-.14-.547.98.98 0 0 0-.427-.354c-.187-.087-.414-.127-.681-.133-.394-.007-.707.073-.934.253-.227.174-.347.42-.347.741 0 .207.04.394.14.547.093.154.24.274.427.36.187.088.414.134.68.134.401.007.715-.08.942-.253a.978.978 0 0 0 .34-.748zm1.497-3.791c-.073.154-.167.254-.287.294a.575.575 0 0 1-.414-.04L9.006 19.2c-.16-.074-.26-.167-.314-.287a.464.464 0 0 1 .014-.387.514.514 0 0 1 .193-.24c.074-.047.187-.087.327-.12l2.984-.755-.074.154-1.995-.915c-.154-.067-.254-.16-.3-.28-.047-.12-.04-.254.033-.407s.167-.254.287-.294c.12-.04.26-.027.407.04l3.057 1.395c.133.06.227.153.28.267s.047.234-.007.36a.68.68 0 0 1-.2.267 1.15 1.15 0 0 1-.334.134l-2.983.74.073-.153 1.996.915a.608.608 0 0 1 .307.28c.047.113.033.247-.04.407zm3.792-5.56c-.36.334-.728.548-1.101.641-.374.093-.741.087-1.095-.033s-.68-.34-.975-.661a2.508 2.508 0 0 1-.507-.788 2.01 2.01 0 0 1-.133-.834c.02-.28.1-.554.24-.834.14-.28.354-.54.627-.795.147-.14.314-.26.494-.373.18-.114.388-.2.608-.26a.42.42 0 0 1 .287.006c.087.034.16.094.22.174.053.08.087.167.1.26a.463.463 0 0 1-.06.267.44.44 0 0 1-.254.18c-.126.04-.253.094-.373.167-.12.073-.24.16-.36.267-.201.187-.341.374-.408.574a.906.906 0 0 0-.007.594c.067.2.187.4.374.6.28.308.567.468.861.481.294.014.587-.107.874-.38.087-.08.18-.18.268-.294s.166-.24.246-.374l.134.454-.7-.76-.308.286c-.107.094-.207.147-.307.14a.372.372 0 0 1-.274-.133c-.086-.093-.126-.194-.113-.294.007-.1.067-.2.174-.293l.654-.601c.106-.1.213-.147.313-.14s.2.06.3.167l.915.988c.08.086.134.18.154.273a.45.45 0 0 1-.054.3 3.968 3.968 0 0 1-.347.528c-.153.18-.3.347-.467.5zm6.184-2.983c-.18.033-.327.007-.44-.074-.114-.08-.187-.213-.214-.387l-.494-2.816-.941.167c-.147.026-.267.006-.36-.06-.094-.067-.147-.174-.174-.314s-.007-.26.06-.347.167-.147.32-.174l2.977-.527c.154-.027.274-.007.36.053s.148.167.174.307a.487.487 0 0 1-.053.36c-.06.094-.167.148-.32.174l-.935.167.494 2.817a.579.579 0 0 1-.067.434c-.08.12-.207.193-.387.22zm3.532-.127c-.18-.02-.314-.08-.4-.194s-.12-.253-.1-.44l.326-3.23c.02-.18.08-.32.187-.408.107-.093.254-.126.434-.106.174.02.3.08.387.193.087.114.12.254.1.434l-.327 3.23c-.02.18-.08.32-.186.408-.1.1-.24.133-.421.113zm2.441.368c-.147-.068-.24-.161-.28-.281a.538.538 0 0 1 .04-.4L29.84 8.28a.505.505 0 0 1 .287-.287c.12-.04.26-.033.407.04.133.06.227.134.274.22.053.088.08.201.086.348l.194 2.67-.187-.087 2.163-1.582a.754.754 0 0 1 .327-.153c.1-.014.213.006.333.06a.493.493 0 0 1 .287.28c.04.12.027.254-.04.4l-1.415 3.057a.54.54 0 0 1-.273.294c-.114.047-.247.033-.4-.034-.148-.066-.241-.16-.281-.28a.538.538 0 0 1 .04-.4l.874-1.896.114.054-1.602 1.128a.621.621 0 0 1-.24.106.408.408 0 0 1-.254-.046.423.423 0 0 1-.2-.167.666.666 0 0 1-.08-.26l-.18-1.963.133.06-.881 1.902a.54.54 0 0 1-.274.294c-.113.047-.233.047-.387-.02zm5.111 3.016c-.127-.14-.187-.28-.187-.42.006-.14.08-.274.22-.401l2.29-2.102c.14-.127.28-.187.42-.187.14.006.274.08.4.22l1.395 1.522c.094.1.14.207.134.307 0 .107-.054.2-.154.293-.107.094-.207.14-.313.14a.45.45 0 0 1-.3-.16l-1.069-1.168-.6.548.974 1.06c.094.108.14.208.14.308s-.06.2-.16.3c-.1.094-.207.14-.307.134-.107 0-.207-.054-.3-.16l-.975-1.062-.654.594L35.8 15.97c.093.1.14.207.133.314a.45.45 0 0 1-.16.3c-.106.094-.207.14-.313.134s-.2-.06-.294-.16zm3.477 5.707c-.027-.167-.007-.3.066-.408.074-.106.2-.173.367-.2l3.264-.58c.174-.034.314-.014.42.06.114.073.18.18.207.327a.566.566 0 0 1-.02.307c-.033.08-.106.173-.2.28l-2.029 2.316-.027-.167 2.163-.387a.58.58 0 0 1 .407.06c.107.067.174.187.207.354.027.167.007.3-.067.407s-.193.167-.36.2l-3.31.588a.519.519 0 0 1-.381-.06.438.438 0 0 1-.2-.3.545.545 0 0 1 .02-.335c.033-.086.1-.186.193-.293l2.036-2.31.027.167-2.163.387c-.167.027-.307.014-.414-.06-.106-.066-.173-.187-.207-.353zm.084 6.587c.1-.42.28-.767.534-1.041.253-.274.567-.46.934-.567.367-.1.761-.1 1.195 0 .327.08.607.2.847.36.24.16.428.36.568.594.14.234.233.494.28.774.04.287.027.581-.047.901-.1.42-.28.768-.534 1.048-.253.28-.56.46-.927.56-.36.101-.761.101-1.195-.006-.32-.08-.607-.2-.841-.36a1.945 1.945 0 0 1-.574-.594 1.927 1.927 0 0 1-.28-.774c-.054-.28-.04-.581.04-.895zm.914.22c-.047.207-.04.394.02.568.06.167.18.314.347.434.167.12.38.213.64.273.388.094.708.08.969-.046s.427-.34.5-.648a.988.988 0 0 0-.02-.56.903.903 0 0 0-.34-.441 1.665 1.665 0 0 0-.64-.28c-.388-.094-.715-.074-.975.046-.26.127-.428.348-.5.655zm-4.594 6.12c.12-.113.253-.22.393-.32a3.3 3.3 0 0 1 .855-.447.46.46 0 0 1 .314 0 .471.471 0 0 1 .226.167c.054.08.087.16.1.254a.427.427 0 0 1-.06.267.448.448 0 0 1-.253.187c-.16.053-.327.127-.5.233-.174.1-.321.214-.448.334-.194.18-.3.334-.327.46-.027.127-.007.228.06.3a.28.28 0 0 0 .234.088c.093-.014.22-.067.387-.167l.62-.374c.34-.207.655-.3.928-.287.274.02.52.14.741.374a1.219 1.219 0 0 1 .327 1.088 1.938 1.938 0 0 1-.22.6c-.114.2-.267.394-.467.581a2.962 2.962 0 0 1-.514.387 1.908 1.908 0 0 1-.554.227.467.467 0 0 1-.287-.006c-.094-.034-.16-.087-.214-.16s-.08-.154-.093-.241a.333.333 0 0 1 .067-.247c.053-.08.14-.14.266-.187s.247-.107.374-.187.24-.167.34-.26c.107-.1.187-.2.24-.3a.58.58 0 0 0 .074-.274.331.331 0 0 0-.093-.22.275.275 0 0 0-.227-.08c-.094.006-.22.06-.38.16l-.615.374c-.34.207-.654.307-.927.293-.274-.006-.52-.126-.734-.353-.14-.154-.24-.32-.294-.501a1.242 1.242 0 0 1-.033-.567c.033-.2.106-.4.22-.594.113-.194.273-.414.474-.601zm-2.801 2.117c.174-.074.327-.087.454-.034s.234.167.307.34l1.242 2.857c.073.174.086.327.033.454-.054.134-.167.234-.34.307l-1.89.821c-.126.054-.24.067-.333.027-.1-.04-.174-.12-.227-.247s-.067-.247-.027-.34c.04-.1.12-.174.247-.227l1.455-.634-.327-.748-1.321.574c-.134.053-.24.067-.34.027-.1-.04-.174-.12-.228-.254-.053-.127-.066-.24-.026-.334a.463.463 0 0 1 .253-.233l1.322-.574-.354-.808-1.448.634a.458.458 0 0 1-.334.027c-.1-.04-.174-.12-.234-.247-.053-.127-.066-.24-.026-.34.04-.1.12-.174.247-.227zm-4.127 1.315c.186-.014.34.026.44.12.107.093.167.233.18.42l.22 3.104c.014.187-.026.34-.12.44-.093.107-.233.167-.42.18l-2.056.147c-.14.007-.247-.02-.327-.086-.08-.067-.127-.167-.133-.308a.443.443 0 0 1 .086-.333.414.414 0 0 1 .307-.134l1.582-.113-.06-.814-1.442.1c-.14.013-.253-.02-.327-.087-.08-.067-.12-.174-.133-.314-.007-.14.02-.247.087-.327.066-.08.173-.127.313-.133l1.442-.1-.06-.875-1.582.114c-.14.006-.247-.02-.327-.087a.413.413 0 0 1-.133-.307c-.007-.14.02-.254.086-.327.067-.08.174-.12.307-.134zm-9.682.4a1.048 1.048 0 1 0 0-2.096 1.048 1.048 0 0 0 0 2.096z"/></g></svg>