<svg xmlns="http://www.w3.org/2000/svg" width="49" height="49" fill="none"><clipPath id="a"><path d="M.918.36h48v48h-48z"/></clipPath><g clip-path="url(#a)"><path fill="#f4b95c" d="M24.92 47.507c-3.04 0-4.636-5.82-5.4-10.112-2.582 1.797-6.356 4.073-8.93 4.073-.863 0-1.549-.25-2.04-.742-2.148-2.146.836-7.387 3.333-10.965-4.295-.763-10.117-2.362-10.117-5.397s5.822-4.633 10.117-5.396C9.386 15.39 6.402 10.148 8.55 8.002c.492-.491 1.178-.741 2.04-.741 2.57 0 6.349 2.276 8.932 4.073.763-4.293 2.363-10.112 5.4-10.112s4.635 5.82 5.399 10.112c2.583-1.797 6.357-4.073 8.931-4.073.863 0 1.548.25 2.04.741 2.148 2.147-.837 7.393-3.334 10.966 4.296.763 10.118 2.362 10.118 5.396s-5.822 4.634-10.118 5.397c2.497 3.578 5.482 8.819 3.334 10.966-.492.49-1.182.74-2.04.74-2.57 0-6.348-2.275-8.931-4.072-.764 4.293-2.364 10.112-5.4 10.112z"/><g fill="#fff"><path d="M24.92 2.084c2.027 0 3.8 4.31 4.774 10.759 4.037-2.974 7.513-4.72 9.557-4.72.617 0 1.1.16 1.432.491 1.432 1.431-.362 5.733-4.235 10.983 6.452.979 10.764 2.75 10.764 4.772 0 2.021-4.312 3.797-10.764 4.771 3.873 5.25 5.667 9.552 4.235 10.983-.332.332-.815.491-1.432.491-2.044 0-5.52-1.75-9.557-4.72-.979 6.449-2.751 10.76-4.774 10.76s-3.8-4.311-4.774-10.76c-4.036 2.975-7.512 4.72-9.557 4.72-.612 0-1.1-.16-1.431-.491-1.432-1.431.362-5.733 4.235-10.983-6.452-.978-10.765-2.75-10.765-4.771 0-2.022 4.313-3.798 10.765-4.772-3.873-5.25-5.667-9.552-4.235-10.983.332-.331.815-.491 1.431-.491 2.045 0 5.52 1.75 9.557 4.72.98-6.448 2.752-10.759 4.774-10.759zm0-1.724c-2.708 0-4.722 3.198-6.007 9.517-2.769-1.823-5.943-3.482-8.328-3.482-1.367 0-2.195.538-2.652.995-1.915 1.914-1.078 5.6 2.484 10.97-6.323 1.28-9.522 3.293-9.522 6s3.2 4.72 9.522 6c-3.562 5.37-4.399 9.056-2.484 10.97.453.452 1.28.996 2.652.996 2.385 0 5.559-1.66 8.328-3.483 1.28 6.319 3.299 9.517 6.007 9.517 2.709 0 4.723-3.198 6.008-9.517 2.769 1.823 5.943 3.483 8.323 3.483 1.367 0 2.195-.54 2.652-.996 1.915-1.914 1.078-5.6-2.484-10.97 6.323-1.28 9.523-3.293 9.523-6s-3.2-4.72-9.523-6c3.563-5.37 4.4-9.056 2.484-10.97-.452-.452-1.28-.995-2.652-.995-2.385 0-5.559 1.66-8.323 3.482C29.647 3.558 27.628.36 24.92.36z"/><path d="M16.842 28.596a2.447 2.447 0 0 1-.992.547c-.742.199-1.208-.172-1.371-.814-.285-1.095-.436-1.741-.669-2.57-.134-.447-.207-.676-.431-.995.289-.276.72-.521 1.044-.607.543-.143 1.07.008 1.194.482.086.332.25 1.117.449 1.466.017.573.267 1.202.37 1.569.13.388.225.646.414.918zm2.497-.664a2.447 2.447 0 0 1-.992.548c-.742.198-1.19-.177-1.354-.82-.022-.077-.229-.913-.34-1.253-.074-.233-.178-.44-.592-.302.06-.897.66-1.267 1.109-1.388.638-.168 1.216.15 1.384.875.198.88.095.452.375 1.418.125.427.194.664.414.918zm4.165-2.016c.237.892-.824 1.423-1.63 1.634-1.415.375-2.338-.28-2.601-1.267-.302-1.13.453-2.233 1.859-2.608.936-.25 1.798-.07 2.035.832.074.271.043.582-.06.845-.466.241-1.264.482-1.842.319.246.388.647.56 1.087.444.34-.091.574-.345.755-.763.19.086.332.327.397.569zm-2.411-.66c.043.156.103.298.172.415a.956.956 0 0 0 .25-.914c-.043-.155-.116-.268-.25-.233-.245.065-.245.461-.172.733zm5.351.797a2.447 2.447 0 0 1-.992.548c-.742.198-1.208-.173-1.372-.815-.284-1.095-.435-1.741-.668-2.569-.134-.448-.207-.677-.432-.995.29-.276.72-.522 1.044-.608.543-.142 1.07.008 1.195.483.177.659.59 2.293.82 3.034.128.388.223.647.413.918zm2.664-.706a2.45 2.45 0 0 1-.992.547c-.742.198-1.208-.172-1.372-.815-.284-1.094-.435-1.741-.668-2.569-.134-.448-.207-.676-.432-.995.29-.276.72-.522 1.044-.608.544-.142 1.07.009 1.195.483.177.66.59 2.293.82 3.034.129.388.224.647.413.918zm-.058-1.801c-.268-1.013.224-2.03 1.806-2.448 1.583-.418 2.515.22 2.786 1.232.29 1.087-.19 2.151-1.776 2.574-1.583.418-2.528-.268-2.817-1.354zm2.669-.707c-.134-.509-.388-.884-.621-.823-.229.06-.263.517-.13 1.021.156.582.423 1.009.652.944.228-.06.25-.564.095-1.146zm3.637-3.273.491 1.836c.086.328-.246.75-.733 1.009-.552.017-1.052-.194-1.138-.513-.16-.603-.315-1.448-.57-2.15.112-.23.423-.41.863-.527.435-.116.983-.051 1.087.345zm-.854 3.82c-.087-.32.194-.738.612-.98.483 0 .932.225 1.018.544.134.5-.16.857-.612.978-.453.12-.885-.043-1.018-.543z"/></g></g></svg>