<svg fill="none" height="49" viewBox="0 0 49 49" width="49" xmlns="http://www.w3.org/2000/svg"><path d="m24.9196 46.5325c-12.2208 0-22.16569-9.9449-22.16569-22.1657 0-12.2209 9.94489-22.16572 22.16569-22.16572 12.2209 0 22.1657 9.94482 22.1657 22.16572 0 12.2208-9.9382 22.1657-22.1657 22.1657z" fill="#f4b95c"/><g fill="#fff"><path d="m24.918 3.02871c11.7803 0 21.3314 9.55109 21.3314 21.33139s-9.5511 21.3314-21.3314 21.3314-21.33143-9.5511-21.33143-21.3314 9.55113-21.33139 21.33143-21.33139zm0-1.6686c-12.6814 0-23.00003 10.31859-23.00003 22.99999s10.31863 23 23.00003 23c12.6813 0 23-10.3186 23-23s-10.312-22.99999-23-22.99999z"/><path d="m13.0752 29.3993c.0601.1735.0601.3204 0 .4472-.06.1268-.1802.2202-.347.2803l-2.97013 1.0412c-.17354.0601-.32036.0601-.44718 0-.12014-.0601-.21358-.1735-.27365-.3471-.06007-.1668-.06007-.307 0-.4338s.17353-.2136.34706-.2737l2.6297-.9277-.4939-1.4016c-.0534-.1469-.0534-.267-.0067-.3738.0468-.1001.1402-.1802.2804-.2269.1401-.0467.2603-.0467.3671 0 .1001.0467.1802.1468.2336.2937z"/><path d="m12.1545 24.1332c-.0066.4338-.1068.8076-.3003 1.1346-.1936.3204-.4539.574-.7876.7476-.3337.1802-.7208.2603-1.16135.2536-.33372-.0067-.63406-.0601-.90103-.1735-.26698-.1068-.49392-.2603-.6808-.4606-.18689-.2002-.33372-.4338-.43384-.7008-.10011-.267-.15351-.5673-.14683-.8877.00667-.4338.10679-.8143.29367-1.1346.18688-.3271.45387-.574.78092-.7476.33372-.1735.72083-.2536 1.16802-.2469.33374.0067.63404.0601.90104.1735.267.1068.5006.2603.6874.4539.1936.1935.3338.4271.4406.6941.1001.2737.1468.5673.1401.8944zm-.9344-.02c0-.2136-.0467-.3938-.1402-.5473-.1001-.1535-.2402-.267-.4271-.3538-.1869-.0867-.4138-.1268-.68081-.1335-.39378-.0066-.70748.0734-.93441.2537-.22693.1735-.34706.4204-.34706.7408 0 .2069.04004.3938.14016.5473.09344.1535.24027.2737.42715.3604.18688.0868.41382.1335.6808.1335.40047.0067.71417-.0801.94107-.2536.2136-.1869.3337-.4338.3404-.7475z"/><path d="m12.7171 20.3221c-.0734.1535-.1669.2536-.287.2937-.1201.04-.2603.0267-.4138-.0401l-3.01014-1.3749c-.16019-.0734-.26031-.1669-.3137-.287-.0534-.1201-.04673-.247.01334-.3871.0534-.1135.11347-.1936.19356-.2403.07342-.0467.18688-.0868.32704-.1201l2.9835-.7542-.0734.1535-1.9957-.9144c-.15352-.0668-.25362-.1602-.30034-.2804-.04672-.1201-.04006-.2536.03336-.4071s.16688-.2536.28698-.2937c.1202-.04.2603-.0267.4072.0401l3.0568 1.3949c.1335.0601.227.1535.2804.267s.0467.2336-.0067.3604c-.0601.1268-.1268.2136-.2002.267-.0801.0534-.1869.0934-.3338.1335l-2.9834.7408.0734-.1535 1.9956.9144c.1535.0734.2537.1669.3071.2804.0467.1134.0333.2469-.0401.4071z"/><path d="m16.5089 14.7623c-.3604.3337-.7275.5473-1.1013.6408-.3738.0934-.7409.0867-1.0946-.0334-.3538-.1202-.6808-.3404-.9745-.6608-.2336-.2536-.4004-.5139-.5072-.7876-.1068-.2736-.1469-.5539-.1335-.8343.02-.2803.1001-.5539.2403-.8343.1401-.2803.3537-.5406.6274-.7942.1468-.1402.3136-.2603.4939-.3738.1802-.1134.3871-.2002.6073-.2603.1068-.0334.2003-.0267.287.0067.0868.0334.1602.0934.2203.1735.0534.0801.0868.1669.1001.2603.0067.0935-.0133.1869-.0601.267-.0467.0801-.1335.1402-.2536.1802-.1268.0401-.2536.0935-.3738.1669-.1201.0734-.2402.1602-.3604.2669-.2002.1869-.3404.3738-.4071.574-.0668.1936-.0734.3938-.0067.5941.0667.2002.1869.4004.3738.6007.2803.307.5673.4672.861.4805.2936.0134.5873-.1068.8743-.3804.0868-.0801.1802-.1802.267-.2937s.1668-.2403.2469-.3738l.1335.4539-.7008-.7609-.307.287c-.1068.0935-.2069.1469-.307.1402-.1001 0-.1936-.0467-.2737-.1335-.0867-.0934-.1268-.1936-.1134-.2937.0066-.1001.0667-.2002.1735-.2937l.6541-.6007c.1068-.1001.2136-.1468.3137-.1401s.2002.0601.3003.1668l.9144.9879c.0801.0867.1335.1802.1535.2736.0201.0934 0 .1936-.0534.3004-.0934.1735-.2135.3537-.347.5272-.1535.1802-.3004.3471-.4672.5006z"/><path d="m22.6931 11.7789c-.1802.0333-.3271.0066-.4405-.0735-.1135-.0801-.1869-.2135-.2136-.3871l-.4939-2.81657-.9411.16686c-.1469.02669-.267.00667-.3604-.06007-.0935-.06675-.1469-.17354-.1736-.3137s-.0066-.2603.0601-.34707.1669-.14684.3204-.17353l2.9768-.52728c.1535-.0267.2736-.00668.3604.05339s.1468.16686.1735.30703c.0267.14683.0067.26697-.0534.36041-.0601.09345-.1668.14684-.3204.17354l-.9344.16686.4939 2.81663c.0334.1735.0067.3203-.0667.4338-.0801.1201-.2069.1936-.3871.2203z"/><path d="m26.225 11.652c-.1802-.02-.3137-.08-.4005-.1935s-.1201-.2536-.1001-.4405l.327-3.23043c.02-.18021.0801-.32037.1869-.40714.1068-.09344.2536-.12681.4339-.10679.1735.02002.3003.08009.3871.19356.0867.11346.1201.25362.1001.43383l-.3271 3.23037c-.02.1803-.0801.3204-.1868.4072-.1002.1001-.2403.1335-.4205.1134z"/><path d="m28.6661 12.0191c-.1468-.0667-.2402-.1601-.2803-.2803-.04-.1201-.0267-.2536.0401-.4004l1.4149-3.05692c.0668-.14684.1602-.24028.287-.287.1202-.04005.2603-.03338.4072.04004.1335.06007.2269.13349.2736.22026.0534.08676.0801.20023.0868.34707l.1936 2.66975-.1869-.0868 2.1625-1.58179c.1201-.08677.2269-.14017.327-.15351.1001-.01335.2136.00667.3337.06007.1535.06674.247.16686.287.28032.0401.12014.0267.25361-.04.40051l-1.415 3.0568c-.0667.1469-.1602.247-.2736.2937-.1135.0467-.247.0334-.4005-.0334-.1468-.0667-.2403-.1602-.2803-.2803-.0401-.1201-.0267-.2536.04-.4005l.8744-1.8955.1134.0534-1.6018 1.128c-.0868.0601-.1669.0934-.2403.1068-.0734.0133-.1602 0-.2536-.0467-.0935-.0401-.1602-.1002-.2003-.1669-.04-.0668-.0667-.1535-.08-.2603l-.1803-1.96228.1335.06007-.881 1.90221c-.0667.1468-.1602.2469-.2737.2937-.1134.0467-.2335.0467-.3871-.0201z"/><path d="m33.7767 15.036c-.1268-.1402-.1869-.2804-.1869-.4205.0067-.1402.0801-.2737.2203-.4005l2.2893-2.1024c.1402-.1268.2803-.1869.4205-.1869.1402.0067.2737.0801.4005.2202l1.3949 1.5218c.0935.1001.1402.2069.1335.307 0 .1068-.0534.2003-.1535.2937-.1068.0934-.2069.1402-.3137.1402-.1068-.0067-.2069-.0601-.3003-.1602l-1.068-1.168-.6006.5473.9744 1.0612c.0935.1068.1402.2069.1402.307s-.0601.2002-.1602.3004c-.1001.0934-.2069.1401-.307.1335-.1068 0-.2069-.0534-.3004-.1602l-.9744-1.0613-.6541.5941 1.0679 1.168c.0934.1001.1401.2069.1334.3137-.0066.1068-.06.2069-.1601.3003-.1068.0935-.2069.1402-.3137.1335s-.2003-.0601-.2937-.1602z"/><path d="m37.2535 20.7426c-.0267-.1669-.0067-.3004.0667-.4072.0734-.1067.2003-.1735.3671-.2002l3.2638-.5807c.1735-.0333.3137-.0133.4205.0601.1135.0734.1802.1802.2069.3271.02.1268.0133.2269-.02.307-.0334.0801-.1068.1735-.2002.2803l-2.0291 2.316-.0267-.1668 2.1625-.3872c.1602-.0267.3004-.0066.4072.0601.1068.0668.1735.1869.2069.3538.0267.1668.0066.3003-.0668.4071s-.1935.1669-.3604.2002l-3.3105.5874c-.1468.0267-.2736.0067-.3804-.0601-.1068-.0667-.1736-.1669-.2003-.3003-.0267-.1335-.02-.247.0201-.3338.0333-.0867.1001-.1868.1935-.2936l2.0357-2.3094.0267.1669-2.1625.3871c-.1668.0267-.307.0133-.4138-.0601-.1068-.0667-.1736-.1869-.2069-.3537z"/><path d="m37.3377 27.3302c.1001-.4205.2803-.7675.534-1.0412.2536-.2736.5673-.4605.9344-.5673.3671-.1001.7609-.1001 1.1947 0 .3271.0801.6074.2002.8477.3604.2402.1602.4271.3604.5673.594.1401.2336.2336.4939.2803.7743.04.287.0267.5806-.0467.901-.1001.4205-.2803.7676-.534 1.0479-.2536.2803-.5606.4605-.9277.5606-.3604.1002-.7609.1002-1.1947-.0066-.3204-.0801-.6074-.2003-.841-.3605-.2336-.1601-.4338-.3604-.574-.594-.1468-.2336-.2403-.4872-.2803-.7742-.0534-.2803-.0401-.5807.04-.8944zm.9144.2203c-.0467.2069-.04.3938.02.5673.0601.1669.1802.3137.3471.4338.1669.1202.3804.2136.6407.2737.3872.0934.7075.0801.9678-.0467s.4272-.3404.5006-.6474c.0467-.207.0401-.3938-.02-.5607-.0601-.1735-.1735-.3204-.3404-.4405-.1669-.1268-.3804-.2203-.6407-.2803-.3872-.0935-.7142-.0735-.9745.0467-.2603.1268-.4272.3471-.5006.6541z"/><path d="m33.6577 33.6709c.1201-.1135.2536-.2202.3937-.3204.1402-.1001.287-.1935.4339-.2669.1468-.0735.287-.1402.4205-.1802.1134-.0334.2202-.0401.3137 0 .0934.0333.1668.0867.2269.1668.0534.0801.0868.1602.1001.2536.0067.0935-.0067.1802-.0601.267-.0467.0801-.1335.1469-.2536.1869-.1602.0534-.327.1268-.5006.2336-.1735.1001-.3204.2136-.4472.3337-.1935.1802-.3003.3337-.327.4606-.0267.1268-.0067.2269.0601.3003.0667.0667.1401.0934.2336.0868.0934-.0134.2202-.0668.3871-.1669l.6207-.3738c.3404-.2069.6541-.3003.9277-.287.2737.0201.5207.1402.7409.3738.1468.1535.2469.3271.3003.5139.0534.1869.0601.3738.0267.574-.0333.1936-.1067.3938-.2202.6007-.1135.2003-.267.3938-.4672.5807-.1535.1468-.3271.2737-.5139.3871-.1936.1135-.3738.1869-.554.227-.1001.0267-.1936.0267-.287-.0067-.0935-.0334-.1602-.0868-.2136-.1602s-.0801-.1535-.0934-.2403c-.0134-.0868.0133-.1735.0667-.2469.0534-.0801.1402-.1402.267-.1869s.2469-.1068.3737-.1869c.1269-.0801.2403-.1669.3404-.2603.1068-.1001.1869-.2002.2403-.3004.0534-.1001.0734-.1935.0734-.2736-.0066-.0868-.0333-.1602-.0934-.2203-.0601-.06-.1335-.0867-.2269-.0801-.0935.0067-.2203.0601-.3805.1602l-.614.3738c-.3404.2069-.6541.307-.9278.2937-.2736-.0067-.5206-.1268-.7342-.3538-.1401-.1535-.2402-.3203-.2936-.5005-.0534-.1803-.0668-.3671-.0334-.5674.0334-.2002.1068-.4004.2203-.594.1134-.1936.2736-.4138.4739-.6007z"/><path d="m30.8572 35.7867c.1735-.0734.327-.0868.4538-.0334s.2336.1669.307.3404l1.2415 2.8567c.0734.1735.0868.327.0334.4538-.0534.1335-.1669.2336-.3404.307l-1.8889.821c-.1268.0534-.2403.0667-.3337.0267-.1001-.0401-.1735-.1202-.2269-.247s-.0668-.2469-.0267-.3404c.04-.1001.1201-.1735.2469-.2269l1.455-.6341-.327-.7475-1.3215.574c-.1335.0534-.2403.0668-.3404.0267-.1002-.04-.1736-.1201-.227-.2536-.0534-.1268-.0667-.2403-.0267-.3337.0401-.0935.1202-.1736.2537-.2336l1.3215-.574-.3537-.8076-1.4484.634c-.1268.0534-.2403.0601-.3337.0267-.1001-.04-.1736-.1201-.2336-.2469-.0534-.1268-.0668-.2403-.0267-.3404.04-.1001.1201-.1736.2469-.227z"/><path d="m26.7295 37.1015c.1869-.0133.3404.0267.4405.1202.1068.0934.1668.2336.1802.4205l.2202 3.1036c.0134.1869-.0267.3404-.1201.4405-.0934.1068-.2336.1668-.4205.1802l-2.0557.1468c-.1402.0067-.2469-.02-.327-.0867-.0801-.0668-.1269-.1669-.1335-.3071-.0134-.1401.02-.2536.0867-.3337.0668-.0801.1736-.1268.3071-.1335l1.5818-.1134-.0601-.8143-1.4417.1001c-.1401.0134-.2536-.02-.327-.0868-.0801-.0667-.1201-.1735-.1335-.3137-.0067-.1401.02-.2469.0868-.327.0667-.0801.1735-.1268.3137-.1335l1.4417-.1001-.0601-.8744-1.5818.1135c-.1402.0067-.247-.02-.3271-.0868-.0801-.0667-.1268-.1735-.1335-.307-.0067-.1401.02-.2536.0868-.327.0667-.0801.1735-.1202.307-.1335z"/><path d="m17.0479 37.502c.5787 0 1.0479-.4691 1.0479-1.0479 0-.5787-.4692-1.0479-1.0479-1.0479s-1.0479.4692-1.0479 1.0479c0 .5788.4692 1.0479 1.0479 1.0479z"/></g></svg>
