<svg fill="none" height="49" viewBox="0 0 49 49" width="49" xmlns="http://www.w3.org/2000/svg" xmlns:xlink="http://www.w3.org/1999/xlink"><clipPath id="a"><path d="m.917969.715149h48v48h-48z"/></clipPath><g clip-path="url(#a)"><path d="m24.9191 47.8532c-3.0383 0-4.6328-5.8179-5.3956-10.1102-2.5814 1.7971-6.3566 4.0725-8.9251 4.0725-.86192 0-1.54716-.2499-2.03845-.7412-2.14616-2.1462.83608-7.3866 3.33135-10.9636-4.29236-.7628-10.11029-2.3616-10.11029-5.3956 0-3.0339 5.81793-4.6327 10.11029-5.3955-2.49527-3.577-5.47751-8.8174-3.33135-10.96357.49129-.49129 1.17653-.74126 2.03845-.74126 2.5685 0 6.3437 2.27546 8.9251 4.07253.7628-4.29231 2.3617-10.11024 5.3956-10.11024s4.6328 5.81793 5.3956 10.11024c2.5814-1.79707 6.3566-4.07253 8.9251-4.07253.8619 0 1.5471.24997 2.0384.74126 2.1462 2.14617-.836 7.38657-3.3313 10.96357 4.2924.7628 10.1103 2.3616 10.1103 5.3955 0 3.034-5.8179 4.6328-10.1103 5.3956 2.4953 3.577 5.4775 8.8174 3.3313 10.9636-.4913.4913-1.1765.7412-2.0384.7412-2.5685 0-6.3437-2.2754-8.9251-4.0725-.7628 4.2923-2.3617 10.1102-5.3956 10.1102z" fill="#b8c6fb"/><g fill="#fff"><path d="m24.9184 2.43898c2.0255 0 3.7924 4.30958 4.7707 10.75672 4.0337-2.9736 7.5072-4.71901 9.55-4.71901.6119 0 1.0989.15946 1.4308.4913 1.4307 1.43081-.3621 5.73171-4.232 10.98081 6.4471.9782 10.7566 2.7495 10.7566 4.7707s-4.3095 3.7967-10.7566 4.7707c3.8699 5.249 5.6627 9.55 4.232 10.9807-.3319.3319-.8146.4913-1.4308.4913-2.0428 0-5.5163-1.7497-9.55-4.7189-.9783 6.4471-2.7495 10.7567-4.7707 10.7567s-3.7968-4.3096-4.7707-10.7567c-4.0338 2.9736-7.5073 4.7189-9.55 4.7189-.61198 0-1.09896-.1594-1.4308-.4913-1.43078-1.4307.36201-5.7317 4.232-10.9807-6.44712-.9783-10.7567-2.7495-10.7567-4.7707s4.30958-3.7968 10.7567-4.7707c-3.86999-5.2491-5.66278-9.55-4.232-10.98081.33184-.33184.81451-.4913 1.4308-.4913 2.0427 0 5.5162 1.74971 9.55 4.71901.9783-6.44714 2.7495-10.75672 4.7707-10.75672zm0-1.723831c-2.7064 0-4.719 3.197711-6.0033 9.519851-2.7667-1.82295-5.9385-3.48214-8.3217-3.48214-1.36617 0-2.19361.5387-2.65043.99551-1.91345 1.91345-1.07739 5.59813 2.48233 10.96783-6.31784 1.28-9.511238 3.2925-9.511238 5.9989 0 2.7065 3.197708 4.719 9.511238 5.999-3.55972 5.3697-4.39578 9.0544-2.48233 10.9679.45251.4525 1.27995.9955 2.65043.9955 2.3832 0 5.555-1.6592 8.3217-3.4822 1.28 6.3179 3.2969 9.5198 6.0033 9.5198s4.719-3.1976 5.9989-9.5198c2.7667 1.823 5.9386 3.4822 8.3218 3.4822 1.3661 0 2.1936-.5387 2.6504-.9955 1.9134-1.9135 1.0774-5.5982-2.4823-10.9679 6.3178-1.28 9.5112-3.2925 9.5112-5.999 0-2.7064-3.1977-4.7189-9.5112-5.9989 3.5597-5.3697 4.3957-9.05438 2.4823-10.96783-.4525-.4525-1.28-.99551-2.6504-.99551-2.3832 0-5.5551 1.65919-8.3218 3.48214-1.2799-6.31783-3.2968-9.519851-5.9989-9.519851z"/><path d="m17.5184 25.5378c-1.0903-.25-1.6075-1.0688-1.4523-1.7583.2198-.9611 1.1722-1.155 1.9048-.6895-.3362.5257-.6077 1.2713-.237 1.3532.0862.0172.3404-.0518.4438-.5086.0604-.2629.069-.6119-.2025-.849.1939-.4352.2327-.7972.2155-1.0989-.2026-.0862-.4827-.1594-.7456-.2198-.1551-.3318-.0388-.7326.1465-1.017.5431-.0259 1.3834.1163 1.7196.1939.7412.168 1.0774.5344.9653 1.0127l-.4999 2.2453c-.25 1.0946-1.1808 1.5773-2.2625 1.3317z"/><path d="m20.5618 23.5987c.2542-1.1205 1.2972-2.0686 3.0382-1.6722 1.7411.3965 2.2712 1.7023 2.0169 2.8228-.3017 1.323-1.3532 2.3229-3.0986 1.9264s-2.2582-1.7583-1.9565-3.077zm3.0555.6938c.1766-.78.0646-1.2455-.2586-1.3187-.3232-.0733-.6249.3016-.8016 1.0774-.2112.9265-.125 1.504.1982 1.5773.3233.0732.6508-.4094.862-1.336z"/><path d="m28.1158 27.6667c-.3836.1034-.8102.0991-1.1335.0258-.7498-.1724-.9912-.7111-.836-1.3575.2456-1.0214.3836-1.5127.5603-2.4047-.1035-.0604-.2457-.1078-.3793-.1379-.1551-.3319-.0388-.7327.1465-1.0171.487-.0517 1.0903.0517 1.4868.1379.5473.125.9438.5042.8318.9826-.1509.6637-.5086 2.0686-.6163 2.7624-.0646.4008-.1034.6766-.0603 1.0041z"/><path d="m33.9691 24.2837c.5991.1336.9051.4094 1.0214.5214-.0948.1638-.2413.4525-.3404.8318-.1638.6292-.3577 1.4609-.4956 2.1548-.1035.5214-.1207.9782-.1035 1.2196-.1939.0862-.6852.1336-1.4523-.0431-.4439-.0991-1.3187-.3706-1.5471-.6637.1422-.3146.5387-2.7538.0172-2.8745-.1336-.0301-.2543.1078-.3275.418-.181.7973.0603 1.8661.3059 2.4522-.3232.1207-.9222.1034-1.3144.0129-.3534-.0819-.7369-.2758-1.0687-.543.1163-.2111.3016-.6292.4309-1.1463.1767-.6852.3577-1.5213.4827-2.1591.0776-.3922.0733-.724.0603-.9223.5387-.0517 1.1076 0 1.5816.1121.4396.0991 1.3188.4223 1.5989.6766-.2069.4654-.4655 2.771-.0173 2.8745.1379.0301.2543-.1078.3276-.4181.181-.8059.0345-2.0039-.306-2.4521.3103-.1293.7671-.1379 1.142-.056z"/></g></g></svg>
