<svg fill="none" height="49" viewBox="0 0 49 49" width="49" xmlns="http://www.w3.org/2000/svg" xmlns:xlink="http://www.w3.org/1999/xlink"><clipPath id="a"><path d="m.917969.23175h48v48h-48z"/></clipPath><g clip-path="url(#a)"><path d="m24.9196 47.3783c-3.0388 0-4.6336-5.8189-5.3965-10.112-2.5819 1.7974-6.3535 4.0732-8.9268 4.0732-.86208 0-1.54741-.25-2.03879-.7414-2.14655-2.1465.8362-7.3879 3.33189-10.9655-4.29311-.7629-10.11206-2.3621-10.11206-5.3965 0-3.0345 5.81895-4.6337 10.11206-5.3966-2.49569-3.5776-5.47844-8.819-3.33189-10.96551.49138-.49138 1.17671-.74138 2.03879-.74138 2.569 0 6.3449 2.27587 8.9268 4.07329.7629-4.29311 2.362-10.11209 5.3965-10.11209 3.0344 0 4.6336 5.81898 5.3965 10.11209 2.5819-1.79742 6.3535-4.07329 8.9268-4.07329.8621 0 1.5474.25 2.0388.74138 2.1465 2.14651-.8362 7.39221-3.3319 10.96551 4.2931.7629 10.112 2.3621 10.112 5.3966 0 3.0344-5.8189 4.6336-10.112 5.3965 2.4957 3.5776 5.4784 8.819 3.3319 10.9655-.4914.4914-1.1811.7414-2.0388.7414-2.569 0-6.3449-2.2758-8.9268-4.0732-.7629 4.2931-2.3621 10.112-5.3965 10.112z" fill="#4181f0"/><g fill="#fff"><path d="m24.9192 1.95589c2.0258 0 3.7974 4.31035 4.7715 10.75861 4.0345-2.97412 7.5087-4.71981 9.5518-4.71981.6164 0 1.0991.15949 1.431.49138 1.431 1.43104-.362 5.73273-4.2327 10.98273 6.4482.9785 10.7586 2.75 10.7586 4.7716 0 2.0215-4.3104 3.7974-10.7586 4.7715 3.8707 5.25 5.6637 9.5518 4.2327 10.9828-.3319.3319-.8146.4914-1.431.4914-2.0431 0-5.5173-1.75-9.5518-4.7199-.9784 6.4483-2.75 10.7587-4.7715 10.7587-2.0216 0-3.7974-4.3104-4.7716-10.7587-4.0344 2.9742-7.5086 4.7199-9.5517 4.7199-.61207 0-1.09912-.1595-1.43101-.4914-1.43104-1.431.36204-5.7328 4.23271-10.9828-6.44825-.9784-10.75858-2.75-10.75858-4.7715 0-2.0216 4.31033-3.7974 10.75858-4.7716-3.87067-5.25-5.66375-9.55169-4.23271-10.98273.33189-.33189.81463-.49138 1.43101-.49138 2.0431 0 5.5173 1.75 9.5517 4.71981.9785-6.44826 2.75-10.75861 4.7716-10.75861zm0-1.72414c-2.7069 0-4.7198 3.19828-6.0043 9.51725-2.7673-1.82328-5.9397-3.48277-8.3233-3.48277-1.3664 0-2.19394.53881-2.65084.99571-1.91379 1.91379-1.07763 5.59916 2.48274 10.96986-6.31899 1.2801-9.51725 3.2931-9.51725 6 0 2.7068 3.19826 4.7198 9.51725 6-3.56037 5.3707-4.39653 9.056-2.48274 10.9698.45259.4526 1.28013.9957 2.65084.9957 2.3836 0 5.556-1.6595 8.3233-3.4828 1.2802 6.319 3.2974 9.5173 6.0043 9.5173s4.7198-3.1983 6.0043-9.5173c2.7672 1.8233 5.9397 3.4828 8.319 3.4828 1.3664 0 2.1939-.5388 2.6508-.9957 1.9138-1.9138 1.0776-5.5991-2.4828-10.9698 6.319-1.2802 9.5173-3.2932 9.5173-6 0-2.7069-3.1983-4.7199-9.5173-6 3.5604-5.3707 4.3966-9.05607 2.4828-10.96986-.4526-.45259-1.2801-.99571-2.6508-.99571-2.3836 0-5.5561 1.65949-8.319 3.48277-1.2802-6.31897-3.2974-9.51725-6.0043-9.51725z"/><path d="m16.8479 28.4684c-.2888.2716-.6724.4613-.9914.5475-.7413.1982-1.2069-.1725-1.3707-.8147-.2845-1.0948-.4353-1.7414-.668-2.569-.1337-.4482-.2069-.6767-.4311-.9957.2888-.2758.7198-.5215 1.0431-.6077.5431-.1422 1.069.0086 1.194.4828.0862.3318.25 1.1163.4483 1.4655.0172.5733.2672 1.2025.3706 1.5689.1293.388.2242.6466.4138.9181zm2.4957-.6637c-.2888.2715-.6724.4612-.9914.5474-.7414.1982-1.1897-.1767-1.3535-.819-.0215-.0776-.2284-.9138-.3404-1.2543-.0733-.2328-.1768-.4397-.5906-.3017.0604-.8966.6595-1.2673 1.1078-1.388.6379-.1681 1.2155.1509 1.3836.875.1983.8794.0949.4526.375 1.4181.125.4268.194.6638.4138.9181z"/><path d="m23.5053 25.7877c.2371.8922-.8233 1.4224-1.6293 1.6336-1.4138.375-2.3362-.2802-2.5992-1.2673-.3017-1.1293.4526-2.2327 1.8578-2.6077.9354-.25 1.7974-.069 2.0345.8319.0733.2715.0431.5819-.0604.8448-.4655.2414-1.2629.4828-1.8405.319.2457.3879.6466.5603 1.0862.4439.3405-.0905.5733-.3448.7543-.7629.1897.0862.3319.3276.3966.569zm-2.4095-.6595c.0431.1552.1034.2974.1724.4138.2586-.2629.3276-.6121.25-.9138-.0431-.1552-.1164-.2673-.25-.2328-.2457.0647-.2457.4612-.1724.7328z"/><path d="m26.4417 25.9256c-.2888.2716-.6724.4612-.9914.5474-.7413.1983-1.2069-.1724-1.3707-.8146-.2845-1.0949-.4353-1.7414-.6681-2.569-.1336-.4483-.2069-.6767-.431-.9957.2888-.2758.7198-.5215 1.0431-.6078.5431-.1422 1.069.0087 1.194.4828.1767.6595.5905 2.2931.8189 3.0345.1294.3879.2242.6466.4138.9181z"/><path d="m29.1058 25.2184c-.2888.2716-.6725.4612-.9914.5474-.7414.1983-1.2069-.1724-1.3707-.8146-.2845-1.0949-.4354-1.7414-.6681-2.569-.1337-.4483-.2069-.6767-.4311-.9957.2888-.2758.7199-.5215 1.0432-.6077.5431-.1423 1.0689.0086 1.1939.4827.1767.6595.5905 2.2931.819 3.0345.1293.3879.2241.6465.4138.9181z"/><path d="m29.0455 23.4169c-.2673-1.013.2241-2.0302 1.806-2.4483s2.5129.2198 2.7845 1.2328c.2888 1.0862-.1897 2.1508-1.7759 2.5732-1.5819.4181-2.5259-.2672-2.8146-1.3534zm2.668-.7069c-.1336-.5086-.3879-.8837-.6206-.8233-.2285.0603-.263.5172-.1294 1.0215.1552.5819.4225 1.0087.6509.944.2285-.0603.25-.5646.0948-1.1465z"/><path d="m35.3545 19.4383.4914 1.8362c.0862.3276-.2457.75-.7328 1.0087-.5517.0172-1.0517-.194-1.1379-.513-.1595-.6034-.3146-1.4483-.569-2.1508.1121-.2285.4225-.4095.8621-.5259.4354-.1164.9828-.0517 1.0862.3448zm-.8534 3.819c-.0862-.319.1939-.7371.612-.9785.4828 0 .9311.2242 1.0173.5432.1336.5-.1595.8577-.6121.9784s-.8836-.0431-1.0172-.5431z"/></g></g></svg>
