<svg xmlns="http://www.w3.org/2000/svg" width="49" height="49" fill="none"><path fill="#71ba9d" d="M38.513 44.935c-3.699 0-8.51-1.916-13.59-5.4-5.085 3.484-9.896 5.4-13.588 5.4-2.05 0-3.672-.583-4.825-1.742-3.25-3.25-1.802-10.44 3.659-18.42-5.468-7.974-6.908-15.17-3.659-18.42C7.663 5.2 9.291 4.61 11.335 4.61c3.699 0 8.503 1.917 13.589 5.401 5.086-3.484 9.897-5.4 13.589-5.4 2.05 0 3.672.582 4.824 1.742 3.25 3.25 1.81 10.44-3.658 18.42 5.468 7.974 6.908 15.17 3.658 18.42-1.152 1.16-2.78 1.742-4.824 1.742z"/><g fill="#fff"><path d="M38.514 5.455c1.762 0 3.216.482 4.235 1.494 3.096 3.096 1.226 10.265-4.088 17.824 5.314 7.558 7.184 14.735 4.088 17.824-1.019 1.018-2.473 1.494-4.235 1.494-3.612 0-8.517-2.017-13.589-5.582-5.079 3.565-9.984 5.582-13.589 5.582-1.762 0-3.216-.482-4.235-1.494C4.006 39.5 5.875 32.33 11.19 24.773 5.875 17.214 4.006 10.038 7.1 6.949c1.02-1.019 2.474-1.494 4.236-1.494 3.612 0 8.517 2.017 13.59 5.581 5.072-3.564 9.976-5.581 13.588-5.581zM11.33 3.78c-2.278 0-4.1.67-5.42 1.99-3.54 3.538-2.28 10.76 3.235 19.01-5.521 8.247-6.775 15.478-3.236 19.01 1.3 1.3 3.176 1.99 5.42 1.99 3.746 0 8.544-1.85 13.59-5.227 5.052 3.377 9.843 5.226 13.588 5.226 2.279 0 4.101-.67 5.421-1.99 3.538-3.538 2.285-10.76-3.236-19.01 5.521-8.248 6.774-15.471 3.236-19.01-1.3-1.3-3.176-1.99-5.42-1.99-3.746 0-8.544 1.85-13.59 5.227C19.873 5.63 15.075 3.78 11.33 3.78z"/><path d="M17.262 35.931c-.239-.216-.494-.46-.766-.733a34.06 34.06 0 0 1-.827-.86 34.52 34.52 0 0 1-1.677-1.92c-.044.066-.077.132-.116.194a1.07 1.07 0 0 0-.095.171l-1.049-.538c.622-1 1.2-1.765 1.738-2.304 1.093-1.093 2.054-1.221 2.886-.388.39.388.572.827.539 1.315s-.272 1.016-.716 1.582c.56-.05 1.077-.144 1.554-.288s.927-.317 1.355-.522l.189 1.288c-.24.116-.511.21-.822.288-.305.084-.627.15-.955.2-.327.05-.65.095-.96.128s-.6.056-.85.072c.228.239.456.466.694.705l.728.727v.056l-.411.41a5.83 5.83 0 0 0-.378.412zM15.22 30.77c-.094.094-.183.194-.277.3s-.183.216-.267.332l.522.589c.172.195.344.377.516.572.14-.15.295-.317.45-.506a3.84 3.84 0 0 0 .4-.577c.11-.2.166-.389.177-.577a.614.614 0 0 0-.194-.494c-.166-.167-.355-.222-.572-.161-.216.06-.472.238-.755.521zm7.579-.268c-.322.322-.661.538-1.033.655s-.733.133-1.088.044a2.105 2.105 0 0 1-.983-.571 2.68 2.68 0 0 1-.472-.65 2.388 2.388 0 0 1-.26-.838c-.04-.305 0-.622.11-.944.112-.322.323-.644.639-.96.228-.228.444-.389.65-.494.205-.106.4-.167.577-.189a1.38 1.38 0 0 1 .483.028 1.355 1.355 0 0 1 .594.327c.322.322.433.71.338 1.16-.094.45-.394.916-.893 1.416a4.098 4.098 0 0 1-.339.305c-.111.09-.216.172-.316.25a.915.915 0 0 0 .682.05c.223-.066.417-.183.572-.339a1.92 1.92 0 0 0 .478-.721 2.16 2.16 0 0 0 .11-.866l1.083.194c-.017.194-.05.405-.083.627a2.513 2.513 0 0 1-.25.717c-.117.25-.316.516-.6.799zm-2.31-2.531c-.194.194-.322.421-.372.671s-.028.494.067.722l.283-.217c.094-.072.172-.15.255-.233.073-.072.15-.16.234-.277.083-.106.155-.222.216-.339.067-.122.106-.228.128-.327.016-.106 0-.178-.061-.24-.028-.027-.072-.05-.14-.06s-.155 0-.254.033a1.3 1.3 0 0 0-.356.267zm5.498-.667c-.25.25-.544.411-.877.489a1.876 1.876 0 0 1-1.005-.039 2.152 2.152 0 0 1-.91-.555 2.295 2.295 0 0 1-.55-.827 2.254 2.254 0 0 1-.144-.91c.016-.306.083-.606.216-.894.128-.284.306-.539.533-.766a3.02 3.02 0 0 1 .639-.483l-.178-.245 1-.71c.038.083.116.205.21.355.106.15.222.31.372.483.139.172.289.344.433.51.144.167.283.317.41.445.106.105.212.2.328.283.117.083.228.128.34.139s.221-.034.327-.14l.072-.071.744.999a1.71 1.71 0 0 1-.655.433 1.238 1.238 0 0 1-.65.039c.017.305-.039.572-.166.81a2.8 2.8 0 0 1-.489.655zm-1.87-.827a.768.768 0 0 0 .582.183.951.951 0 0 0 .583-.294.918.918 0 0 0 .289-.566 1.477 1.477 0 0 0-.1-.655 2.389 2.389 0 0 1-.172-.161 11.316 11.316 0 0 1-.35-.372c-.117-.128-.228-.26-.339-.394a1.667 1.667 0 0 0-.516.36 1.46 1.46 0 0 0-.377.59 1.174 1.174 0 0 0-.034.632c.05.205.15.394.317.56l.06.062c.017.027.04.038.056.055zm5.53-2.831c-.172.173-.372.317-.6.422s-.466.167-.721.167a1.8 1.8 0 0 1-.783-.161 2.465 2.465 0 0 1-.783-.55 2.68 2.68 0 0 1-.61-.877 1.983 1.983 0 0 1-.161-.871c.016-.283.072-.55.183-.794.11-.244.26-.46.438-.638a2.701 2.701 0 0 1 .661-.494c-.233-.256-.466-.511-.7-.778l-.682-.783.899-.788a37.111 37.111 0 0 0 1.749 1.982c.322.344.644.666.954.977.295.294.578.566.85.827s.522.489.755.689l-.8.932a2.696 2.696 0 0 1-.188-.178 2.153 2.153 0 0 1-.161.472 1.31 1.31 0 0 1-.3.444zm-2.126-.971c.172.172.344.278.51.31.167.034.317.018.45-.038s.25-.128.339-.216a1.09 1.09 0 0 0 .25-.395c.06-.15.077-.333.055-.544l-.117-.116a55.878 55.878 0 0 1-.821-.844 1.063 1.063 0 0 0-.716.305c-.078.078-.15.172-.211.278a1.02 1.02 0 0 0-.122.366.881.881 0 0 0 .055.422c.061.161.167.311.328.472zm5.927-.911-1.15.35c-.016-.394-.05-.794-.094-1.182a17 17 0 0 0-.166-1.177 20.19 20.19 0 0 1-1.15-.206c-.4-.089-.777-.177-1.154-.277-.367-.1-.688-.2-.955-.3l.45-1.15c.222.1.472.195.755.29a15.02 15.02 0 0 0 1.799.455 16.95 16.95 0 0 0-.833-2.62l1.165-.5c.14.438.272.916.411 1.432a35.339 35.339 0 0 1 .722 3.275c.094.561.16 1.094.2 1.61zm2.582-4.469a.611.611 0 0 1-.465.189.67.67 0 0 1-.472-.205.617.617 0 0 1-.195-.472.67.67 0 0 1 .206-.472.611.611 0 0 1 .466-.189c.183.006.344.078.483.217s.206.294.206.46c0 .167-.084.328-.228.472zm-4.762-4.252.833-.755c.11.133.255.3.433.5.177.2.372.416.588.655s.433.477.655.71c.222.244.433.467.638.683.206.217.389.4.545.555l.127.128c.045.044.078.078.111.1l-.81.766a2.925 2.925 0 0 1-.2-.189l-.239-.239c-.272-.272-.566-.577-.888-.91-.31-.333-.627-.672-.938-1.016-.3-.344-.589-.677-.855-.988z"/></g></svg>